<?xml version="1.0" encoding="UTF-8"?><svg id="Layer_1" xmlns="http://www.w3.org/2000/svg" width="10.1in" height="3.28in" viewBox="0 0 727.41 236.33"><path d="M704.92,55.44c-15-17.56-36.09-31.19-63.27-40.89-27.18-9.7-59.52-14.55-97.02-14.55-30.61,0-56.86,3.6-78.74,10.79-21.87,7.2-41.08,16.9-57.65,29.1-16.55,12.21-31.4,25.84-44.53,40.89-13.12-15.05-27.98-28.68-44.53-40.89-16.57-12.21-35.78-21.9-57.65-29.1C239.65,3.6,213.4,0,182.79,0c-37.49,0-69.83,4.85-97.02,14.55-27.18,9.71-48.28,23.33-63.27,40.89C7.5,73.01,0,93.66,0,117.41c0,25.42,7.19,47,21.56,64.73,14.37,17.74,34.83,31.2,61.4,40.39,26.56,9.2,58.89,13.8,97.02,13.8,30.61,0,57.18-3.43,79.68-10.29,22.5-6.85,41.86-16.06,58.12-27.6,16.24-11.54,34.68-23.77,45.93-37.15,11.25,13.38,29.69,25.61,45.93,37.15,16.26,11.54,35.62,20.74,58.12,27.6,22.5,6.86,49.07,10.29,79.68,10.29,38.12,0,70.46-4.59,97.02-13.8,26.57-9.2,47.03-22.66,61.4-40.39,14.37-17.73,21.56-39.3,21.56-64.73,0-23.75-7.5-44.41-22.5-61.97ZM288.72,163.32c-13.75,10.21-29.53,18.06-47.34,23.58-17.81,5.52-38.59,8.28-62.34,8.28-33.75,0-61.56-6.35-83.43-19.07-21.88-12.71-32.81-32.11-32.81-58.2,0-24.41,10.93-43.23,32.81-56.45,21.87-13.21,50.62-19.82,86.24-19.82,21.87,0,41.25,3.1,58.12,9.28,16.87,6.19,31.87,14.89,44.99,26.09,13.12,11.21,25.31,24.67,36.56,40.39l5.62,8.03c-11.88,15.05-24.69,27.68-38.43,37.88ZM631.8,176.12c-21.87,12.72-49.68,19.07-83.43,19.07-23.74,0-44.53-2.76-62.34-8.28-17.81-5.52-33.58-13.37-47.34-23.58-13.74-10.2-26.56-22.83-38.43-37.88l5.62-8.03c11.25-15.72,23.43-29.18,36.56-40.39,13.12-11.2,28.12-19.9,44.99-26.09,16.87-6.19,36.25-9.28,58.12-9.28,35.62,0,64.37,6.61,86.24,19.82,21.88,13.22,32.81,32.03,32.81,56.45,0,26.09-10.93,45.49-32.81,58.2Z"/></svg>