<?xml version="1.0" encoding="UTF-8"?><svg id="Layer_1" xmlns="http://www.w3.org/2000/svg" width="19.06in" height="6.89in" viewBox="0 0 1372.51 495.82"><path d="M1245.4,38.14c13.51,0,24.8,4.7,33.86,14.1,9.21,9.4,16.11,23.31,20.72,41.72,4.6,18.02,6.91,40.74,6.91,68.16,0,16.84-.89,32.32-2.67,46.42-1.63,14.1-4.23,26.64-7.8,37.61-3.42,10.96-7.87,20.56-13.37,28.79l43.21,182.73h-51.68l-29.4-152.77h-6.46v152.77h-45.44V38.14h52.13ZM1245.62,123.93h-6.91v95.78h6.01c2.52,0,5.05-1.57,7.57-4.71,2.52-3.53,4.6-9,6.24-16.45,1.78-7.83,2.67-18.22,2.67-31.15,0-9-.52-16.64-1.56-22.92-1.04-6.66-2.67-11.75-4.9-15.28-2.23-3.52-5.27-5.28-9.13-5.28Z"/><polygon points="1172.17 457.68 1081.95 457.68 1081.95 38.14 1172.17 38.14 1172.17 129.21 1127.39 129.21 1127.39 195.03 1168.83 195.03 1168.83 286.1 1127.39 286.1 1127.39 365.43 1172.17 365.43 1172.17 457.68"/><polygon points="1029.71 457.68 984.26 457.68 984.26 130.97 950.18 130.97 950.18 38.14 1063.79 38.14 1063.79 130.97 1029.71 130.97 1029.71 457.68"/><path d="M869.88,38.14c13.51,0,24.8,4.7,33.86,14.1,9.21,9.4,16.11,23.31,20.72,41.72,4.6,18.02,6.91,40.74,6.91,68.16,0,16.84-.89,32.32-2.67,46.42-1.63,14.1-4.23,26.64-7.8,37.61-3.42,10.96-7.87,20.56-13.37,28.79l43.21,182.73h-51.68l-29.4-152.77h-6.46v152.77h-45.44V38.14h52.13ZM870.1,123.93h-6.91v95.78h6.01c2.52,0,5.05-1.57,7.57-4.71,2.52-3.53,4.6-9,6.24-16.45,1.78-7.83,2.67-18.22,2.67-31.15,0-9-.52-16.64-1.56-22.92-1.04-6.66-2.67-11.75-4.9-15.28-2.23-3.52-5.27-5.28-9.13-5.28Z"/><path d="M576.13,38.14c18.86,0,33.12,11.56,42.77,34.67,9.8,23.11,14.7,56.01,14.7,98.72,0,19.19-.97,37.6-2.9,55.23-1.93,17.24-5.05,32.91-9.36,47.01-4.31,13.71-10.02,24.68-17.15,32.9-7.13,7.83-15.96,11.75-26.51,11.75h-10.02v139.26h-45.44V38.14h53.91ZM575.9,129.8h-8.24v96.36h6.46c2.23,0,4.46-1.57,6.68-4.7,2.23-3.53,4.08-9.01,5.57-16.46,1.49-7.83,2.23-18.02,2.23-30.55,0-13.32-1.04-24.09-3.12-32.32-2.08-8.22-5.27-12.34-9.58-12.34Z"/><polygon points="501.11 457.68 410.9 457.68 410.9 38.14 501.11 38.14 501.11 129.21 456.34 129.21 456.34 195.03 497.77 195.03 497.77 286.1 456.34 286.1 456.34 365.43 501.11 365.43 501.11 457.68"/><polygon points="289.35 457.68 289.35 38.14 334.79 38.14 334.79 366.01 390.48 366.01 390.48 457.68 289.35 457.68"/><polygon points="268.24 457.68 178.02 457.68 178.02 38.14 268.24 38.14 268.24 129.21 223.46 129.21 223.46 195.03 264.89 195.03 264.89 286.1 223.46 286.1 223.46 365.43 268.24 365.43 268.24 457.68"/><polygon points="125.78 457.68 80.33 457.68 80.33 130.97 46.25 130.97 46.25 38.14 159.86 38.14 159.86 130.97 125.78 130.97 125.78 457.68"/><path d="M722.1,270.3c-12.63,0-24.12-13.16-32.35-37.06-7.77-22.57-12.05-52.49-12.05-84.25s4.28-61.69,12.05-84.25c8.23-23.9,19.72-37.06,32.35-37.06s24.12,13.16,32.35,37.06c7.77,22.57,12.05,52.49,12.05,84.25s-4.28,61.69-12.05,84.25c-8.23,23.9-19.72,37.06-32.35,37.06ZM722.1,35.68c-8.82,0-17.86,11.54-24.79,31.66-7.49,21.75-11.62,50.75-11.62,81.65s4.12,59.9,11.62,81.65c6.93,20.12,15.96,31.66,24.79,31.66s17.86-11.54,24.79-31.66c7.49-21.75,11.62-50.75,11.62-81.65s-4.12-59.9-11.62-81.65c-6.93-20.12-15.96-31.66-24.79-31.66Z"/><path d="M722.1,467.55c-12.63,0-24.12-13.16-32.35-37.06-7.77-22.57-12.05-52.49-12.05-84.25s4.28-61.69,12.05-84.25c8.23-23.9,19.72-37.06,32.35-37.06s24.12,13.16,32.35,37.06c7.77,22.57,12.05,52.49,12.05,84.25s-4.28,61.69-12.05,84.25c-8.23,23.9-19.72,37.06-32.35,37.06ZM722.1,232.93c-8.82,0-17.86,11.54-24.79,31.66-7.49,21.75-11.62,50.75-11.62,81.65s4.12,59.9,11.62,81.65c6.93,20.12,15.96,31.66,24.79,31.66s17.86-11.54,24.79-31.66c7.49-21.75,11.62-50.75,11.62-81.65s-4.12-59.9-11.62-81.65c-6.93-20.12-15.96-31.66-24.79-31.66Z"/><path d="M686.63,368.82c-12.63,0-24.12-13.16-32.35-37.06-7.77-22.57-12.05-52.49-12.05-84.25s4.28-61.69,12.05-84.25c8.23-23.9,19.72-37.06,32.35-37.06s24.12,13.16,32.35,37.06c7.77,22.57,12.05,52.49,12.05,84.25s-4.28,61.69-12.05,84.25c-8.23,23.9-19.72,37.06-32.35,37.06ZM686.63,134.2c-8.82,0-17.86,11.54-24.79,31.66-7.49,21.75-11.62,50.75-11.62,81.65s4.12,59.9,11.62,81.65c6.93,20.12,15.96,31.66,24.79,31.66s17.86-11.54,24.79-31.66c7.49-21.75,11.62-50.75,11.62-81.65s-4.12-59.9-11.62-81.65c-6.93-20.12-15.96-31.66-24.79-31.66Z"/><path d="M754.63,368.82c-12.63,0-24.12-13.16-32.35-37.06-7.77-22.57-12.05-52.49-12.05-84.25s4.28-61.69,12.05-84.25c8.23-23.9,19.72-37.06,32.35-37.06s24.12,13.16,32.35,37.06c7.77,22.57,12.05,52.49,12.05,84.25s-4.28,61.69-12.05,84.25c-8.23,23.9-19.72,37.06-32.35,37.06ZM754.63,134.2c-8.82,0-17.86,11.54-24.79,31.66-7.49,21.75-11.62,50.75-11.62,81.65s4.12,59.9,11.62,81.65c6.93,20.12,15.96,31.66,24.79,31.66s17.86-11.54,24.79-31.66c7.49-21.75,11.62-50.75,11.62-81.65s-4.12-59.9-11.62-81.65c-6.93-20.12-15.96-31.66-24.79-31.66Z"/><path d="M745.94,300.01c-12.63,0-24.12-13.16-32.35-37.06-7.77-22.57-12.05-52.49-12.05-84.25s4.28-61.69,12.05-84.25c8.23-23.9,19.72-37.06,32.35-37.06s24.12,13.16,32.35,37.06c7.77,22.57,12.05,52.49,12.05,84.25s-4.28,61.69-12.05,84.25c-8.23,23.9-19.72,37.06-32.35,37.06ZM745.94,65.38c-8.82,0-17.86,11.54-24.79,31.66-7.49,21.75-11.62,50.75-11.62,81.65s4.12,59.9,11.62,81.65c6.93,20.12,15.96,31.66,24.79,31.66s17.86-11.54,24.79-31.66c7.49-21.75,11.62-50.75,11.62-81.65s-4.12-59.9-11.62-81.65c-6.93-20.12-15.96-31.66-24.79-31.66Z"/><path d="M695.3,300.01c-12.63,0-24.12-13.16-32.35-37.06-7.77-22.57-12.05-52.49-12.05-84.25s4.28-61.69,12.05-84.25c8.23-23.9,19.72-37.06,32.35-37.06s24.12,13.16,32.35,37.06c7.77,22.57,12.05,52.49,12.05,84.25s-4.28,61.69-12.05,84.25c-8.23,23.9-19.72,37.06-32.35,37.06ZM695.3,65.38c-8.82,0-17.86,11.54-24.79,31.66-7.49,21.75-11.62,50.75-11.62,81.65s4.12,59.9,11.62,81.65c6.93,20.12,15.96,31.66,24.79,31.66s17.86-11.54,24.79-31.66c7.49-21.75,11.62-50.75,11.62-81.65s-4.12-59.9-11.62-81.65c-6.93-20.12-15.96-31.66-24.79-31.66Z"/><path d="M745.94,438.01c-12.63,0-24.12-13.16-32.35-37.06-7.77-22.57-12.05-52.49-12.05-84.25s4.28-61.69,12.05-84.25c8.23-23.9,19.72-37.06,32.35-37.06s24.12,13.16,32.35,37.06c7.77,22.57,12.05,52.49,12.05,84.25s-4.28,61.69-12.05,84.25c-8.23,23.9-19.72,37.06-32.35,37.06ZM745.94,203.38c-8.82,0-17.86,11.54-24.79,31.66-7.49,21.75-11.62,50.75-11.62,81.65s4.12,59.9,11.62,81.65c6.93,20.12,15.96,31.66,24.79,31.66s17.86-11.54,24.79-31.66c7.49-21.75,11.62-50.75,11.62-81.65s-4.12-59.9-11.62-81.65c-6.93-20.12-15.96-31.66-24.79-31.66Z"/><path d="M695.3,438.01c-12.63,0-24.12-13.16-32.35-37.06-7.77-22.57-12.05-52.49-12.05-84.25s4.28-61.69,12.05-84.25c8.23-23.9,19.72-37.06,32.35-37.06s24.12,13.16,32.35,37.06c7.77,22.57,12.05,52.49,12.05,84.25s-4.28,61.69-12.05,84.25c-8.23,23.9-19.72,37.06-32.35,37.06ZM695.3,203.38c-8.82,0-17.86,11.54-24.79,31.66-7.49,21.75-11.62,50.75-11.62,81.65s4.12,59.9,11.62,81.65c6.93,20.12,15.96,31.66,24.79,31.66s17.86-11.54,24.79-31.66c7.49-21.75,11.62-50.75,11.62-81.65s-4.12-59.9-11.62-81.65c-6.93-20.12-15.96-31.66-24.79-31.66Z"/><path d="M722.1,354.5c-11.31,0-21.56-11.67-28.86-32.86-6.84-19.86-10.61-46.19-10.61-74.13s3.77-54.27,10.61-74.13c7.3-21.19,17.55-32.86,28.86-32.86s21.56,11.67,28.86,32.86c6.84,19.86,10.61,46.19,10.61,74.13s-3.77,54.27-10.61,74.13c-7.3,21.19-17.55,32.86-28.86,32.86ZM722.1,148.51c-14.88,0-31.47,40.66-31.47,99,0,27.08,3.61,52.48,10.17,71.53,5.92,17.2,13.89,27.47,21.3,27.47,14.88,0,31.47-40.66,31.47-99,0-27.08-3.61-52.48-10.17-71.53-5.92-17.2-13.89-27.47-21.3-27.47Z"/></svg>