<?xml version="1.0" encoding="UTF-8"?><svg id="Layer_1" xmlns="http://www.w3.org/2000/svg" width="17.78in" height="6in" viewBox="0 0 1280.01 431.87"><path d="M1199.15,6.46c13.51,0,24.8,4.7,33.86,14.1,9.21,9.4,16.11,23.31,20.72,41.72,4.6,18.02,6.91,40.74,6.91,68.16,0,16.84-.89,32.32-2.67,46.42-1.63,14.1-4.23,26.64-7.8,37.61-3.42,10.96-7.87,20.56-13.37,28.79l43.21,182.73h-51.68l-29.4-152.77h-6.46v152.77h-45.44V6.46h52.13ZM1199.37,92.25h-6.91v95.78h6.01c2.52,0,5.05-1.57,7.57-4.71,2.52-3.53,4.6-9,6.24-16.45,1.78-7.83,2.67-18.22,2.67-31.15,0-9-.52-16.64-1.56-22.92-1.04-6.66-2.67-11.75-4.9-15.28-2.23-3.52-5.27-5.28-9.13-5.28Z"/><polygon points="1125.92 425.99 1035.7 425.99 1035.7 6.46 1125.92 6.46 1125.92 97.53 1081.14 97.53 1081.14 163.35 1122.57 163.35 1122.57 254.42 1081.14 254.42 1081.14 333.74 1125.92 333.74 1125.92 425.99"/><polygon points="983.45 425.99 938.01 425.99 938.01 99.29 903.93 99.29 903.93 6.46 1017.53 6.46 1017.53 99.29 983.45 99.29 983.45 425.99"/><path d="M823.63,6.46c13.51,0,24.8,4.7,33.86,14.1,9.21,9.4,16.11,23.31,20.72,41.72,4.6,18.02,6.91,40.74,6.91,68.16,0,16.84-.89,32.32-2.67,46.42-1.63,14.1-4.23,26.64-7.8,37.61-3.42,10.96-7.87,20.56-13.37,28.79l43.21,182.73h-51.68l-29.4-152.77h-6.46v152.77h-45.44V6.46h52.13ZM823.85,92.25h-6.91v95.78h6.01c2.52,0,5.05-1.57,7.57-4.71,2.52-3.53,4.6-9,6.24-16.45,1.78-7.83,2.67-18.22,2.67-31.15,0-9-.52-16.64-1.56-22.92-1.04-6.66-2.67-11.75-4.9-15.28-2.23-3.52-5.27-5.28-9.13-5.28Z"/><path d="M748.78,215.64c0,32.51-1.41,62.08-4.23,88.72-2.67,26.25-6.98,48.97-12.92,68.16-5.79,19.19-13.37,33.89-22.72,44.07-9.21,10.18-20.42,15.28-33.64,15.28s-23.98-5.1-33.19-15.28c-9.21-10.18-16.78-24.87-22.72-44.07-5.94-19.19-10.4-41.92-13.37-68.16-2.82-26.64-4.23-56.4-4.23-89.31,0-43.48,2.6-81.29,7.8-113.4,5.2-32.51,13.22-57.58,24.06-75.22,10.84-17.63,24.8-26.43,41.88-26.43s31.63,9,42.32,27.03c10.84,17.63,18.71,42.69,23.61,75.21,4.9,32.12,7.35,69.92,7.35,113.4ZM649.43,215.64c0,25.07.82,46.82,2.45,65.22,1.78,18.02,4.6,31.93,8.46,41.72,3.86,9.79,8.84,14.69,14.92,14.69,6.53,0,11.66-4.9,15.37-14.69,3.71-9.79,6.39-23.7,8.02-41.72,1.63-18.41,2.45-40.15,2.45-65.22,0-38-1.93-67.96-5.79-89.9-3.71-21.93-10.32-32.9-19.83-32.9-6.39,0-11.51,5.1-15.37,15.28-3.86,9.79-6.61,23.89-8.24,42.31-1.63,18.02-2.45,39.76-2.45,65.22Z"/><path d="M529.87,6.46c18.86,0,33.12,11.56,42.77,34.67,9.8,23.11,14.7,56.01,14.7,98.72,0,19.19-.97,37.6-2.9,55.23-1.93,17.24-5.05,32.91-9.36,47.01-4.31,13.71-10.02,24.68-17.15,32.9-7.13,7.83-15.96,11.75-26.51,11.75h-10.02v139.26h-45.44V6.46h53.91ZM529.65,98.12h-8.24v96.36h6.46c2.23,0,4.46-1.57,6.68-4.7,2.23-3.53,4.08-9.01,5.57-16.46,1.49-7.83,2.23-18.02,2.23-30.55,0-13.32-1.04-24.09-3.12-32.32-2.08-8.22-5.27-12.34-9.58-12.34Z"/><polygon points="454.86 425.99 364.64 425.99 364.64 6.46 454.86 6.46 454.86 97.53 410.09 97.53 410.09 163.35 451.52 163.35 451.52 254.42 410.09 254.42 410.09 333.74 454.86 333.74 454.86 425.99"/><polygon points="243.09 425.99 243.09 6.46 288.54 6.46 288.54 334.33 344.22 334.33 344.22 425.99 243.09 425.99"/><polygon points="221.98 425.99 131.77 425.99 131.77 6.46 221.98 6.46 221.98 97.53 177.21 97.53 177.21 163.35 218.64 163.35 218.64 254.42 177.21 254.42 177.21 333.74 221.98 333.74 221.98 425.99"/><polygon points="79.52 425.99 34.08 425.99 34.08 99.29 0 99.29 0 6.46 113.61 6.46 113.61 99.29 79.52 99.29 79.52 425.99"/></svg>