<?xml version="1.0" encoding="UTF-8"?><svg id="Layer_1" xmlns="http://www.w3.org/2000/svg" width="5.79in" height="16.12in" viewBox="0 0 417.13 1160.52"><path d="M55.69,260.57c-15.56-36.29,34.75-70.69,34.75-70.69-18.42-1.08-72.14,19.7-86.11,68.89-8.99,31.63-1.97,57.7,2.95,70.32.95,2.67,2.1,5.23,3.45,7.67.18.34.28.52.28.52h0c8.83,15.52,25.52,26.01,44.67,26.01,28.37,0,51.36-22.99,51.36-51.36s-22.99-51.36-51.36-51.36Z"/><path d="M138.25,410.56c-15.56-36.29,34.75-70.69,34.75-70.69-18.42-1.08-72.14,19.7-86.11,68.89-8.99,31.63-1.97,57.7,2.95,70.32.95,2.67,2.1,5.23,3.45,7.67.18.34.28.52.28.52h0c8.83,15.52,25.52,26.01,44.67,26.01,28.37,0,51.36-22.99,51.36-51.36s-22.99-51.36-51.36-51.36Z"/><path d="M361.44,260.57c15.56-36.29-34.75-70.69-34.75-70.69,18.42-1.08,72.14,19.7,86.11,68.89,8.99,31.63,1.97,57.7-2.95,70.32-.95,2.67-2.1,5.23-3.45,7.67-.18.34-.28.52-.28.52h0c-8.83,15.52-25.52,26.01-44.67,26.01-28.37,0-51.36-22.99-51.36-51.36s22.99-51.36,51.36-51.36Z"/><path d="M151.37,161.41c-5.21-1.63-14.97-31.56-15.94-43.27-.98-11.71-1.99-85.27.47-95.67h-.01c4.11-1.83,6.98-5.94,6.98-10.72,0-6.48-5.26-11.74-11.74-11.74s-11.74,5.26-11.74,11.74c0,4.79,2.87,8.9,6.98,10.72h-.01c2.46,10.4,1.44,83.96.47,95.67-.98,11.71-10.74,41.65-15.94,43.27s-6.08,6.71-3.02,9.48c6.83,6.18,13.6,12.33,17.66,17.53,2.61,3.33,5.61,5.21,5.61,5.21,0,0,3-1.88,5.61-5.21,4.07-5.2,10.83-11.35,17.66-17.53,3.06-2.77,2.19-7.85-3.02-9.48Z"/><path d="M305.3,161.41c-5.21-1.63-14.97-31.56-15.94-43.27-.98-11.71-1.99-85.27.47-95.67h-.01c4.11-1.83,6.98-5.94,6.98-10.72,0-6.48-5.26-11.74-11.74-11.74s-11.74,5.26-11.74,11.74c0,4.79,2.87,8.9,6.98,10.72h-.01c2.46,10.4,1.44,83.96.47,95.67-.98,11.71-10.74,41.65-15.94,43.27-5.21,1.63-6.08,6.71-3.02,9.48,6.83,6.18,13.6,12.33,17.66,17.53,2.61,3.33,5.61,5.21,5.61,5.21,0,0,3-1.88,5.61-5.21,4.07-5.2,10.83-11.35,17.66-17.53,3.06-2.77,2.18-7.85-3.02-9.48Z"/><path d="M55.69,899.95c-15.56,36.29,34.75,70.69,34.75,70.69-18.42,1.08-72.14-19.7-86.11-68.89-8.99-31.63-1.97-57.7,2.95-70.32.95-2.67,2.1-5.23,3.45-7.67.18-.34.28-.52.28-.52h0c8.83-15.52,25.52-26.01,44.67-26.01,28.37,0,51.36,22.99,51.36,51.36s-22.99,51.36-51.36,51.36Z"/><path d="M361.44,899.95c15.56,36.29-34.75,70.69-34.75,70.69,18.42,1.08,72.14-19.7,86.11-68.89,8.99-31.63,1.97-57.7-2.95-70.32-.95-2.67-2.1-5.23-3.45-7.67-.18-.34-.28-.52-.28-.52h0c-8.83-15.52-25.52-26.01-44.67-26.01-28.37,0-51.36,22.99-51.36,51.36s22.99,51.36,51.36,51.36Z"/><path d="M55.69,606.43c-15.56,36.29,34.75,70.69,34.75,70.69-18.42,1.08-72.14-19.7-86.11-68.89-8.99-31.63-1.97-57.7,2.95-70.32.95-2.67,2.1-5.23,3.45-7.67.18-.34.28-.52.28-.52h0c8.83-15.52,25.52-26.01,44.67-26.01,28.37,0,51.36,22.99,51.36,51.36s-22.99,51.36-51.36,51.36Z"/><path d="M361.44,606.43c15.56,36.29-34.75,70.69-34.75,70.69,18.42,1.08,72.14-19.7,86.11-68.89,8.99-31.63,1.97-57.7-2.95-70.32-.95-2.67-2.1-5.23-3.45-7.67-.18-.34-.28-.52-.28-.52h0c-8.83-15.52-25.52-26.01-44.67-26.01-28.37,0-51.36,22.99-51.36,51.36s22.99,51.36,51.36,51.36Z"/><path d="M151.37,999.11c-5.21,1.63-14.97,31.56-15.94,43.27-.98,11.71-1.99,85.27.47,95.67h-.01c4.11,1.83,6.98,5.94,6.98,10.72,0,6.48-5.26,11.74-11.74,11.74s-11.74-5.26-11.74-11.74c0-4.79,2.87-8.9,6.98-10.72h-.01c2.46-10.4,1.44-83.96.47-95.67-.98-11.71-10.74-41.65-15.94-43.27s-6.08-6.71-3.02-9.48c6.83-6.18,13.6-12.33,17.66-17.53,2.61-3.33,5.61-5.21,5.61-5.21,0,0,3,1.88,5.61,5.21,4.07,5.2,10.83,11.35,17.66,17.53,3.06,2.77,2.19,7.85-3.02,9.48Z"/><path d="M305.3,999.11c-5.21,1.63-14.97,31.56-15.94,43.27-.98,11.71-1.99,85.27.47,95.67h-.01c4.11,1.83,6.98,5.94,6.98,10.72,0,6.48-5.26,11.74-11.74,11.74s-11.74-5.26-11.74-11.74c0-4.79,2.87-8.9,6.98-10.72h-.01c2.46-10.4,1.44-83.96.47-95.67-.98-11.71-10.74-41.65-15.94-43.27-5.21-1.63-6.08-6.71-3.02-9.48,6.83-6.18,13.6-12.33,17.66-17.53,2.61-3.33,5.61-5.21,5.61-5.21,0,0,3,1.88,5.61,5.21,4.07,5.2,10.83,11.35,17.66,17.53,3.06,2.77,2.18,7.85-3.02,9.48Z"/><path d="M267.68,855.76c0-28.36-22.99-51.36-51.36-51.36-.73,0-1.45.02-2.16.05-.72-.03-1.44-.05-2.17-.05-28.37,0-51.36,22.99-51.36,51.36,0,3.07.29,6.08.8,9-1.5,12.41-1.2,27.51,3.53,44.16,6.05,21.3,19.56,37.27,34.42,48.45-10.39,12.4-22.14,20.44-22.14,20.44,7.84.46,22.07-3.04,36.92-11.01,14.84,7.97,29.08,11.47,36.92,11.01,0,0-11.75-8.04-22.14-20.44,14.86-11.18,28.37-27.15,34.42-48.45,4.73-16.64,5.02-31.74,3.53-44.16.52-2.93.8-5.93.8-9Z"/><path d="M216.33,260.57c-15.56-36.29,34.75-70.69,34.75-70.69-18.42-1.08-72.14,19.7-86.11,68.89-8.99,31.63-1.97,57.7,2.95,70.32.95,2.67,2.1,5.23,3.45,7.67.18.34.28.52.28.52h0c8.83,15.52,25.52,26.01,44.67,26.01,28.37,0,51.36-22.99,51.36-51.36s-22.99-51.36-51.36-51.36Z"/><path d="M211.99,260.57c15.56-36.29-34.75-70.69-34.75-70.69,18.42-1.08,72.14,19.7,86.11,68.89,8.99,31.63,1.97,57.7-2.95,70.32-.95,2.67-2.1,5.23-3.45,7.67-.18.34-.28.52-.28.52h0c-8.83,15.52-25.52,26.01-44.67,26.01-28.37,0-51.36-22.99-51.36-51.36s22.99-51.36,51.36-51.36Z"/><path d="M137.56,543.89v-165.09h22.23s-9.06-16.05-22.23-16.05v-38.41c4.59-.86,7.82-2.93,7.82-5.33,0-3.19-5.65-5.77-12.62-5.77s-12.62,2.58-12.62,5.77c0,2.41,3.23,4.47,7.82,5.33v38.41c-13.17,0-22.23,16.05-22.23,16.05h22.23v165.09c-4.59.86-7.82,2.93-7.82,5.33,0,3.19,5.65,5.77,12.62,5.77s12.62-2.58,12.62-5.77c0-2.41-3.23-4.47-7.82-5.33Z"/><path d="M286.2,410.56c15.56-36.29-34.75-70.69-34.75-70.69,18.42-1.08,72.14,19.7,86.11,68.89,8.99,31.63,1.97,57.7-2.95,70.32-.95,2.67-2.1,5.23-3.45,7.67-.18.34-.28.52-.28.52h0c-8.83,15.52-25.52,26.01-44.67,26.01-28.37,0-51.36-22.99-51.36-51.36s22.99-51.36,51.36-51.36Z"/><path d="M286.89,543.89v-165.09h-22.23s9.06-16.05,22.23-16.05v-38.41c-4.59-.86-7.82-2.93-7.82-5.33,0-3.19,5.65-5.77,12.62-5.77s12.62,2.58,12.62,5.77c0,2.41-3.23,4.47-7.82,5.33v38.41c13.17,0,22.23,16.05,22.23,16.05h-22.23v165.09c4.59.86,7.82,2.93,7.82,5.33,0,3.19-5.65,5.77-12.62,5.77s-12.62-2.58-12.62-5.77c0-2.41,3.23-4.47,7.82-5.33Z"/><path d="M138.25,755.51c-15.56,36.29,34.75,70.69,34.75,70.69-18.42,1.08-72.14-19.7-86.11-68.89-8.99-31.63-1.97-57.7,2.95-70.32.95-2.67,2.1-5.23,3.45-7.67.18-.34.28-.52.28-.52h0c8.83-15.52,25.52-26.01,44.67-26.01,28.37,0,51.36,22.99,51.36,51.36s-22.99,51.36-51.36,51.36Z"/><path d="M137.56,622.18v165.09h22.23s-9.06,16.05-22.23,16.05v38.41c4.59.86,7.82,2.93,7.82,5.33,0,3.19-5.65,5.77-12.62,5.77s-12.62-2.58-12.62-5.77c0-2.41,3.23-4.47,7.82-5.33v-38.41c-13.17,0-22.23-16.05-22.23-16.05h22.23v-165.09c-4.59-.86-7.82-2.93-7.82-5.33,0-3.19,5.65-5.77,12.62-5.77s12.62,2.58,12.62,5.77c0,2.41-3.23,4.47-7.82,5.33Z"/><path d="M286.2,755.51c15.56,36.29-34.75,70.69-34.75,70.69,18.42,1.08,72.14-19.7,86.11-68.89,8.99-31.63,1.97-57.7-2.95-70.32-.95-2.67-2.1-5.23-3.45-7.67-.18-.34-.28-.52-.28-.52h0c-8.83-15.52-25.52-26.01-44.67-26.01-28.37,0-51.36,22.99-51.36,51.36s22.99,51.36,51.36,51.36Z"/><path d="M286.89,622.18v165.09h-22.23s9.06,16.05,22.23,16.05v38.41c-4.59.86-7.82,2.93-7.82,5.33,0,3.19,5.65,5.77,12.62,5.77s12.62-2.58,12.62-5.77c0-2.41-3.23-4.47-7.82-5.33v-38.41c13.17,0,22.23-16.05,22.23-16.05h-22.23v-165.09c4.59-.86,7.82-2.93,7.82-5.33,0-3.19-5.65-5.77-12.62-5.77s-12.62,2.58-12.62,5.77c0,2.41,3.23,4.47,7.82,5.33Z"/><path d="M209.36,381.55v-165.09h-22.23s9.06-16.05,22.23-16.05v-38.41c-4.59-.86-7.82-2.93-7.82-5.33,0-3.19,5.65-5.77,12.62-5.77s12.62,2.58,12.62,5.77c0,2.41-3.23,4.47-7.82,5.33v38.41c13.17,0,22.23,16.05,22.23,16.05h-22.23v165.09c4.59.86,7.82,2.93,7.82,5.33,0,3.19-5.65,5.77-12.62,5.77s-12.62-2.58-12.62-5.77c0-2.41,3.23-4.47,7.82-5.33Z"/><path d="M216.33,606.43c-15.56,36.29,34.75,70.69,34.75,70.69-18.42,1.08-72.14-19.7-86.11-68.89-8.99-31.63-1.97-57.7,2.95-70.32.95-2.67,2.1-5.23,3.45-7.67.18-.34.28-.52.28-.52h0c8.83-15.52,25.52-26.01,44.67-26.01,28.37,0,51.36,22.99,51.36,51.36s-22.99,51.36-51.36,51.36Z"/><path d="M211.99,606.43c15.56,36.29-34.75,70.69-34.75,70.69,18.42,1.08,72.14-19.7,86.11-68.89,8.99-31.63,1.97-57.7-2.95-70.32-.95-2.67-2.1-5.23-3.45-7.67-.18-.34-.28-.52-.28-.52h0c-8.83-15.52-25.52-26.01-44.67-26.01-28.37,0-51.36,22.99-51.36,51.36s22.99,51.36,51.36,51.36Z"/><path d="M209.36,485.45v165.09h-22.23s9.06,16.05,22.23,16.05v38.41c-4.59.86-7.82,2.93-7.82,5.33,0,3.19,5.65,5.77,12.62,5.77s12.62-2.58,12.62-5.77c0-2.41-3.23-4.47-7.82-5.33v-38.41c13.17,0,22.23-16.05,22.23-16.05h-22.23v-165.09c4.59-.86,7.82-2.93,7.82-5.33,0-3.19-5.65-5.77-12.62-5.77s-12.62,2.58-12.62,5.77c0,2.41,3.23,4.47,7.82,5.33Z"/></svg>