<?xml version="1.0" encoding="UTF-8"?><svg id="Layer_1" xmlns="http://www.w3.org/2000/svg" width="10.69in" height="4.12in" viewBox="0 0 769.69 296.6"><path d="M384.85,277.03l-8.86-21.52s-7.8-16.87,8.86-16.87"/><path d="M203.67,215.47s56.05-1.67,68.6,20.08c0,0,11.71-35.14,20.91-37.65,9.2-2.51,41.83,16.73,46.01,26.77,0,0,6.69-47.69,44.34-61.07,0,0-76.97-22.59-179.87,51.87Z"/><path d="M166.48,238.64s-14.07,40.55-25.69,54.61c0,0-9.17-24.46-11.62-42.81l-31.19,11.62s-2.45-23.78,3.06-31.77L1.95,223.53s70.95-19.94,82.26-25.57c0,0,11.31,26.36,35.17,37.58,23.85,11.22,47.09,3.09,47.09,3.09Z"/><path d="M123.62,226.12c-10.48-5.8-26.47-17.84-19.56-43.73s50.06-29.35,53.51-27.62,16.11,40.28,4.03,61.57c-12.08,21.29-29.4,14.53-37.98,9.78Z"/><path d="M384.85,277.03l8.86-21.52s7.8-16.87-8.86-16.87"/><path d="M566.03,215.47s-56.05-1.67-68.6,20.08c0,0-11.71-35.14-20.91-37.65-9.2-2.51-41.83,16.73-46.01,26.77,0,0-6.69-47.69-44.34-61.07,0,0,76.97-22.59,179.87,51.87Z"/><path d="M386.16,185.7s27.31,14.27,25.17,44.24l-25.17-24.26h-2.63l-25.17,24.26c-2.14-29.97,25.17-44.24,25.17-44.24"/><path d="M603.22,238.64s14.07,40.55,25.69,54.61c0,0,9.17-24.46,11.62-42.81l31.19,11.62s2.45-23.78-3.06-31.77l99.08-6.76s-70.95-19.94-82.26-25.57c0,0-11.31,26.36-35.17,37.58-23.85,11.22-47.09,3.09-47.09,3.09Z"/><path d="M646.07,226.12c10.48-5.8,26.47-17.84,19.56-43.73s-50.06-29.35-53.51-27.62-16.11,40.28-4.03,61.57c12.08,21.29,29.4,14.53,37.98,9.78Z"/><path d="M384.85,16.23l-8.86,21.52s-7.8,16.87,8.86,16.87"/><path d="M203.67,77.79s56.05,1.67,68.6-20.08c0,0,11.71,35.14,20.91,37.65,9.2,2.51,41.83-16.73,46.01-26.77,0,0,6.69,47.69,44.34,61.07,0,0-76.97,22.59-179.87-51.87Z"/><path d="M166.48,54.61S152.41,14.07,140.79,0c0,0-9.17,24.46-11.62,42.81l-31.19-11.62s-2.45,23.78,3.06,31.77L1.95,69.72s70.95,19.94,82.26,25.57c0,0,11.31-26.36,35.17-37.58,23.85-11.22,47.09-3.09,47.09-3.09Z"/><path d="M123.62,67.14c-10.48,5.8-26.47,17.84-19.56,43.73s50.06,29.35,53.51,27.62,16.11-40.28,4.03-61.57c-12.08-21.29-29.4-14.53-37.98-9.78Z"/><path d="M384.85,16.23l8.86,21.52s7.8,16.87-8.86,16.87"/><path d="M566.03,77.79s-56.05,1.67-68.6-20.08c0,0-11.71,35.14-20.91,37.65-9.2,2.51-41.83-16.73-46.01-26.77,0,0-6.69,47.69-44.34,61.07,0,0,76.97,22.59,179.87-51.87Z"/><path d="M386.16,107.56s27.31-14.27,25.17-44.24l-25.17,24.26h-2.63l-25.17-24.26c-2.14,29.97,25.17,44.24,25.17,44.24"/><path d="M603.22,54.61s14.07-40.55,25.69-54.61c0,0,9.17,24.46,11.62,42.81l31.19-11.62s2.45,23.78-3.06,31.77l99.08,6.76s-70.95,19.94-82.26,25.57c0,0-11.31-26.36-35.17-37.58-23.85-11.22-47.09-3.09-47.09-3.09Z"/><path d="M646.07,67.14c10.48,5.8,26.47,17.84,19.56,43.73s-50.06,29.35-53.51,27.62-16.11-40.28-4.03-61.57c12.08-21.29,29.4-14.53,37.98-9.78Z"/></svg>