<?xml version="1.0" encoding="UTF-8"?><svg id="Layer_1" xmlns="http://www.w3.org/2000/svg" width="10.72in" height="10.72in" viewBox="0 0 772.04 771.67"><path d="M772.04,385.65c0-29-5.68-57.14-16.89-83.64-7.09-16.75-16.17-32.39-27.14-46.72-1.26-25.1-6.83-49.46-16.61-72.57-10.82-25.59-26.31-48.56-46.04-68.29-19.73-19.73-42.71-35.22-68.29-46.04-20.14-8.52-41.24-13.84-62.94-15.91-17.06-14.81-36.19-26.75-57.07-35.58C450.56,5.68,422.42,0,393.42,0s-57.14,5.68-83.64,16.89c-20.44,8.64-39.21,20.27-55.99,34.66-27.32.59-53.84,6.24-78.88,16.84-25.59,10.82-48.56,26.31-68.29,46.04-19.73,19.73-35.22,42.71-46.04,68.29-9.79,23.15-15.36,47.55-16.62,72.68-10.93,14.31-19.99,29.9-27.06,46.62C5.68,328.51,0,356.65,0,385.65s5.68,57.14,16.89,83.64c7.06,16.7,16.11,32.28,27.03,46.57,1.18,25.38,6.77,50.01,16.65,73.37,10.82,25.59,26.31,48.56,46.04,68.29,19.73,19.73,42.71,35.22,68.29,46.04,25.15,10.64,51.77,16.29,79.21,16.84,16.7,14.25,35.36,25.78,55.66,34.37,26.5,11.21,54.64,16.89,83.64,16.89s57.14-5.68,83.64-16.89c20.73-8.77,39.75-20.6,56.72-35.27,21.82-2.04,43.04-7.37,63.29-15.94,25.59-10.82,48.56-26.31,68.29-46.04,19.73-19.73,35.22-42.71,46.04-68.29,9.87-23.33,15.45-47.93,16.64-73.27,10.95-14.32,20.03-29.94,27.11-46.68,11.21-26.5,16.89-54.64,16.89-83.64ZM705.31,266.35c0,25.91-5.07,51.04-15.07,74.69-3.74,8.83-8.1,17.32-13.06,25.43-3.75-4.4-7.69-8.67-11.82-12.8-19.73-19.73-42.71-35.22-68.29-46.04-2.73-1.16-5.48-2.25-8.25-3.29.88-1.93,1.75-3.88,2.57-5.84,11.21-26.5,16.89-54.64,16.89-83.64,0-4.81-.16-9.6-.47-14.36,8.16,2.23,16.19,5.01,24.05,8.33,22.85,9.66,43.37,23.5,61,41.13,4.38,4.38,8.52,8.94,12.43,13.67.01.91.02,1.81.02,2.72ZM690.23,430.91c10,23.65,15.07,48.78,15.07,74.69,0,.69,0,1.37-.01,2.06-3.91,4.73-8.06,9.29-12.44,13.68-17.63,17.63-38.15,31.46-61,41.13-7.85,3.32-15.87,6.1-24.03,8.33.3-4.63.45-9.29.45-13.97,0-29-5.68-57.14-16.89-83.64-.8-1.88-1.62-3.75-2.47-5.6,2.73-1.03,5.44-2.11,8.14-3.25,25.59-10.82,48.56-26.31,68.29-46.04,4.13-4.13,8.06-8.4,11.82-12.8,4.96,8.11,9.33,16.59,13.06,25.43ZM524.25,697.18c-3.59.2-7.2.3-10.82.3-25.91,0-51.04-5.07-74.69-15.07-12.17-5.15-23.68-11.48-34.45-18.94,2.09-1.94,4.15-3.91,6.18-5.94,19.73-19.73,35.22-42.71,46.04-68.29,1.6-3.77,3.08-7.58,4.45-11.42,4.12,2.06,8.31,4,12.58,5.8,26.5,11.21,54.64,16.89,83.64,16.89,7.88,0,15.69-.42,23.43-1.26-2.48,11-5.95,21.77-10.38,32.24-9.66,22.85-23.5,43.37-41.13,61-1.59,1.59-3.21,3.15-4.85,4.69ZM257.73,692.49c-17.63-17.63-31.46-38.15-41.13-61-4.28-10.13-7.66-20.53-10.12-31.15,2.78.11,5.58.16,8.38.16,29,0,57.14-5.68,83.64-16.89,4.25-1.8,8.42-3.72,12.52-5.77,1.37,3.83,2.84,7.62,4.44,11.39,10.82,25.59,26.31,48.56,46.04,68.29,2.03,2.03,4.09,4,6.18,5.94-10.77,7.46-22.28,13.79-34.45,18.94-22.33,9.45-45.99,14.49-70.37,15.03-1.73-1.61-3.44-3.26-5.12-4.94ZM66.66,505.6c0-25.91,5.07-51.04,15.07-74.69,3.74-8.83,8.1-17.32,13.06-25.43,3.75,4.4,7.69,8.67,11.82,12.8,19.73,19.73,42.71,35.22,68.29,46.04,6.91,2.92,13.94,5.47,21.06,7.64-.17.4-.35.81-.52,1.21-11.21,26.5-16.89,54.64-16.89,83.64,0,5.85.24,11.66.7,17.44-13.38-2.51-26.44-6.44-39.07-11.79-22.85-9.66-43.37-23.5-61-41.13-4.41-4.41-8.58-9-12.51-13.76,0-.66-.01-1.31-.01-1.97ZM81.73,341.04c-10-23.65-15.07-48.78-15.07-74.69,0-.88,0-1.75.02-2.63,3.93-4.76,8.1-9.35,12.51-13.76,17.63-17.63,38.15-31.46,61-41.13,12.65-5.35,25.72-9.29,39.1-11.79-.48,5.9-.73,11.84-.73,17.82,0,29,5.68,57.14,16.89,83.64.21.49.42.97.63,1.45-7.16,2.18-14.22,4.73-21.17,7.67-25.59,10.82-48.56,26.31-68.29,46.04-4.13,4.13-8.06,8.4-11.82,12.8-4.96-8.11-9.33-16.59-13.06-25.43ZM262.56,74.51c24.49.5,48.24,5.55,70.66,15.03,12.17,5.15,23.68,11.48,34.45,18.94-2.09,1.94-4.15,3.91-6.18,5.94-19.73,19.73-35.22,42.71-46.04,68.29-1.51,3.58-2.92,7.19-4.24,10.83-4.16-2.09-8.4-4.05-12.71-5.87-26.5-11.21-54.64-16.89-83.64-16.89-2.77,0-5.54.05-8.29.16,2.46-10.48,5.8-20.76,10.04-30.77,9.66-22.85,23.5-43.37,41.13-61,1.59-1.59,3.2-3.14,4.83-4.67ZM524.56,74.79c1.53,1.44,3.05,2.9,4.54,4.39,17.63,17.63,31.46,38.15,41.13,61,4.38,10.36,7.81,20.99,10.29,31.86-7.71-.83-15.49-1.25-23.34-1.25-29,0-57.14,5.68-83.64,16.89-4.34,1.83-8.59,3.8-12.78,5.9-1.32-3.65-2.73-7.27-4.25-10.86-10.82-25.59-26.31-48.56-46.04-68.29-2.03-2.03-4.09-4-6.18-5.94,10.77-7.46,22.28-13.79,34.45-18.94,23.65-10,48.78-15.07,74.69-15.07,3.73,0,7.44.11,11.13.32ZM585.3,214.86c0,25.91-5.07,51.04-15.07,74.69-1.12,2.64-2.29,5.25-3.52,7.83-1.88-.48-3.77-.93-5.66-1.36-8.78-16.42-19.92-31.43-33.25-44.75-15.96-15.96-34.32-28.78-54.65-38.18,3.07-1.5,6.18-2.92,9.35-4.25,23.65-10,48.78-15.07,74.69-15.07,9.17,0,18.24.64,27.18,1.9.63,6.34.94,12.74.94,19.19ZM560.48,385.65c0,10.94-1.04,21.73-3.11,32.28-3.81-4.49-7.82-8.84-12.03-13.05-6.87-6.87-14.13-13.22-21.76-19.04,7.63-5.82,14.89-12.18,21.76-19.04,4.23-4.23,8.25-8.6,12.09-13.12,2.02,10.46,3.05,21.14,3.05,31.97ZM547.36,450.67c-.71,1.67-1.44,3.32-2.2,4.96-10.41,1.73-21.01,2.6-31.74,2.6-15.88,0-31.47-1.91-46.61-5.69-2.64-10.4-6.08-20.61-10.3-30.59-.21-.49-.42-.97-.63-1.45,7.16-2.18,14.22-4.73,21.17-7.67,9.11-3.85,17.89-8.3,26.31-13.32,9.14,6.4,17.73,13.62,25.73,21.62,7.52,7.52,14.34,15.56,20.45,24.09-.7,1.83-1.43,3.65-2.19,5.46ZM328.39,539.59c-1.4-.59-2.79-1.21-4.18-1.84-1.78-10.55-2.67-21.28-2.67-32.16,0-11.76,1.05-23.37,3.13-34.75,5.91-1.91,11.75-4.09,17.51-6.52,4.34-1.83,8.59-3.8,12.78-5.9,1.32,3.65,2.73,7.27,4.25,10.86,3.81,9.01,8.2,17.7,13.15,26.03-6.45,9.24-13.73,17.93-21.81,26.01-6.74,6.74-13.91,12.93-21.47,18.54-.23-.1-.46-.19-.68-.28ZM239.48,450.67c-.76-1.81-1.49-3.63-2.19-5.46,6.11-8.53,12.93-16.57,20.45-24.09,8-8,16.59-15.21,25.73-21.62,8.42,5.02,17.2,9.47,26.31,13.32,2.73,1.16,5.48,2.25,8.25,3.29-.88,1.93-1.74,3.88-2.57,5.84-4.22,9.98-7.66,20.19-10.3,30.59-15.14,3.78-30.73,5.69-46.61,5.69-5.35,0-10.67-.22-15.95-.65-1.09-2.28-2.12-4.58-3.11-6.91ZM226.35,385.65c0-10.84,1.02-21.52,3.05-31.97,3.83,4.52,7.86,8.89,12.09,13.12,6.87,6.87,14.13,13.22,21.76,19.04-7.63,5.82-14.89,12.18-21.76,19.04-4.2,4.2-8.21,8.56-12.03,13.05-2.06-10.55-3.11-21.34-3.11-32.28ZM239.48,320.62c.89-2.1,1.82-4.18,2.79-6.23,5.39-.45,10.81-.68,16.27-.68,15.88,0,31.47,1.91,46.61,5.69,2.64,10.4,6.08,20.61,10.3,30.59.8,1.88,1.62,3.75,2.47,5.6-2.73,1.03-5.44,2.11-8.14,3.25-9.11,3.85-17.89,8.3-26.31,13.32-9.14-6.4-17.73-13.62-25.73-21.62-7.56-7.56-14.41-15.65-20.55-24.22.73-1.91,1.49-3.81,2.29-5.7ZM328.39,231.71c.23-.1.46-.19.68-.28,7.56,5.61,14.73,11.8,21.47,18.54,8.08,8.08,15.36,16.77,21.81,26.01-4.95,8.34-9.34,17.02-13.15,26.03-1.6,3.77-3.08,7.58-4.45,11.42-4.12-2.06-8.31-4-12.58-5.8-5.76-2.44-11.6-4.61-17.51-6.52-2.08-11.38-3.13-22.98-3.13-34.75,0-11.12.94-22.09,2.79-32.86,1.34-.61,2.69-1.2,4.06-1.78ZM433.33,345.64c-2.51-.47-5.03-.9-7.56-1.28-.56-2.86-1.17-5.71-1.85-8.55,4.82-2.54,9.76-4.88,14.81-7.02.51-.21,1.01-.42,1.52-.63-1.48,4.34-3.11,8.64-4.91,12.88-.65,1.54-1.33,3.08-2.02,4.6ZM435.35,430.91c1.8,4.25,3.43,8.54,4.91,12.88-.51-.21-1.01-.42-1.52-.63-5.1-2.16-10.09-4.53-14.95-7.1.7-2.9,1.33-5.81,1.91-8.74,2.52-.38,5.02-.8,7.52-1.27.73,1.61,1.45,3.22,2.13,4.85ZM450.42,505.6c0,12.57-1.2,24.96-3.57,37.09-9-6.34-17.47-13.46-25.36-21.35-8.08-8.08-15.36-16.77-21.81-26.01,4.95-8.34,9.34-17.02,13.15-26.03,1.51-3.58,2.92-7.19,4.24-10.83,4.16,2.09,8.4,4.05,12.71,5.87,5.76,2.44,11.6,4.61,17.51,6.52,2.08,11.38,3.13,22.98,3.13,34.75ZM380.37,460.33c-1.89-4.46-3.59-8.97-5.13-13.52,3.65-2.37,7.24-4.85,10.74-7.44,3.53,2.6,7.13,5.1,10.81,7.48-1.53,4.54-3.24,9.04-5.12,13.48-1.75,4.13-3.63,8.19-5.65,12.16-2.02-3.98-3.9-8.03-5.65-12.16ZM340.14,423.08c1.88.48,3.77.93,5.66,1.36.71,3.89,1.52,7.75,2.45,11.59-4.88,2.58-9.89,4.96-15.02,7.13-.51.21-1.01.42-1.52.63,1.48-4.34,3.11-8.64,4.91-12.88,1.12-2.64,2.29-5.25,3.52-7.83ZM318.73,391.67c-4.26-1.8-8.43-3.75-12.53-5.83,4.09-2.09,8.27-4.03,12.53-5.83,3.28-1.39,6.6-2.68,9.94-3.88,1.99,3.34,4.06,6.63,6.23,9.85-2.12,3.15-4.15,6.36-6.09,9.62-3.39-1.21-6.74-2.52-10.07-3.93ZM336.61,341.04c-1.8-4.25-3.43-8.54-4.91-12.88.51.21,1.01.42,1.52.63,5.08,2.15,10.04,4.5,14.88,7.06-.9,3.78-1.69,7.58-2.38,11.4-1.91.43-3.81.89-5.7,1.38-1.19-2.5-2.32-5.03-3.41-7.59ZM386.02,298.8c2.02,3.98,3.9,8.03,5.65,12.16,1.95,4.62,3.72,9.3,5.29,14.02-3.74,2.41-7.4,4.94-10.98,7.59-3.56-2.63-7.21-5.15-10.92-7.55,1.58-4.74,3.35-9.43,5.31-14.06,1.75-4.13,3.63-8.19,5.65-12.16ZM406.75,385.65c0,.88,0,1.75-.02,2.63-3.93,4.76-8.1,9.35-12.51,13.76-1.59,1.59-3.2,3.14-4.83,4.67-2.38-.05-4.75-.14-7.11-.27-1.53-1.44-3.05-2.9-4.54-4.39-4.38-4.38-8.52-8.94-12.43-13.67-.01-.91-.02-1.81-.02-2.72,0-.69,0-1.37.01-2.06,3.91-4.73,8.06-9.29,12.44-13.68,1.59-1.59,3.21-3.15,4.85-4.69,2.16-.12,4.33-.2,6.51-.25,1.73,1.61,3.44,3.26,5.12,4.94,4.41,4.41,8.58,9,12.51,13.76,0,.66.01,1.31.01,1.97ZM437.07,385.97c3.03-4.51,5.88-9.14,8.56-13.87,7.62,2.15,15.12,4.79,22.47,7.9,4.26,1.8,8.43,3.75,12.53,5.83-4.09,2.09-8.27,4.03-12.53,5.83-7.4,3.13-14.94,5.78-22.61,7.94-2.64-4.65-5.45-9.2-8.42-13.63ZM429.79,307.62c-4.25,1.8-8.42,3.72-12.52,5.77-1.37-3.83-2.84-7.62-4.44-11.39-3.81-9.01-8.2-17.7-13.15-26.03,6.45-9.24,13.73-17.93,21.81-26.01,7.86-7.86,16.29-14.96,25.25-21.28,2.45,12.31,3.68,24.89,3.68,37.66,0,11.76-1.05,23.37-3.13,34.75-5.91,1.91-11.75,4.09-17.51,6.52ZM471.54,237.93c14.7,7.78,28.11,17.69,40,29.58,7.42,7.42,14.06,15.42,19.9,23.96-5.97-.49-11.97-.74-18.02-.74-14.2,0-28.19,1.37-41.88,4.07,1.24-9.37,1.86-18.86,1.86-28.45s-.62-19.06-1.86-28.42ZM405.24,233.72c-6.94,6.94-13.35,14.28-19.23,22-5.87-7.72-12.29-15.06-19.23-22-3.74-3.74-7.6-7.33-11.57-10.76,12.43-2.91,25.19-4.37,38.19-4.37,8.84,0,17.57.68,26.16,2.03-4.95,4.14-9.73,8.5-14.33,13.11ZM300.42,294.8c-13.69-2.71-27.68-4.07-41.88-4.07-.89,0-1.77,0-2.66.02,5.72-8.27,12.2-16.03,19.4-23.23,7.45-7.45,15.5-14.12,24.09-19.98-.54,6.23-.81,12.5-.81,18.82,0,9.59.63,19.08,1.86,28.45ZM258.54,481.22c14.2,0,28.19-1.37,41.88-4.07-1.24,9.37-1.86,18.86-1.86,28.45,0,6.08.25,12.13.75,18.13-8.56-5.85-16.59-12.51-24.03-19.94-7.01-7.01-13.34-14.56-18.94-22.58.73,0,1.46.01,2.2.01ZM366.79,537.58c6.94-6.94,13.35-14.28,19.23-22,5.87,7.72,12.29,15.06,19.23,22,4.6,4.6,9.38,8.97,14.33,13.11-8.59,1.35-17.32,2.03-26.16,2.03-12.99,0-25.76-1.47-38.19-4.37,3.97-3.43,7.83-7.02,11.57-10.76ZM471.54,477.14c13.69,2.71,27.68,4.07,41.88,4.07,5.89,0,11.74-.24,17.55-.71-5.72,8.28-12.21,16.05-19.43,23.27-11.87,11.87-25.25,21.77-39.91,29.54,1.17-9.13,1.77-18.38,1.77-27.72s-.63-19.08-1.86-28.45ZM529.1,350.54c-8,8-16.59,15.21-25.73,21.62-8.42-5.02-17.2-9.47-26.31-13.32-6.91-2.92-13.94-5.47-21.06-7.64.17-.4.35-.81.52-1.21,4.22-9.98,7.66-20.19,10.3-30.59,15.14-3.78,30.73-5.69,46.61-5.69,10.84,0,21.54.89,32.06,2.66.64,1.41,1.27,2.82,1.87,4.25.8,1.89,1.56,3.79,2.29,5.7-6.13,8.58-12.99,16.67-20.55,24.22ZM394.22,130.67c17.63,17.63,31.46,38.15,41.13,61,1.32,3.12,2.55,6.27,3.7,9.45-14.83-3.66-30.09-5.51-45.63-5.51-21.02,0-41.52,3.38-61.14,10.05-.26-.17-.52-.34-.78-.5,1.53-4.54,3.24-9.04,5.12-13.48,9.66-22.85,23.5-43.37,41.13-61,2.68-2.68,5.43-5.27,8.24-7.77,2.81,2.5,5.56,5.09,8.24,7.77ZM214.86,193.76c25.91,0,51.04,5.07,74.69,15.07,5.1,2.16,10.09,4.53,14.95,7.1-.16.65-.31,1.3-.46,1.95-16.52,8.8-31.61,19.99-45.01,33.38-12.49,12.49-23.06,26.46-31.57,41.69-2.92.42-5.83.9-8.72,1.44-.73-1.61-1.45-3.22-2.13-4.85-10-23.65-15.07-48.78-15.07-74.69,0-6.97.37-13.88,1.1-20.72,4.05-.25,8.13-.38,12.23-.38ZM122.86,369.91c17.63-17.63,38.15-31.46,61-41.13,7.4-3.13,14.94-5.78,22.61-7.94,1.69,2.98,3.45,5.92,5.29,8.82-5.56,18.04-8.38,36.8-8.38,55.98s2.84,38.11,8.45,56.23c-1.91,3.01-3.74,6.07-5.5,9.18-7.62-2.15-15.12-4.79-22.47-7.9-22.85-9.66-43.37-23.5-61-41.13-5.11-5.11-9.91-10.47-14.37-16.06,4.47-5.59,9.26-10.95,14.37-16.06ZM201.53,556.81c0-25.91,5.07-51.04,15.07-74.69.65-1.54,1.33-3.08,2.02-4.6,3.06.58,6.15,1.08,9.24,1.52,8.44,14.95,18.87,28.68,31.17,40.98,13.35,13.35,28.38,24.5,44.83,33.29.16.71.33,1.41.49,2.12-4.82,2.54-9.76,4.88-14.81,7.02-23.65,10-48.78,15.07-74.69,15.07-4.11,0-8.2-.13-12.27-.38-.7-6.72-1.06-13.5-1.06-20.34ZM377.74,641.28c-17.63-17.63-31.46-38.15-41.13-61-1.95-4.62-3.72-9.3-5.29-14.02.32-.21.64-.41.95-.62,19.62,6.67,40.12,10.05,61.14,10.05,15.63,0,30.98-1.87,45.89-5.57-1.22,3.42-2.54,6.81-3.96,10.16-9.66,22.85-23.5,43.37-41.13,61-2.68,2.68-5.43,5.27-8.24,7.77-2.81-2.5-5.56-5.09-8.24-7.77ZM557.17,577.53c-25.91,0-51.04-5.07-74.69-15.07-3.16-1.34-6.28-2.76-9.35-4.25,20.33-9.4,38.7-22.22,54.65-38.18,13.12-13.12,24.13-27.87,32.85-44.01,2.06-.46,4.12-.96,6.17-1.48,1.19,2.5,2.32,5.03,3.41,7.59,10,23.65,15.07,48.78,15.07,74.69,0,6.32-.3,12.6-.91,18.81-8.95,1.27-18.04,1.91-27.22,1.91ZM649.1,402.04c-17.63,17.63-38.15,31.46-61,41.13-3.28,1.39-6.6,2.68-9.94,3.88-1.03-1.74-2.09-3.45-3.17-5.16,5.62-18.12,8.45-36.96,8.45-56.23s-2.81-37.94-8.38-55.98c1.01-1.59,1.99-3.19,2.95-4.81,3.39,1.21,6.74,2.52,10.07,3.93,22.85,9.66,43.37,23.5,61,41.13,5.11,5.11,9.91,10.47,14.37,16.06-4.47,5.59-9.26,10.95-14.37,16.06ZM649.1,130.67c17.63,17.63,31.46,38.15,41.13,61,4.73,11.17,8.35,22.68,10.86,34.43-17.85-16.13-38.08-29.04-60.28-38.43-11.71-4.95-23.74-8.82-36.02-11.6-2.8-15.36-7.27-30.35-13.41-44.85-7.77-18.36-17.94-35.38-30.35-50.81,9.21,2.35,18.24,5.4,27.07,9.13,22.85,9.66,43.37,23.5,61,41.13ZM318.73,38.05c23.65-10,48.78-15.07,74.69-15.07s51.04,5.07,74.69,15.07c9.5,4.02,18.59,8.76,27.24,14.19-22.62,1.87-44.6,7.28-65.55,16.14-15.62,6.61-30.27,14.96-43.8,24.95-13.53-9.99-28.18-18.34-43.8-24.95-17.03-7.2-34.74-12.12-52.92-14.72,9.32-6.03,19.16-11.25,29.47-15.61ZM122.86,130.67c17.63-17.63,38.15-31.46,61-41.13,14.48-6.13,29.52-10.4,44.95-12.79-13.79,16.39-24.98,34.65-33.36,54.47-5.75,13.59-10.04,27.61-12.86,41.96-17.63,2.65-34.82,7.49-51.36,14.49-22.23,9.4-42.5,22.34-60.37,38.51,2.51-11.79,6.14-23.32,10.88-34.51,9.66-22.85,23.5-43.37,41.13-61ZM22.98,385.65c0-25.91,5.07-51.04,15.07-74.69,2.28-5.39,4.8-10.65,7.54-15.78,2.52,18.84,7.53,37.19,14.98,54.8,5.35,12.66,11.85,24.68,19.44,35.98-7.59,11.3-14.09,23.32-19.44,35.98-7.38,17.45-12.37,35.62-14.91,54.28-2.77-5.17-5.3-10.47-7.6-15.9-10-23.65-15.07-48.78-15.07-74.69ZM122.86,641.28c-17.63-17.63-31.46-38.15-41.13-61-4.84-11.45-8.53-23.25-11.04-35.32,17.91,16.24,38.23,29.22,60.54,38.66,16.52,6.99,33.68,11.83,51.28,14.48,2.82,14.48,7.13,28.64,12.93,42.35,8.44,19.95,19.72,38.32,33.63,54.79-15.53-2.39-30.65-6.67-45.22-12.84-22.85-9.66-43.37-23.5-61-41.13ZM468.1,733.62c-23.65,10-48.78,15.07-74.69,15.07s-51.04-5.07-74.69-15.07c-10.19-4.31-19.91-9.45-29.12-15.38,18.06-2.61,35.65-7.51,52.57-14.67,15.62-6.61,30.27-14.96,43.8-24.95,13.53,9.99,28.18,18.34,43.8,24.95,20.83,8.81,42.68,14.21,65.17,16.11-8.53,5.33-17.5,9.98-26.85,13.94ZM649.1,641.28c-17.63,17.63-38.15,31.46-61,41.13-8.92,3.77-18.05,6.84-27.35,9.21,12.54-15.53,22.81-32.66,30.63-51.16,6.19-14.62,10.68-29.75,13.48-45.24,12.26-2.78,24.26-6.65,35.95-11.59,22.27-9.42,42.55-22.37,60.45-38.58-2.51,12.04-6.19,23.81-11.03,35.24-9.66,22.85-23.5,43.37-41.13,61ZM733.98,460.33c-2.32,5.47-4.87,10.81-7.66,16.01-2.54-18.7-7.53-36.9-14.92-54.39-5.35-12.66-11.85-24.68-19.44-35.98,7.59-11.3,14.09-23.32,19.44-35.98,7.47-17.65,12.48-36.04,14.99-54.92,2.76,5.16,5.3,10.46,7.59,15.89,10,23.65,15.07,48.78,15.07,74.69s-5.07,51.04-15.07,74.69Z"/></svg>