<?xml version="1.0" encoding="UTF-8"?><svg id="Layer_1" xmlns="http://www.w3.org/2000/svg" width="10.33in" height="3.71in" viewBox="0 0 744.04 266.88"><polygon points="94.8 123.92 94.8 123.92 94.8 123.92 94.8 123.92"/><polygon points="156.4 94.26 156.4 94.26 156.4 94.26 156.4 94.26"/><polygon points="118.46 94.26 118.46 94.26 118.46 94.26 118.46 94.26"/><path d="M46.4,201.37l-2.6-3.65,51.95-36.98-69.78-1.61c3.87,15.58,10.92,29.91,20.43,42.24Z"/><path d="M228.51,201.31c9.48-12.32,16.52-26.63,20.38-42.18l-69.78,1.61,51.96,36.98-2.55,3.59Z"/><path d="M141.91,246.11c15.7-.6,30.6-4.36,44.07-10.65l-44.07-52.71v63.36Z"/><path d="M132.94,246.11v-63.36l-44.07,52.71c13.47,6.29,28.36,10.05,44.07,10.65Z"/><path d="M165.49,148.09l34.63-.8-30.85-15.75c-1.95-1-3.37-2.81-3.85-4.95-.49-2.14,0-4.38,1.33-6.13l20.96-27.57-31.55,14.3c-.97.44-2.02.66-3.06.66-1.1,0-2.2-.24-3.21-.73-1.98-.95-3.43-2.73-3.97-4.86l-8.49-33.58-8.49,33.58c-.54,2.13-1.99,3.91-3.97,4.86-1.01.49-2.11.73-3.21.73-1.04,0-2.09-.22-3.06-.66l-31.55-14.3,20.96,27.57c1.33,1.75,1.81,3.99,1.33,6.13s-1.9,3.95-3.85,4.95l-30.85,15.75,34.63.8c2.19.05,4.25,1.07,5.62,2.79,1.37,1.72,1.91,3.95,1.47,6.1l-6.93,33.94,22.22-26.57c1.41-1.68,3.49-2.66,5.68-2.66s4.28.97,5.68,2.66l22.22,26.57-6.93-33.94c-.44-2.15.1-4.38,1.47-6.1,1.37-1.72,3.43-2.74,5.62-2.79Z"/><path d="M87.34,127.73l-64.35-5.99c-.26,3.17-.4,6.37-.4,9.61,0,9.56,1.17,18.83,3.37,27.71l61.38-31.33Z"/><path d="M251.1,114.91l-64.54,12.34,62.34,31.82c2.2-8.88,3.37-18.16,3.37-27.71,0-5.58-.41-11.07-1.18-16.44Z"/><path d="M91.11,119.08l-43.18-56.8,64.37,29.18-27.76-62.08c-31.58,16.41-54.57,47.07-60.47,83.45l67.04,6.24Z"/><path d="M172.93,167.35l13.82,67.74c15.07-7.18,28.32-17.54,38.9-30.21l-52.72-37.53Z"/><path d="M101.93,167.35l-52.72,37.53c10.58,12.68,23.83,23.04,38.9,30.21l13.82-67.74Z"/><path d="M92.65,25.56l27.58,61.68,17.2-68.06,17.2,68.06,27.57-61.67h0c-14.83-6.99-27.29-9.06-44.77-9.06s-29.97,2.1-44.77,9.06h0Z"/><path d="M250.44,110.8l.04.23c-.01-.08-.03-.15-.04-.23Z"/><path d="M162.56,91.47l64.37-29.18-42.81,56.3,65.36-12.5c-7.5-33.41-29.56-61.31-59.17-76.7l-27.75,62.08Z"/><polygon points="324.5 123.92 324.5 123.92 324.5 123.92 324.5 123.92"/><polygon points="386.1 94.26 386.1 94.26 386.1 94.26 386.1 94.26"/><polygon points="348.16 94.26 348.16 94.26 348.16 94.26 348.16 94.26"/><path d="M276.1,201.37l-2.6-3.65,51.95-36.98-69.78-1.61c3.87,15.58,10.92,29.91,20.43,42.24Z"/><path d="M458.21,201.31c9.48-12.32,16.52-26.63,20.38-42.18l-69.78,1.61,51.96,36.98-2.55,3.59Z"/><path d="M371.61,246.11c15.7-.6,30.6-4.36,44.07-10.65l-44.07-52.71v63.36Z"/><path d="M362.64,246.11v-63.36l-44.07,52.71c13.47,6.29,28.36,10.05,44.07,10.65Z"/><path d="M395.19,148.09l34.63-.8-30.85-15.75c-1.95-1-3.37-2.81-3.85-4.95-.49-2.14,0-4.38,1.33-6.13l20.96-27.57-31.55,14.3c-.97.44-2.02.66-3.06.66-1.1,0-2.2-.24-3.21-.73-1.98-.95-3.43-2.73-3.97-4.86l-8.49-33.58-8.49,33.58c-.54,2.13-1.99,3.91-3.97,4.86-1.01.49-2.11.73-3.21.73-1.04,0-2.09-.22-3.06-.66l-31.55-14.3,20.96,27.57c1.33,1.75,1.81,3.99,1.33,6.13s-1.9,3.95-3.85,4.95l-30.85,15.75,34.63.8c2.19.05,4.25,1.07,5.62,2.79,1.37,1.72,1.91,3.95,1.47,6.1l-6.93,33.94,22.22-26.57c1.41-1.68,3.49-2.66,5.68-2.66s4.28.97,5.68,2.66l22.22,26.57-6.93-33.94c-.44-2.15.1-4.38,1.47-6.1,1.37-1.72,3.43-2.74,5.62-2.79Z"/><path d="M317.03,127.73l-64.35-5.99c-.26,3.17-.4,6.37-.4,9.61,0,9.56,1.17,18.83,3.37,27.71l61.38-31.33Z"/><path d="M480.8,114.91l-64.54,12.34,62.34,31.82c2.2-8.88,3.37-18.16,3.37-27.71,0-5.58-.41-11.07-1.18-16.44Z"/><path d="M320.81,119.08l-43.18-56.8,64.37,29.18-27.76-62.08c-31.58,16.41-54.57,47.07-60.47,83.45l67.04,6.24Z"/><path d="M402.63,167.35l13.82,67.74c15.07-7.18,28.32-17.54,38.9-30.21l-52.72-37.53Z"/><path d="M331.63,167.35l-52.72,37.53c10.58,12.68,23.83,23.04,38.9,30.21l13.82-67.74Z"/><path d="M322.35,25.56l27.58,61.68,17.2-68.06,17.2,68.06,27.57-61.67h0c-14.83-6.99-27.29-9.06-44.77-9.06s-29.97,2.1-44.77,9.06h0Z"/><path d="M480.14,110.8l.04.23c-.01-.08-.03-.15-.04-.23Z"/><path d="M392.26,91.47l64.37-29.18-42.81,56.3,65.36-12.5c-7.5-33.41-29.56-61.31-59.17-76.7l-27.75,62.08Z"/><polygon points="554.2 123.92 554.2 123.92 554.2 123.92 554.2 123.92"/><polygon points="615.8 94.26 615.8 94.26 615.8 94.26 615.8 94.26"/><polygon points="577.85 94.26 577.85 94.26 577.85 94.26 577.85 94.26"/><path d="M505.79,201.37l-2.6-3.65,51.95-36.98-69.78-1.61c3.87,15.58,10.92,29.91,20.43,42.24Z"/><path d="M687.9,201.31c9.48-12.32,16.52-26.63,20.38-42.18l-69.78,1.61,51.96,36.98-2.55,3.59Z"/><path d="M601.31,246.11c15.7-.6,30.6-4.36,44.07-10.65l-44.07-52.71v63.36Z"/><path d="M592.34,246.11v-63.36l-44.07,52.71c13.47,6.29,28.36,10.05,44.07,10.65Z"/><path d="M624.88,148.09l34.63-.8-30.85-15.75c-1.95-1-3.37-2.81-3.85-4.95-.49-2.14,0-4.38,1.33-6.13l20.96-27.57-31.55,14.3c-.97.44-2.02.66-3.06.66-1.1,0-2.2-.24-3.21-.73-1.98-.95-3.43-2.73-3.97-4.86l-8.49-33.58-8.49,33.58c-.54,2.13-1.99,3.91-3.97,4.86-1.01.49-2.11.73-3.21.73-1.04,0-2.09-.22-3.06-.66l-31.55-14.3,20.96,27.57c1.33,1.75,1.81,3.99,1.33,6.13s-1.9,3.95-3.85,4.95l-30.85,15.75,34.63.8c2.19.05,4.25,1.07,5.62,2.79,1.37,1.72,1.91,3.95,1.47,6.1l-6.93,33.94,22.22-26.57c1.41-1.68,3.49-2.66,5.68-2.66s4.28.97,5.68,2.66l22.22,26.57-6.93-33.94c-.44-2.15.1-4.38,1.47-6.1,1.37-1.72,3.43-2.74,5.62-2.79Z"/><path d="M546.73,127.73l-64.35-5.99c-.26,3.17-.4,6.37-.4,9.61,0,9.56,1.17,18.83,3.37,27.71l61.38-31.33Z"/><path d="M710.5,114.91l-64.54,12.34,62.34,31.82c2.2-8.88,3.37-18.16,3.37-27.71,0-5.58-.41-11.07-1.18-16.44Z"/><path d="M550.51,119.08l-43.18-56.8,64.37,29.18-27.76-62.08c-31.58,16.41-54.57,47.07-60.47,83.45l67.04,6.24Z"/><path d="M632.32,167.35l13.82,67.74c15.07-7.18,28.32-17.54,38.9-30.21l-52.72-37.53Z"/><path d="M561.33,167.35l-52.72,37.53c10.58,12.68,23.83,23.04,38.9,30.21l13.82-67.74Z"/><path d="M552.05,25.56l27.58,61.68,17.2-68.06,17.2,68.06,27.57-61.67h0c-14.83-6.99-27.29-9.06-44.77-9.06s-29.97,2.1-44.77,9.06h0Z"/><path d="M709.84,110.8l.04.23c-.01-.08-.03-.15-.04-.23Z"/><path d="M621.96,91.47l64.37-29.18-42.81,56.3,65.36-12.5c-7.5-33.41-29.56-61.31-59.17-76.7l-27.75,62.08Z"/></svg>