<?xml version="1.0" encoding="UTF-8"?><svg id="Layer_1" xmlns="http://www.w3.org/2000/svg" width="15.92in" height="15.92in" viewBox="0 0 1145.94 1146.5"><polygon points="536.51 367.61 536.51 367.61 536.51 367.61 536.51 367.61"/><polygon points="585.92 343.81 585.92 343.81 585.92 343.81 585.92 343.81"/><polygon points="555.49 343.81 555.49 343.81 555.49 343.81 555.49 343.81"/><path d="M497.69,429.73l-2.08-2.93,41.67-29.66-55.97-1.29c3.1,12.5,8.76,23.99,16.38,33.88Z"/><path d="M643.76,429.67c7.6-9.88,13.25-21.36,16.35-33.83l-55.97,1.29,41.67,29.66-2.05,2.88Z"/><path d="M574.3,465.6c12.59-.48,24.54-3.49,35.34-8.54l-35.34-42.28v50.82Z"/><path d="M567.11,465.6v-50.82l-35.34,42.28c10.8,5.05,22.75,8.06,35.34,8.54Z"/><path d="M593.21,386.99l27.77-.64-24.74-12.63c-1.57-.8-2.7-2.25-3.09-3.97-.39-1.72,0-3.52,1.06-4.92l16.81-22.11-25.3,11.47c-.78.35-1.62.53-2.45.53-.88,0-1.76-.2-2.58-.59-1.59-.76-2.75-2.19-3.18-3.9l-6.81-26.93-6.81,26.93c-.43,1.71-1.6,3.13-3.18,3.9-.81.39-1.7.59-2.58.59-.84,0-1.67-.18-2.45-.53l-25.3-11.47,16.81,22.11c1.07,1.4,1.45,3.2,1.06,4.92s-1.52,3.17-3.09,3.97l-24.74,12.63,27.77.64c1.76.04,3.41.86,4.51,2.24,1.1,1.38,1.53,3.17,1.18,4.89l-5.55,27.22,17.82-21.31c1.13-1.35,2.8-2.13,4.56-2.13s3.43.78,4.56,2.13l17.82,21.31-5.55-27.22c-.35-1.72.08-3.52,1.18-4.89,1.1-1.38,2.75-2.19,4.51-2.24Z"/><path d="M530.53,370.66l-51.62-4.8c-.21,2.54-.32,5.11-.32,7.71,0,7.66.94,15.11,2.71,22.23l49.23-25.13Z"/><path d="M661.88,360.37l-51.76,9.9,50,25.52c1.76-7.12,2.71-14.56,2.71-22.23,0-4.48-.33-8.88-.94-13.19Z"/><path d="M533.56,363.72l-34.64-45.55,51.62,23.41-22.26-49.79c-25.33,13.17-43.77,37.75-48.5,66.93l53.77,5.01Z"/><path d="M599.18,402.44l11.09,54.33c12.08-5.76,22.72-14.07,31.2-24.23l-42.29-30.1Z"/><path d="M542.23,402.44l-42.28,30.1c8.48,10.17,19.11,18.48,31.2,24.23l11.09-54.33Z"/><path d="M534.79,288.72l22.12,49.47,13.79-54.59,13.79,54.59,22.11-49.47h0c-11.9-5.6-21.89-7.27-35.91-7.27s-24.03,1.69-35.91,7.27h0Z"/><path d="M661.35,357.08l.04.18c-.01-.06-.02-.12-.04-.18Z"/><path d="M590.86,341.57l51.63-23.41-34.33,45.16,52.43-10.02c-6.02-26.8-23.71-49.18-47.46-61.52l-22.26,49.79Z"/><circle cx="610.02" cy="228.95" r="29.38"/><path d="M584.59,214.26s20.21-27.74,22.49-46.82c1.7-14.19-1.44-33.71-11.38-50.58,0,0,39.05,21.27,32.08,49.57-8.96,36.36-43.19,47.83-43.19,47.83Z"/><path d="M570.89,115.03c-2.5.54-4.59,4.72-4.59,4.72l-11.74,19.37s-5.18,7.27-5.11,12.55c.07,5.28,2.06,10.06,2.06,10.06l18.96,70.08,19.67-69.88s2.03-4.75,2.16-10.03-4.98-12.61-4.98-12.61l-11.54-19.49s-2.04-4.2-4.54-4.76"/><path d="M696.6,268.76s-48.83-3.51-83.01,9.18c0,0,30.27-18.88,41.5-58.27,0,0,7,18.23,19.69,17.9,0,0-5.21,22.65,21.81,31.18Z"/><circle cx="531.38" cy="228.95" r="29.38"/><path d="M556.82,214.26s-20.21-27.74-22.49-46.82c-1.7-14.19,1.44-33.71,11.38-50.58,0,0-39.05,21.27-32.08,49.57,8.96,36.36,43.19,47.83,43.19,47.83Z"/><path d="M444.8,268.76s48.83-3.51,83.01,9.18c0,0-30.27-18.88-41.5-58.27,0,0-7,18.23-19.69,17.9,0,0,5.21,22.65-21.81,31.18Z"/><path d="M585.27,102.23l19.16-28.18s28.18,22.54,28.18,68.76c0,0-14.65-36.07-47.34-40.58Z"/><path d="M557.51,102.23l-19.16-28.18s-28.18,22.54-28.18,68.76c0,0,14.65-36.07,47.34-40.58Z"/><path d="M586.38,79.8c1.45-2.37,1.68-5.3.61-7.87l-16.57-39.91v-.41l-16.57,39.91c-1.07,2.57-.84,5.49.61,7.87l15.95,26.11v.42l15.95-26.11Z"/><polygon points="580.13 13.46 570.42 26.91 560.71 13.46 570.42 0 580.13 13.46"/><polygon points="752.73 345.1 752.73 345.1 752.73 345.1 752.73 345.1"/><polygon points="804.49 363.21 804.49 363.21 804.49 363.21 804.49 363.21"/><polygon points="782.97 341.7 782.97 341.69 782.97 341.7 782.97 341.7"/><path d="M681.36,361.58l.6-3.54,50.44,8.49-38.66-40.49c-6.64,11.03-10.77,23.16-12.37,35.54Z"/><path d="M784.68,464.82c12.37-1.61,24.47-5.73,35.48-12.36l-40.49-38.66,8.49,50.44-3.48.59Z"/><path d="M710.16,441.12c9.25,8.56,19.82,14.88,31.03,18.95l4.9-54.89-35.94,35.94Z"/><path d="M705.07,436.03l35.94-35.94-54.89,4.9c4.07,11.21,10.39,21.78,18.95,31.03Z"/><path d="M779.12,398.9l20.09,19.18-8.57-26.43c-.54-1.67-.32-3.5.62-4.99.94-1.49,2.48-2.49,4.23-2.73l27.53-3.75-26-9.78c-.8-.3-1.52-.77-2.11-1.36-.62-.62-1.11-1.39-1.41-2.24-.58-1.66-.4-3.49.51-5.01l14.23-23.86-23.86,14.23c-1.51.9-3.34,1.09-5.01.51-.85-.3-1.61-.78-2.24-1.41-.59-.59-1.06-1.31-1.36-2.11l-9.78-26-3.75,27.53c-.24,1.74-1.24,3.29-2.73,4.23s-3.32,1.16-4.99.62l-26.43-8.57,19.18,20.09c1.22,1.27,1.8,3.02,1.61,4.77-.2,1.75-1.16,3.32-2.63,4.29l-23.17,15.32,27.67-2.47c1.75-.16,3.48.47,4.73,1.72s1.87,2.98,1.72,4.73l-2.47,27.67,15.32-23.17c.97-1.47,2.54-2.43,4.29-2.63,1.75-.2,3.49.39,4.77,1.61Z"/><path d="M746.34,343.03l-33.1-39.89c-1.95,1.65-3.84,3.39-5.68,5.22-5.42,5.42-10.02,11.35-13.8,17.63l52.58,17.05Z"/><path d="M846.49,428.63l-43.6-29.6,17.31,53.4c6.28-3.79,12.21-8.38,17.63-13.8,3.17-3.17,6.05-6.51,8.66-9.99Z"/><path d="M753.39,340.26l7.72-56.7,19.95,53.06,19.47-50.95c-27.22-8.6-57.64-4.25-81.62,13.04l34.48,41.56Z"/><path d="M772.41,414.04l-30.58,46.26c12.61,4.48,26.01,6.12,39.2,4.93l-8.62-51.18Z"/><path d="M732.15,373.78l-51.18-8.62c-1.19,13.19.45,26.58,4.93,39.19l46.26-30.58Z"/><path d="M807.3,288.1l-19.34,50.62,48.35-28.85-28.84,48.35,50.62-19.34h0c-4.45-12.37-10.34-20.62-20.25-30.53-9.89-9.89-18.19-15.8-30.53-20.25h0Z"/><path d="M848.45,425.93l-.11.16c.04-.05.07-.1.11-.16Z"/><path d="M809.57,365.12l53.06,19.95-56.21,7.65,44.16,29.98c14.69-23.2,18.01-51.54,9.94-77.06l-50.95,19.47Z"/><circle cx="902.76" cy="299.03" r="29.38"/><path d="M895.16,270.66s33.9-5.33,49.01-17.2c11.24-8.83,22.82-24.85,27.72-43.81,0,0,12.57,42.65-12.37,57.73-32.04,19.37-64.36,3.28-64.36,3.28Z"/><path d="M955.64,190.81c-2.15-1.39-6.58.09-6.58.09l-22,5.39s-8.81,1.48-12.49,5.26c-3.68,3.78-5.66,8.57-5.66,8.57l-36.15,62.96,63.32-35.5s4.8-1.92,8.62-5.57c3.82-3.64,5.39-12.44,5.39-12.44l5.62-21.94s1.53-4.42.16-6.58"/><path d="M935.83,388.41s-32.04-37.01-65.19-52.2c0,0,34.76,8.06,70.55-11.85,0,0-7.94,17.84,1.27,26.59,0,0-19.7,12.33-6.63,37.47Z"/><circle cx="847.15" cy="243.43" r="29.38"/><path d="M875.52,251.03s5.33-33.9,17.2-49.01c8.83-11.24,24.85-22.82,43.81-27.72,0,0-42.65-12.57-57.73,12.37-19.37,32.04-3.28,64.36-3.28,64.36Z"/><path d="M757.78,210.36s37.01,32.04,52.2,65.19c0,0-8.06-34.76,11.85-70.55,0,0-17.84,7.94-26.59-1.27,0,0-12.33,19.7-37.47,6.63Z"/><path d="M974.86,191.93l33.48-6.38s3.99,35.87-28.69,68.55c0,0,15.14-35.87-4.78-62.17Z"/><path d="M955.23,172.3l6.38-33.48s-35.87-3.99-68.55,28.69c0,0,35.87-15.14,62.17,4.78Z"/><path d="M991.5,176.85c2.7-.65,4.93-2.56,6-5.13l16.51-39.93.29-.29-39.93,16.51c-2.57,1.06-4.48,3.29-5.13,6l-7.18,29.74-.29.29,29.74-7.18Z"/><polygon points="1034 125.52 1017.62 128.17 1020.27 111.79 1036.65 109.14 1034 125.52"/><polygon points="393.46 345.1 393.46 345.1 393.46 345.1 393.46 345.1"/><polygon points="341.7 363.21 341.7 363.21 341.7 363.21 341.7 363.21"/><polygon points="363.21 341.7 363.21 341.69 363.21 341.7 363.21 341.7"/><path d="M464.83,361.58l-.6-3.54-50.44,8.49,38.66-40.49c6.64,11.03,10.77,23.16,12.37,35.54Z"/><path d="M361.51,464.82c-12.37-1.61-24.47-5.73-35.48-12.36l40.49-38.66-8.49,50.44,3.48.59Z"/><path d="M436.03,441.12c-9.25,8.56-19.82,14.88-31.03,18.95l-4.9-54.89,35.94,35.94Z"/><path d="M441.12,436.03l-35.94-35.94,54.89,4.9c-4.07,11.21-10.39,21.78-18.95,31.03Z"/><path d="M367.07,398.9l-20.09,19.18,8.57-26.43c.54-1.67.32-3.5-.62-4.99-.94-1.49-2.48-2.49-4.23-2.73l-27.53-3.75,26-9.78c.8-.3,1.52-.77,2.11-1.36.62-.62,1.11-1.39,1.41-2.24.58-1.66.4-3.49-.51-5.01l-14.23-23.86,23.86,14.23c1.51.9,3.34,1.09,5.01.51.85-.3,1.61-.78,2.24-1.41.59-.59,1.06-1.31,1.36-2.11l9.78-26,3.75,27.53c.24,1.74,1.24,3.29,2.73,4.23s3.32,1.16,4.99.62l26.43-8.57-19.18,20.09c-1.22,1.27-1.8,3.02-1.61,4.77.2,1.75,1.16,3.32,2.63,4.29l23.17,15.32-27.67-2.47c-1.75-.16-3.48.47-4.73,1.72s-1.87,2.98-1.72,4.73l2.47,27.67-15.32-23.17c-.97-1.47-2.54-2.43-4.29-2.63-1.75-.2-3.49.39-4.77,1.61Z"/><path d="M399.85,343.03l33.1-39.89c1.95,1.65,3.84,3.39,5.68,5.22,5.42,5.42,10.02,11.35,13.8,17.63l-52.58,17.05Z"/><path d="M299.7,428.63l43.6-29.6-17.31,53.4c-6.28-3.79-12.21-8.38-17.63-13.8-3.17-3.17-6.05-6.51-8.66-9.99Z"/><path d="M392.8,340.26l-7.72-56.7-19.95,53.06-19.47-50.95c27.22-8.6,57.64-4.25,81.62,13.04l-34.48,41.56Z"/><path d="M373.78,414.04l30.58,46.26c-12.61,4.48-26.01,6.12-39.2,4.93l8.62-51.18Z"/><path d="M414.04,373.78l51.18-8.62c1.19,13.19-.45,26.58-4.93,39.19l-46.26-30.58Z"/><path d="M338.89,288.1l19.34,50.62-48.35-28.85,28.84,48.35-50.62-19.34h0c4.45-12.37,10.34-20.62,20.25-30.53,9.89-9.89,18.19-15.8,30.53-20.25h0Z"/><path d="M297.74,425.93l.11.16c-.04-.05-.07-.1-.11-.16Z"/><path d="M336.62,365.12l-53.06,19.95,56.21,7.65-44.16,29.98c-14.69-23.2-18.01-51.54-9.94-77.06l50.95,19.47Z"/><circle cx="243.43" cy="299.03" r="29.38"/><path d="M251.03,270.66s-33.9-5.33-49.01-17.2c-11.24-8.83-22.82-24.85-27.72-43.81,0,0-12.57,42.65,12.37,57.73,32.04,19.37,64.36,3.28,64.36,3.28Z"/><path d="M190.55,190.81c2.15-1.39,6.58.09,6.58.09l22,5.39s8.81,1.48,12.49,5.26,5.66,8.57,5.66,8.57l36.15,62.96-63.32-35.5s-4.8-1.92-8.62-5.57-5.39-12.44-5.39-12.44l-5.62-21.94s-1.53-4.42-.16-6.58"/><path d="M210.36,388.41s32.04-37.01,65.19-52.2c0,0-34.76,8.06-70.55-11.85,0,0,7.94,17.84-1.27,26.59,0,0,19.7,12.33,6.63,37.47Z"/><circle cx="299.04" cy="243.43" r="29.38"/><path d="M270.67,251.03s-5.33-33.9-17.2-49.01c-8.83-11.24-24.85-22.82-43.81-27.72,0,0,42.65-12.57,57.73,12.37,19.37,32.04,3.28,64.36,3.28,64.36Z"/><path d="M388.41,210.36s-37.01,32.04-52.2,65.19c0,0,8.06-34.76-11.85-70.55,0,0,17.84,7.94,26.59-1.27,0,0,12.33,19.7,37.47,6.63Z"/><path d="M171.33,191.93l-33.48-6.38s-3.99,35.87,28.69,68.55c0,0-15.14-35.87,4.78-62.17Z"/><path d="M190.96,172.3l-6.38-33.48s35.87-3.99,68.55,28.69c0,0-35.87-15.14-62.17,4.78Z"/><path d="M154.69,176.85c-2.7-.65-4.93-2.56-6-5.13l-16.51-39.93-.29-.29,39.93,16.51c2.57,1.06,4.48,3.29,5.13,6l7.18,29.74.29.29-29.74-7.18Z"/><polygon points="112.19 125.52 128.57 128.17 125.92 111.79 109.54 109.14 112.19 125.52"/><polygon points="536.51 778.89 536.51 778.89 536.51 778.89 536.51 778.89"/><polygon points="585.92 802.68 585.92 802.68 585.92 802.68 585.92 802.68"/><polygon points="555.49 802.68 555.49 802.68 555.49 802.68 555.49 802.68"/><path d="M497.69,716.77l-2.08,2.93,41.67,29.66-55.97,1.29c3.1-12.5,8.76-23.99,16.38-33.88Z"/><path d="M643.76,716.82c7.6,9.88,13.25,21.36,16.35,33.83l-55.97-1.29,41.67-29.66-2.05-2.88Z"/><path d="M574.3,680.9c12.59.48,24.54,3.49,35.34,8.54l-35.34,42.28v-50.82Z"/><path d="M567.11,680.9v50.82l-35.34-42.28c10.8-5.05,22.75-8.06,35.34-8.54Z"/><path d="M593.21,759.51l27.77.64-24.74,12.63c-1.57.8-2.7,2.25-3.09,3.97-.39,1.72,0,3.52,1.06,4.92l16.81,22.11-25.3-11.47c-.78-.35-1.62-.53-2.45-.53-.88,0-1.76.2-2.58.59-1.59.76-2.75,2.19-3.18,3.9l-6.81,26.93-6.81-26.93c-.43-1.71-1.6-3.13-3.18-3.9-.81-.39-1.7-.59-2.58-.59-.84,0-1.67.18-2.45.53l-25.3,11.47,16.81-22.11c1.07-1.4,1.45-3.2,1.06-4.92s-1.52-3.17-3.09-3.97l-24.74-12.63,27.77-.64c1.76-.04,3.41-.86,4.51-2.24,1.1-1.38,1.53-3.17,1.18-4.89l-5.55-27.22,17.82,21.31c1.13,1.35,2.8,2.13,4.56,2.13s3.43-.78,4.56-2.13l17.82-21.31-5.55,27.22c-.35,1.72.08,3.52,1.18,4.89,1.1,1.38,2.75,2.19,4.51,2.24Z"/><path d="M530.53,775.84l-51.62,4.8c-.21-2.54-.32-5.11-.32-7.71,0-7.66.94-15.11,2.71-22.23l49.23,25.13Z"/><path d="M661.88,786.12l-51.76-9.9,50-25.52c1.76,7.12,2.71,14.56,2.71,22.23,0,4.48-.33,8.88-.94,13.19Z"/><path d="M533.56,782.78l-34.64,45.55,51.62-23.41-22.26,49.79c-25.33-13.17-43.77-37.75-48.5-66.93l53.77-5.01Z"/><path d="M599.18,744.06l11.09-54.33c12.08,5.76,22.72,14.07,31.2,24.23l-42.29,30.1Z"/><path d="M542.23,744.06l-42.28-30.1c8.48-10.17,19.11-18.48,31.2-24.23l11.09,54.33Z"/><path d="M534.79,857.78l22.12-49.47,13.79,54.59,13.79-54.59,22.11,49.47h0c-11.9,5.6-21.89,7.27-35.91,7.27s-24.03-1.69-35.91-7.27h0Z"/><path d="M661.35,789.42l.04-.18c-.01.06-.02.12-.04.18Z"/><path d="M590.86,804.93l51.63,23.41-34.33-45.16,52.43,10.02c-6.02,26.8-23.71,49.18-47.46,61.52l-22.26-49.79Z"/><circle cx="610.02" cy="917.55" r="29.38"/><path d="M584.59,932.24s20.21,27.74,22.49,46.82c1.7,14.19-1.44,33.71-11.38,50.58,0,0,39.05-21.27,32.08-49.57-8.96-36.36-43.19-47.83-43.19-47.83Z"/><path d="M570.89,1031.47c-2.5-.54-4.59-4.72-4.59-4.72l-11.74-19.37s-5.18-7.27-5.11-12.55c.07-5.28,2.06-10.06,2.06-10.06l18.96-70.08,19.67,69.88s2.03,4.75,2.16,10.03-4.98,12.61-4.98,12.61l-11.54,19.49s-2.04,4.2-4.54,4.76"/><path d="M696.6,877.74s-48.83,3.51-83.01-9.18c0,0,30.27,18.88,41.5,58.27,0,0,7-18.23,19.69-17.9,0,0-5.21-22.65,21.81-31.18Z"/><circle cx="531.38" cy="917.55" r="29.38"/><path d="M556.82,932.24s-20.21,27.74-22.49,46.82c-1.7,14.19,1.44,33.71,11.38,50.58,0,0-39.05-21.27-32.08-49.57,8.96-36.36,43.19-47.83,43.19-47.83Z"/><path d="M444.8,877.74s48.83,3.51,83.01-9.18c0,0-30.27,18.88-41.5,58.27,0,0-7-18.23-19.69-17.9,0,0,5.21-22.65-21.81-31.18Z"/><path d="M585.27,1044.27l19.16,28.18s28.18-22.54,28.18-68.76c0,0-14.65,36.07-47.34,40.58Z"/><path d="M557.51,1044.27l-19.16,28.18s-28.18-22.54-28.18-68.76c0,0,14.65,36.07,47.34,40.58Z"/><path d="M586.38,1066.7c1.45,2.37,1.68,5.3.61,7.87l-16.57,39.91v.41l-16.57-39.91c-1.07-2.57-.84-5.49.61-7.87l15.95-26.11v-.42l15.95,26.11Z"/><polygon points="580.13 1133.04 570.42 1119.58 560.71 1133.04 570.42 1146.5 580.13 1133.04"/><polygon points="752.73 801.39 752.73 801.39 752.73 801.4 752.73 801.39"/><polygon points="804.49 783.28 804.49 783.28 804.49 783.28 804.49 783.28"/><polygon points="782.97 804.8 782.97 804.8 782.97 804.8 782.97 804.8"/><path d="M681.36,784.92l.6,3.54,50.44-8.49-38.66,40.49c-6.64-11.03-10.77-23.16-12.37-35.54Z"/><path d="M784.68,681.67c12.37,1.61,24.47,5.73,35.48,12.36l-40.49,38.66,8.49-50.44-3.48-.59Z"/><path d="M710.16,705.38c9.25-8.56,19.82-14.88,31.03-18.95l4.9,54.89-35.94-35.94Z"/><path d="M705.07,710.47l35.94,35.94-54.89-4.9c4.07-11.21,10.39-21.78,18.95-31.03Z"/><path d="M779.12,747.6l20.09-19.18-8.57,26.43c-.54,1.67-.32,3.5.62,4.99.94,1.49,2.48,2.49,4.23,2.73l27.53,3.75-26,9.78c-.8.3-1.52.77-2.11,1.36-.62.62-1.11,1.39-1.41,2.24-.58,1.66-.4,3.49.51,5.01l14.23,23.86-23.86-14.23c-1.51-.9-3.34-1.09-5.01-.51-.85.3-1.61.78-2.24,1.41-.59.59-1.06,1.31-1.36,2.11l-9.78,26-3.75-27.53c-.24-1.74-1.24-3.29-2.73-4.23s-3.32-1.16-4.99-.62l-26.43,8.57,19.18-20.09c1.22-1.27,1.8-3.02,1.61-4.77-.2-1.75-1.16-3.32-2.63-4.29l-23.17-15.32,27.67,2.47c1.75.16,3.48-.47,4.73-1.72s1.87-2.98,1.72-4.73l-2.47-27.67,15.32,23.17c.97,1.47,2.54,2.43,4.29,2.63,1.75.2,3.49-.39,4.77-1.61Z"/><path d="M746.34,803.47l-33.1,39.89c-1.95-1.65-3.84-3.39-5.68-5.22-5.42-5.42-10.02-11.35-13.8-17.63l52.58-17.05Z"/><path d="M846.49,717.86l-43.6,29.6,17.31-53.4c6.28,3.79,12.21,8.38,17.63,13.8,3.17,3.17,6.05,6.51,8.66,9.99Z"/><path d="M753.39,806.23l7.72,56.7,19.95-53.06,19.47,50.95c-27.22,8.6-57.64,4.25-81.62-13.04l34.48-41.56Z"/><path d="M772.41,732.45l-30.58-46.26c12.61-4.48,26.01-6.12,39.2-4.93l-8.62,51.18Z"/><path d="M732.15,772.72l-51.18,8.62c-1.19-13.19.45-26.58,4.93-39.19l46.26,30.58Z"/><path d="M807.3,858.4l-19.34-50.62,48.35,28.85-28.84-48.35,50.62,19.34h0c-4.45,12.37-10.34,20.62-20.25,30.53-9.89,9.89-18.19,15.8-30.53,20.25h0Z"/><path d="M848.45,720.57l-.11-.16c.04.05.07.1.11.16Z"/><path d="M809.57,781.37l53.06-19.95-56.21-7.65,44.16-29.98c14.69,23.2,18.01,51.54,9.94,77.06l-50.95-19.47Z"/><circle cx="902.76" cy="847.46" r="29.38"/><path d="M895.16,875.83s33.9,5.33,49.01,17.2c11.24,8.83,22.82,24.85,27.72,43.81,0,0,12.57-42.65-12.37-57.73-32.04-19.37-64.36-3.28-64.36-3.28Z"/><path d="M955.64,955.68c-2.15,1.39-6.58-.09-6.58-.09l-22-5.39s-8.81-1.48-12.49-5.26c-3.68-3.78-5.66-8.57-5.66-8.57l-36.15-62.96,63.32,35.5s4.8,1.92,8.62,5.57c3.82,3.64,5.39,12.44,5.39,12.44l5.62,21.94s1.53,4.42.16,6.58"/><path d="M935.83,758.09s-32.04,37.01-65.19,52.2c0,0,34.76-8.06,70.55,11.85,0,0-7.94-17.84,1.27-26.59,0,0-19.7-12.33-6.63-37.47Z"/><circle cx="847.15" cy="903.07" r="29.38"/><path d="M875.52,895.47s5.33,33.9,17.2,49.01c8.83,11.24,24.85,22.82,43.81,27.72,0,0-42.65,12.57-57.73-12.37-19.37-32.04-3.28-64.36-3.28-64.36Z"/><path d="M757.78,936.14s37.01-32.04,52.2-65.19c0,0-8.06,34.76,11.85,70.55,0,0-17.84-7.94-26.59,1.27,0,0-12.33-19.7-37.47-6.63Z"/><path d="M974.86,954.57l33.48,6.38s3.99-35.87-28.69-68.55c0,0,15.14,35.87-4.78,62.17Z"/><path d="M955.23,974.2l6.38,33.48s-35.87,3.99-68.55-28.69c0,0,35.87,15.14,62.17-4.78Z"/><path d="M991.5,969.65c2.7.65,4.93,2.56,6,5.13l16.51,39.93.29.29-39.93-16.51c-2.57-1.06-4.48-3.29-5.13-6l-7.18-29.74-.29-.29,29.74,7.18Z"/><polygon points="1034 1020.97 1017.62 1018.32 1020.27 1034.71 1036.65 1037.36 1034 1020.97"/><polygon points="393.46 801.39 393.46 801.39 393.46 801.4 393.46 801.39"/><polygon points="341.7 783.28 341.7 783.28 341.7 783.28 341.7 783.28"/><polygon points="363.21 804.8 363.21 804.8 363.21 804.8 363.21 804.8"/><path d="M464.83,784.92l-.6,3.54-50.44-8.49,38.66,40.49c6.64-11.03,10.77-23.16,12.37-35.54Z"/><path d="M361.51,681.67c-12.37,1.61-24.47,5.73-35.48,12.36l40.49,38.66-8.49-50.44,3.48-.59Z"/><path d="M436.03,705.38c-9.25-8.56-19.82-14.88-31.03-18.95l-4.9,54.89,35.94-35.94Z"/><path d="M441.12,710.47l-35.94,35.94,54.89-4.9c-4.07-11.21-10.39-21.78-18.95-31.03Z"/><path d="M367.07,747.6l-20.09-19.18,8.57,26.43c.54,1.67.32,3.5-.62,4.99-.94,1.49-2.48,2.49-4.23,2.73l-27.53,3.75,26,9.78c.8.3,1.52.77,2.11,1.36.62.62,1.11,1.39,1.41,2.24.58,1.66.4,3.49-.51,5.01l-14.23,23.86,23.86-14.23c1.51-.9,3.34-1.09,5.01-.51.85.3,1.61.78,2.24,1.41.59.59,1.06,1.31,1.36,2.11l9.78,26,3.75-27.53c.24-1.74,1.24-3.29,2.73-4.23s3.32-1.16,4.99-.62l26.43,8.57-19.18-20.09c-1.22-1.27-1.8-3.02-1.61-4.77.2-1.75,1.16-3.32,2.63-4.29l23.17-15.32-27.67,2.47c-1.75.16-3.48-.47-4.73-1.72s-1.87-2.98-1.72-4.73l2.47-27.67-15.32,23.17c-.97,1.47-2.54,2.43-4.29,2.63-1.75.2-3.49-.39-4.77-1.61Z"/><path d="M399.85,803.47l33.1,39.89c1.95-1.65,3.84-3.39,5.68-5.22,5.42-5.42,10.02-11.35,13.8-17.63l-52.58-17.05Z"/><path d="M299.7,717.86l43.6,29.6-17.31-53.4c-6.28,3.79-12.21,8.38-17.63,13.8-3.17,3.17-6.05,6.51-8.66,9.99Z"/><path d="M392.8,806.23l-7.72,56.7-19.95-53.06-19.47,50.95c27.22,8.6,57.64,4.25,81.62-13.04l-34.48-41.56Z"/><path d="M373.78,732.45l30.58-46.26c-12.61-4.48-26.01-6.12-39.2-4.93l8.62,51.18Z"/><path d="M414.04,772.72l51.18,8.62c1.19-13.19-.45-26.58-4.93-39.19l-46.26,30.58Z"/><path d="M338.89,858.4l19.34-50.62-48.35,28.85,28.84-48.35-50.62,19.34h0c4.45,12.37,10.34,20.62,20.25,30.53,9.89,9.89,18.19,15.8,30.53,20.25h0Z"/><path d="M297.74,720.57l.11-.16c-.04.05-.07.1-.11.16Z"/><path d="M336.62,781.37l-53.06-19.95,56.21-7.65-44.16-29.98c-14.69,23.2-18.01,51.54-9.94,77.06l50.95-19.47Z"/><circle cx="243.43" cy="847.46" r="29.38"/><path d="M251.03,875.83s-33.9,5.33-49.01,17.2c-11.24,8.83-22.82,24.85-27.72,43.81,0,0-12.57-42.65,12.37-57.73,32.04-19.37,64.36-3.28,64.36-3.28Z"/><path d="M190.55,955.68c2.15,1.39,6.58-.09,6.58-.09l22-5.39s8.81-1.48,12.49-5.26,5.66-8.57,5.66-8.57l36.15-62.96-63.32,35.5s-4.8,1.92-8.62,5.57-5.39,12.44-5.39,12.44l-5.62,21.94s-1.53,4.42-.16,6.58"/><path d="M210.36,758.09s32.04,37.01,65.19,52.2c0,0-34.76-8.06-70.55,11.85,0,0,7.94-17.84-1.27-26.59,0,0,19.7-12.33,6.63-37.47Z"/><circle cx="299.04" cy="903.07" r="29.38"/><path d="M270.67,895.47s-5.33,33.9-17.2,49.01c-8.83,11.24-24.85,22.82-43.81,27.72,0,0,42.65,12.57,57.73-12.37,19.37-32.04,3.28-64.36,3.28-64.36Z"/><path d="M388.41,936.14s-37.01-32.04-52.2-65.19c0,0,8.06,34.76-11.85,70.55,0,0,17.84-7.94,26.59,1.27,0,0,12.33-19.7,37.47-6.63Z"/><path d="M171.33,954.57l-33.48,6.38s-3.99-35.87,28.69-68.55c0,0-15.14,35.87,4.78,62.17Z"/><path d="M190.96,974.2l-6.38,33.48s35.87,3.99,68.55-28.69c0,0-35.87,15.14-62.17-4.78Z"/><path d="M154.69,969.65c-2.7.65-4.93,2.56-6,5.13l-16.51,39.93-.29.29,39.93-16.51c2.57-1.06,4.48-3.29,5.13-6l7.18-29.74.29-.29-29.74,7.18Z"/><polygon points="112.19 1020.97 128.57 1018.32 125.92 1034.71 109.54 1037.36 112.19 1020.97"/><polygon points="778.34 539.38 778.34 539.39 778.34 539.38 778.34 539.38"/><polygon points="802.13 588.79 802.13 588.79 802.13 588.79 802.13 588.79"/><polygon points="802.13 558.36 802.13 558.36 802.13 558.36 802.13 558.36"/><path d="M716.22,500.56l2.93-2.08,29.66,41.67,1.29-55.97c-12.5,3.1-23.99,8.76-33.88,16.38Z"/><path d="M716.27,646.63c9.88,7.6,21.36,13.25,33.83,16.35l-1.29-55.97-29.66,41.67-2.88-2.05Z"/><path d="M680.34,577.17c.48,12.59,3.49,24.54,8.54,35.34l42.28-35.34h-50.82Z"/><path d="M680.34,569.98h50.82l-42.28-35.34c-5.05,10.8-8.06,22.75-8.54,35.34Z"/><path d="M758.95,596.08l.64,27.77,12.63-24.74c.8-1.57,2.25-2.7,3.97-3.09,1.72-.39,3.52,0,4.92,1.06l22.11,16.81-11.47-25.3c-.35-.78-.53-1.62-.53-2.45,0-.88.2-1.76.59-2.58.76-1.59,2.19-2.75,3.9-3.18l26.93-6.81-26.93-6.81c-1.71-.43-3.13-1.6-3.9-3.18-.39-.81-.59-1.7-.59-2.58,0-.84.18-1.67.53-2.45l11.47-25.3-22.11,16.81c-1.4,1.07-3.2,1.45-4.92,1.06-1.72-.39-3.17-1.52-3.97-3.09l-12.63-24.74-.64,27.77c-.04,1.76-.86,3.41-2.24,4.51-1.38,1.1-3.17,1.53-4.89,1.18l-27.22-5.55,21.31,17.82c1.35,1.13,2.13,2.8,2.13,4.56s-.78,3.43-2.13,4.56l-21.31,17.82,27.22-5.55c1.72-.35,3.52.08,4.89,1.18,1.38,1.1,2.19,2.75,2.24,4.51Z"/><path d="M775.28,533.4l4.8-51.62c-2.54-.21-5.11-.32-7.71-.32-7.66,0-15.11.94-22.23,2.71l25.13,49.23Z"/><path d="M785.57,664.75l-9.9-51.76-25.52,50c7.12,1.76,14.56,2.71,22.23,2.71,4.48,0,8.88-.33,13.19-.94Z"/><path d="M782.22,536.43l45.55-34.64-23.41,51.62,49.79-22.26c-13.17-25.33-37.75-43.77-66.93-48.5l-5.01,53.77Z"/><path d="M743.5,602.05l-54.33,11.09c5.76,12.08,14.07,22.72,24.23,31.2l30.1-42.29Z"/><path d="M743.5,545.1l-30.1-42.28c-10.17,8.48-18.48,19.11-24.23,31.2l54.33,11.09Z"/><path d="M857.23,537.66l-49.47,22.12,54.59,13.79-54.59,13.79,49.47,22.11h0c5.6-11.9,7.27-21.89,7.27-35.91s-1.69-24.03-7.27-35.91h0Z"/><path d="M788.87,664.22l-.18.04c.06-.01.12-.02.18-.04Z"/><path d="M804.37,593.73l23.41,51.63-45.16-34.33,10.02,52.43c26.8-6.02,49.18-23.71,61.52-47.46l-49.79-22.26Z"/><circle cx="917" cy="612.89" r="29.38"/><path d="M931.68,587.46s27.74,20.21,46.82,22.49c14.19,1.7,33.71-1.44,50.58-11.38,0,0-21.27,39.05-49.57,32.08-36.36-8.96-47.83-43.19-47.83-43.19Z"/><path d="M1030.91,573.76c-.54-2.5-4.72-4.59-4.72-4.59l-19.37-11.74s-7.27-5.18-12.55-5.11c-5.28.07-10.06,2.06-10.06,2.06l-70.08,18.96,69.88,19.67s4.75,2.03,10.03,2.16c5.28.13,12.61-4.98,12.61-4.98l19.49-11.54s4.2-2.04,4.76-4.54"/><path d="M877.18,699.47s3.51-48.83-9.18-83.01c0,0,18.88,30.27,58.27,41.5,0,0-18.23,7-17.9,19.69,0,0-22.65-5.21-31.18,21.81Z"/><circle cx="917" cy="534.25" r="29.38"/><path d="M931.68,559.69s27.74-20.21,46.82-22.49c14.19-1.7,33.71,1.44,50.58,11.38,0,0-21.27-39.05-49.57-32.08-36.36,8.96-47.83,43.19-47.83,43.19Z"/><path d="M877.18,447.67s3.51,48.83-9.18,83.01c0,0,18.88-30.27,58.27-41.5,0,0-18.23-7-17.9-19.69,0,0-22.65,5.21-31.18-21.81Z"/><path d="M1043.71,588.14l28.18,19.16s-22.54,28.18-68.76,28.18c0,0,36.07-14.65,40.58-47.34Z"/><path d="M1043.71,560.38l28.18-19.16s-22.54-28.18-68.76-28.18c0,0,36.07,14.65,40.58,47.34Z"/><path d="M1066.15,589.25c2.37,1.45,5.3,1.68,7.87.61l39.91-16.57h.41l-39.91-16.57c-2.57-1.07-5.49-.84-7.87.61l-26.11,15.95h-.42l26.11,15.95Z"/><polygon points="1132.49 583 1119.03 573.29 1132.49 563.58 1145.94 573.29 1132.49 583"/><polygon points="367.61 539.38 367.61 539.39 367.61 539.38 367.61 539.38"/><polygon points="343.81 588.79 343.81 588.79 343.81 588.79 343.81 588.79"/><polygon points="343.81 558.36 343.81 558.36 343.81 558.36 343.81 558.36"/><path d="M429.73,500.56l-2.93-2.08-29.66,41.67-1.29-55.97c12.5,3.1,23.99,8.76,33.88,16.38Z"/><path d="M429.67,646.63c-9.88,7.6-21.36,13.25-33.83,16.35l1.29-55.97,29.66,41.67,2.88-2.05Z"/><path d="M465.6,577.17c-.48,12.59-3.49,24.54-8.54,35.34l-42.28-35.34h50.82Z"/><path d="M465.6,569.98h-50.82l42.28-35.34c5.05,10.8,8.06,22.75,8.54,35.34Z"/><path d="M386.99,596.08l-.64,27.77-12.63-24.74c-.8-1.57-2.25-2.7-3.97-3.09-1.72-.39-3.52,0-4.92,1.06l-22.11,16.81,11.47-25.3c.35-.78.53-1.62.53-2.45,0-.88-.2-1.76-.59-2.58-.76-1.59-2.19-2.75-3.9-3.18l-26.93-6.81,26.93-6.81c1.71-.43,3.13-1.6,3.9-3.18.39-.81.59-1.7.59-2.58,0-.84-.18-1.67-.53-2.45l-11.47-25.3,22.11,16.81c1.4,1.07,3.2,1.45,4.92,1.06,1.72-.39,3.17-1.52,3.97-3.09l12.63-24.74.64,27.77c.04,1.76.86,3.41,2.24,4.51,1.38,1.1,3.17,1.53,4.89,1.18l27.22-5.55-21.31,17.82c-1.35,1.13-2.13,2.8-2.13,4.56s.78,3.43,2.13,4.56l21.31,17.82-27.22-5.55c-1.72-.35-3.52.08-4.89,1.18-1.38,1.1-2.19,2.75-2.24,4.51Z"/><path d="M370.66,533.4l-4.8-51.62c2.54-.21,5.11-.32,7.71-.32,7.66,0,15.11.94,22.23,2.71l-25.13,49.23Z"/><path d="M360.37,664.75l9.9-51.76,25.52,50c-7.12,1.76-14.56,2.71-22.23,2.71-4.48,0-8.88-.33-13.19-.94Z"/><path d="M363.72,536.43l-45.55-34.64,23.41,51.62-49.79-22.26c13.17-25.33,37.75-43.77,66.93-48.5l5.01,53.77Z"/><path d="M402.44,602.05l54.33,11.09c-5.76,12.08-14.07,22.72-24.23,31.2l-30.1-42.29Z"/><path d="M402.44,545.1l30.1-42.28c10.17,8.48,18.48,19.11,24.23,31.2l-54.33,11.09Z"/><path d="M288.72,537.66l49.47,22.12-54.59,13.79,54.59,13.79-49.47,22.11h0c-5.6-11.9-7.27-21.89-7.27-35.91s1.69-24.03,7.27-35.91h0Z"/><path d="M357.08,664.22l.18.04c-.06-.01-.12-.02-.18-.04Z"/><path d="M341.57,593.73l-23.41,51.63,45.16-34.33-10.02,52.43c-26.8-6.02-49.18-23.71-61.52-47.46l49.79-22.26Z"/><circle cx="228.95" cy="612.89" r="29.38"/><path d="M214.26,587.46s-27.74,20.21-46.82,22.49c-14.19,1.7-33.71-1.44-50.58-11.38,0,0,21.27,39.05,49.57,32.08,36.36-8.96,47.83-43.19,47.83-43.19Z"/><path d="M115.03,573.76c.54-2.5,4.72-4.59,4.72-4.59l19.37-11.74s7.27-5.18,12.55-5.11c5.28.07,10.06,2.06,10.06,2.06l70.08,18.96-69.88,19.67s-4.75,2.03-10.03,2.16c-5.28.13-12.61-4.98-12.61-4.98l-19.49-11.54s-4.2-2.04-4.76-4.54"/><path d="M268.76,699.47s-3.51-48.83,9.18-83.01c0,0-18.88,30.27-58.27,41.5,0,0,18.23,7,17.9,19.69,0,0,22.65-5.21,31.18,21.81Z"/><circle cx="228.95" cy="534.25" r="29.38"/><path d="M214.26,559.69s-27.74-20.21-46.82-22.49c-14.19-1.7-33.71,1.44-50.58,11.38,0,0,21.27-39.05,49.57-32.08,36.36,8.96,47.83,43.19,47.83,43.19Z"/><path d="M268.76,447.67s-3.51,48.83,9.18,83.01c0,0-18.88-30.27-58.27-41.5,0,0,18.23-7,17.9-19.69,0,0,22.65,5.21,31.18-21.81Z"/><path d="M102.23,588.14l-28.18,19.16s22.54,28.18,68.76,28.18c0,0-36.07-14.65-40.58-47.34Z"/><path d="M102.23,560.38l-28.18-19.16s22.54-28.18,68.76-28.18c0,0-36.07,14.65-40.58,47.34Z"/><path d="M79.8,589.25c-2.37,1.45-5.3,1.68-7.87.61l-39.91-16.57h-.41l39.91-16.57c2.57-1.07,5.49-.84,7.87.61l26.11,15.95h.42l-26.11,15.95Z"/><polygon points="13.46 583 26.91 573.29 13.46 563.58 0 573.29 13.46 583"/></svg>