<?xml version="1.0" encoding="UTF-8"?><svg id="Layer_1" xmlns="http://www.w3.org/2000/svg" width="10.33in" height="3.71in" viewBox="0 0 744.04 266.88"><circle cx="262.71" cy="114.46" r="35.29"/><circle cx="481.64" cy="114.46" r="35.29"/><circle cx="708.75" cy="114.46" r="35.29"/><circle cx="35.29" cy="114.46" r="35.29"/><polygon points="372.67 194.02 311.76 266.88 330.74 173.83 235.8 171.63 320.39 128.46 262.91 52.86 349.4 92.08 372.67 0 395.94 92.08 482.43 52.86 424.95 128.46 509.54 171.63 414.6 173.83 433.58 266.88 372.67 194.02"/><polygon points="152.95 194.02 92.03 266.88 111.02 173.83 16.08 171.63 100.67 128.46 43.19 52.86 129.68 92.08 152.95 0 176.22 92.08 262.71 52.86 205.23 128.46 289.82 171.63 194.88 173.83 213.86 266.88 152.95 194.02"/><polygon points="591.72 194.02 530.81 266.88 549.79 173.83 454.85 171.63 539.44 128.46 481.96 52.86 568.45 92.08 591.72 0 614.99 92.08 701.49 52.86 644 128.46 728.59 171.63 633.65 173.83 652.64 266.88 591.72 194.02"/></svg>