<?xml version="1.0" encoding="UTF-8"?><svg id="Layer_1" xmlns="http://www.w3.org/2000/svg" width="5.07in" height="5.57in" viewBox="0 0 364.91 401.29"><path d="M244.97,193.4c1.65-1.48,3.38-3.1,3.88-5.25.67-2.91-1.11-5.8-3.03-8.09-9.34-11.19-24.13-17.6-38.68-16.76-1.3.07-2.64.22-3.77.85-2.57,1.44-3.24,4.78-3.53,7.71-.9,8.92-.87,17.94.06,26.86.58,5.56,1.02,21.85,5.86,25.45,5.82,4.34,33.66-25.77,39.22-30.76Z"/><path d="M178.47,181.06c1.25-.87,2.55-1.77,3.31-3.1.86-1.5.91-3.33.87-5.06-.21-11.02-2.62-21.99-7.06-32.07-2.1-4.76-4.78-9.48-9-12.5-3.33-2.38-7.36-3.52-11.3-4.63-5.86-1.64-11.71-3.28-17.57-4.91-3.97-1.11-8.07-2.23-12.17-1.71-8.69,1.1-14.96,9.55-16.47,18.18-1.51,8.63.69,17.43,2.86,25.91,1.64,6.38,3.4,13.01,7.66,18.04,3.23,3.8,7.64,6.38,12.07,8.67,6.74,3.49,16.42,9.76,24.33,7.72,7.89-2.04,15.86-9.98,22.47-14.54Z"/><path d="M127.12,107.71c2.38-1,4.91-2.87,4.79-5.45-.07-1.49-1.03-2.77-1.97-3.92-3.22-3.97-6.72-7.82-11.07-10.5-4.36-2.67-9.71-4.07-14.66-2.81.06.85.12,1.7.18,2.55,4.97,1.6,9.09,5.62,10.82,10.54,2.44,6.93,3.29,13.2,11.9,9.6Z"/><path d="M77.96,102.87c-.63-.62-1.35-1.27-2.24-1.31-3-.13,2.45,16.9,3.23,18.22,1.76,2.99,8.57,12.05,12.98,10.5,3.21-1.13,8.66-3.32,7.63-6.37-2.63-7.81-20.1-19.57-21.6-21.03Z"/><path d="M28.56,124.87c-5.51-24.68-9.43-49.71-11.71-74.89,9.44,13.69,20.24,28.68,26.37,44.23,2.51,6.37.91,9.88-2.21,15.6-1.86,3.43-3.42,7.25-5.57,10.5-.26.39-6.18,7.69-6.88,4.56Z"/><path d="M115.02,34.33c-9.58-7.76-19.78-14.77-30.45-20.94-5.11-2.95-10.43-5.75-16.23-6.81,5.68,12.99,17.8,21.82,29.48,29.86,6.55,4.51,16.6,12.31,25.04,12.02,11.63-.39-4.74-11.62-7.84-14.13Z"/><path d="M284.63,336.73c.3,1.13,1,2.54,2.16,2.36.47-.07.84-.41,1.19-.73,2.68-2.47,9.17-6.12,6.99-10.31-1.69-3.25-8.58-4.67-11.68-5.97-1.62,4.56.17,10.16,1.35,14.65Z"/><path d="M261.24,361.5c-5.19-2.68-10.81-5.09-16.64-4.74-5.63.34-10.75,3.22-15.64,6.03-2.36,1.35-5.1,3.58-4.3,6.18.32,1.03,1.15,1.81,2.01,2.45,4.04,3.03,9.21,4.06,14.23,4.66,11.46,1.36,23.17.87,34.39,3.57,4.4,1.06,10.09,3.4,14.55,1.76-2.45-4.24-9.17-7.92-13.23-10.71-4.92-3.38-10.06-6.45-15.37-9.19Z"/><path d="M336.8,322.95c-.31-8.39-2.57-17.22-8.71-22.95-.84-.78-1.88-1.54-3.01-1.39-1.99.26-2.54,2.86-2.59,4.87-.09,3.31-.17,6.61-.26,9.92-.08,2.98-.15,5.99.4,8.92.51,2.67,1.53,5.21,2.59,7.72,1.29,3.05,5.67,17.83,9.94,14,3.23-2.9,1.8-16.92,1.64-21.09Z"/><path d="M298.64,284.42c-.83-14.07-2.85-28.06-6.01-41.79-1.12-4.85-2.95-10.35-7.6-12.14-2.3-.88-4.85-.65-7.3-.35-13.64,1.66-27.08,4.87-40,9.53-3.12,1.13-6.29,2.38-8.75,4.61s-4.1,5.64-3.37,8.88c.67,2.96,3.1,5.14,5.42,7.1,13.73,11.65,27.88,22.8,42.42,33.41,4.45,3.25,14.23,13.39,20.16,11.49,7.17-2.3,5.36-15.23,5.04-20.75Z"/><path d="M256.12,321.74c-12.54-22.95-25.2-46.08-42.05-66.09-8.91,13.47-17.91,27.1-23.41,42.29-1.75,4.83-3.11,10.29-1.05,14.99,1.79,4.07,5.77,6.69,9.62,8.92,9.48,5.49,19.48,10.07,29.81,13.68,11.47,4,38.21,6.59,27.08-13.79Z"/><path d="M167.35,336.9c-25.84-12.72-40.64-41.79-43.14-70.49-.24-2.77-.5-5.82-2.47-7.78-3.12-3.11-8.86-1.43-11.39,2.17s-2.76,8.29-2.9,12.69c-.38,12.09-.62,24.84,5.15,35.47,3.63,6.71,9.38,12,15.25,16.87,5.93,4.91,12.12,9.54,18.77,13.42,12.22,7.15,25.99,11.8,37.01,20.69,2.38,1.92,4.68,4.07,7.54,5.14,9.08,3.42,33.2-6.16,17-14.82-12.48-6.67-27.97-7.05-40.82-13.37Z"/><path d="M192.73,241.28c1.12-1,2.36-2.38,1.88-3.81-.24-.72-.86-1.23-1.47-1.68-5.79-4.29-12.66-6.82-19.09-10.1-4.53-2.31-8.87-5.02-12.94-8.07-1.83-1.37-3.79-2.88-6.08-2.9-2.25-.02-4.29,1.49-5.52,3.37s-1.78,4.11-2.3,6.3c-2.48,10.65-4.37,21.47-4.88,32.39-.22,4.64.31,10.19,4.36,12.46,3.97,2.23,8.88-.07,12.75-2.46,12.03-7.44,22.77-16.12,33.28-25.51Z"/><path d="M160.5,297.7c1.5-.98,2.62-2.54,3.06-4.28.19-.72.25-1.51-.02-2.21s-.95-1.27-1.7-1.23c-.53.03-1,.35-1.44.66-.89.63-1.78,1.25-2.66,1.88-1.33.93-5.19,3.48-4.01,5.54s5.49.49,6.77-.35Z"/><path d="M274.44,200.23c-.81-.86-1.66-1.75-2.76-2.2-1.44-.59-3.13-.31-4.48.45s-2.43,1.94-3.34,3.2c-1.41,1.95-2.51,4.13-3.24,6.42-.22.68-.4,1.4-.28,2.11.2,1.17,1.25,2.06,2.39,2.41s2.36.24,3.54.08c3.33-.45,8.8-1.17,11.19-3.87,2.71-3.05-.91-6.35-3.02-8.6Z"/><path d="M321.97,247.62c1.4,9.47,1.03,19.21-1.07,28.55-.62,2.75-1.64,5.79-4.19,7-2.69,1.28-6.07-.17-7.86-2.56s-2.36-5.45-2.75-8.41c-2.01-15.38-.62-31.22-4.43-46.25-1.59-6.27-2.74-12.58-5.5-18.43-4.38-9.27-9.51-18.17-15.35-26.6-7.86-11.36-17.87-22.41-31.26-25.79-6.44-1.62-13.18-1.34-19.8-.85-1.55-4.22,2.5-8.33,6.33-10.7,8.17-5.07,18.05-8.46,27.38-6.16,4.55,1.12,8.69,3.54,12.44,6.35,15.72,11.81,24.83,30.2,33.37,47.91,8.1,16.79,9.98,37.49,12.69,55.93Z"/><path d="M345.54,202c3.65,9.75,6.13,19.87,8.6,29.95,3.53,14.43,7.06,28.87,10.6,43.3.21.85.35,1.91-.25,2.36-.79.58-1.86-.5-2.48-1.45-15.45-23.96-27.06-50.42-37.99-76.87-3.17-7.68-6.51-17.58,2.44-20.98,8.62-3.28,16.06,15.64,19.08,23.69Z"/><path d="M335.92,160.29c-6.84.99-12.43-8.25-18.2-14.35-5.3-5.6-11.49-8.86-17.66-11.52-5.12-2.2-10.45-4.13-14.82-8.81-4.37-4.69-7.58-13.04-6.11-20.48.24-1.22.61-2.4,1.21-3.28,1.1-1.6,2.76-1.95,4.31-2.22,10.95-1.92,22.66-3.66,32.76,3.92,7.28,5.45,12.79,15.13,17.52,25.08,3.08,6.49,6.84,13.75,8.87,21.1,1.56,5.64,2.15,4.14-.39,7.33-1.43,1.79-5.58,2.96-7.47,3.23Z"/><path d="M119.46,369.1c-1.97.64-3.89-.07-5.55-.76-10.22-4.28-20.74-8.76-27.11-16.4-2.37-2.83-4.09-6.03-5.81-9.21-2.68-4.97-5.36-9.95-8.05-14.92-1.86-3.46-3.76-7.04-3.64-11.05.12-4.01,2.79-8.6,7.54-10.58,1.44-.6,3.11-.92,4.42-.48.83.28,1.42.83,1.95,1.39,3.27,3.41,5.35,7.53,7.53,11.56,5.72,10.6,12.2,20.9,19.61,30.63,2.16,2.84,19.54,16.44,9.1,19.81Z"/><path d="M143.28,363.9c.68-1.11,1.46-2.25,2.64-2.81,1.8-.85,3.91-.08,5.75.69,14.47,6.08,28.93,12.15,43.4,18.23,4.16,1.75,8.36,3.52,12.08,6.07,5.5,3.78,9.77,9.19,12.66,15.19-.72-1.51-9.89-3.06-11.7-3.62-4.2-1.3-8.39-2.61-12.59-3.91-8.09-2.52-16.18-5.05-24.27-7.59-8.09-2.54-16.17-5.09-24.25-7.65-2.65-.84-7.75-1.33-8.45-4.58-.56-2.62,3.42-7.92,4.71-10.03Z"/><path d="M244.55,68.33c.47-2.06-1.74-3.65-3.63-4.59-1.88-.95-3.76-1.89-5.64-2.84-1.66-.83-3.57-1.68-5.3-.99-1.1.44-1.86,1.42-2.58,2.36-5.81,7.64-11.63,15.29-17.44,22.93-7.27,9.56-14.65,19.31-18.8,30.58,2.51.83,5.07-.97,7.09-2.68,9.04-7.64,17.77-15.65,26.17-23.99,3.52-3.49,6.95-7.04,10.59-10.39,2.76-2.54,8.68-6.72,9.53-10.38Z"/><path d="M160.49,105.6c-2.03-3.31-2.82-7.21-3.72-10.99-1.96-8.22-4.59-16.29-7.86-24.08-.21-.49-.4-1.11-.05-1.52.2-.23.51-.3.81-.37,5.97-1.33,11.94-2.65,17.91-3.98.69-.15,1.45-.3,2.08.04.63.34.92,1.08,1.16,1.76,2.08,5.89,3.92,11.86,5.52,17.89,1.25,4.7,3.64,10.62,2.93,15.57-1.02,7.06-14.82,12.16-18.79,5.68Z"/><path d="M212.02,53.56c1.04-1.1,2.12-2.31,2.26-3.76.23-2.42-2.19-4.25-4.39-5.57C180.06,26.36,145.17,17.08,113.68,1.79c-2-.97-4.14-1.99-6.39-1.76,4.67,6.89,11.9,11.9,18.96,16.74,14.14,9.71,28.3,19.42,42.97,28.45,7.39,4.55,14.91,8.92,22.6,13.01,2.3,1.22,8.21,5.53,10.86,5.05,2.53-.46,7.62-7.9,9.34-9.73Z"/><path d="M252.07,101.12c-.42-.57-.89-1.15-1.6-1.51-1.13-.58-2.64-.49-3.98-.2-2.51.54-4.73,1.69-6.91,2.83-5.1,2.66-10.19,5.31-15.29,7.97-5.44,2.84-10.91,5.69-15.76,9.12-5.08,3.6-9.64,8.2-10.05,13.45-.41,5.25,5.03,10.79,11.79,10.17,2.21-.2,4.27-1,6.24-1.83,11.8-4.91,22.77-11.07,32.49-18.25,3.41-2.52,7.74-5.14,8.13-8.97.42-4.14-2.54-9.36-5.07-12.78Z"/><path d="M42.15,200.27c1,4.67-2.4,9.8-7.53,11.34-1.86.56-4.21.56-5.43-.78-.53-.59-.75-1.34-.96-2.07-4.82-16.85-9.64-33.7-14.46-50.55-4.55-15.91-9.19-31.8-13.6-47.73-.3-1.09-.31-2.64.94-2.9,1.13-.23,1.92.93,2.31,1.89,9.57,23.43,19.14,46.86,28.71,70.29,2.73,6.68,8.52,13.53,10.02,20.5Z"/><path d="M91.07,169.45c.6-1.76.99-3.64.67-5.47-.62-3.47-3.6-5.97-6.46-8.03-9.01-6.52-18.78-11.98-29.04-16.24-.96-.4-1.96-.79-3.01-.79-3.02.02-4.92,3.19-6.1,5.98-.65,1.54-1.28,3.15-1.21,4.82.09,2.16,1.32,4.09,2.57,5.87,4.09,5.85,8.78,11.4,14.66,15.46,8.01,5.53,23.65,10.86,27.93-1.59Z"/><path d="M89.69,280.78c4.04-5.78,6.69-13,9.53-19.95,4.65-11.39,9.95-22.29,15.82-32.59,2.88-5.06,6.02-10.33,6.54-16.73.16-1.92.03-4.02-.87-5.59-.68-1.18-1.7-1.91-2.7-2.55-3.45-2.2-7.6-3.85-10.87-1.48-1.25.9-2.24,2.32-3.19,3.73-8.16,12.16-14.94,25.87-20.74,40.25-3.01,7.47-5.77,15.13-8.34,22.9-1.76,5.31-6.24,14.04-1.45,18.94,5.34,5.46,12.78-1.93,16.27-6.92Z"/><path d="M71.11,239.54c6.34-8.46,11.79-17.67,16.23-27.41,1.46-3.22,2.85-6.64,2.71-10.24-3.04.87-5.74,2.68-8.37,4.48-10.88,7.47-21.49,15.35-31.83,23.62-3.39,2.72-6.83,5.56-9.06,9.39-4.11,7.04-4.52,20.87,6.19,18.57,10.14-2.17,17.95-10.16,24.13-18.42Z"/></svg>