<?xml version="1.0" encoding="UTF-8"?><svg id="Layer_1" xmlns="http://www.w3.org/2000/svg" width="15.92in" height="15.92in" viewBox="0 0 1145.94 1146.5"><defs><style>.cls-1{fill:#878787;}.cls-2{opacity:.65;}.cls-3{stroke:#000;stroke-miterlimit:10;}</style></defs><path class="cls-3" d="M320.62,819.25c-7.34-8.35-17.77-17.55-28.12-13.5-4.46,1.75-7.66,5.66-10.57,9.46-13.38,17.45-25.36,35.97-35.81,55.33-4.5,8.34-8.83,17.9-6.1,26.97,2.46,8.19,10.03,13.67,17.38,18.05,13.62,8.13,28.12,14.67,42.57,21.19.12-5.79,5.02-10.19,9.53-13.83,17.86-14.44,35.72-28.87,53.58-43.31,5.6-4.53,11.67-9.94,12.03-17.13.52-10.59-11.02-17.06-20.48-21.84-18.06-9.12-19.92-6.87-34-21.39"/><path d="M230.09,1049.23c.17-4.18-1.16-10.58-2.28-15.98-.59-2.84-1.1-5.29-1.24-6.78-.91-9.21-1.71-18.56-2.38-27.8-.28-3.9-.72-7.96-1.19-12.26-1.43-13.11-2.91-26.67-.18-38.22,2.23-9.46,7.35-14.67,14.42-14.67,2.92,0,6.1.9,9.45,2.68.88.47,1.87.98,2.93,1.53,10.44,5.41,29.87,15.47,30.3,27.28.21,5.72-3.72,10.54-7.52,15.21l-.4.49c-10.92,13.44-19.53,28.75-27.86,43.55l-14.05,24.98Z"/><path d="M237.24,933.02v1h0c2.83,0,5.93.88,9.21,2.62.88.47,1.87.98,2.93,1.53,10.35,5.36,29.61,15.34,30.03,26.85.2,5.53-3.67,10.28-7.41,14.88l-.39.49c-10.95,13.47-19.57,28.8-27.91,43.62l-13.14,23.35c-.18-4.15-1.3-9.54-2.27-14.21-.59-2.83-1.09-5.27-1.23-6.72-.91-9.21-1.71-18.56-2.38-27.79-.28-3.91-.73-7.97-1.19-12.28-1.42-13.07-2.9-26.58-.19-38.05,2.17-9.21,7.12-14.29,13.94-14.29v-1M237.24,933.02c-7.29,0-12.64,5.45-14.91,15.06-3.65,15.47.23,34.93,1.36,50.63.67,9.28,1.46,18.55,2.38,27.81.51,5.16,5.25,21.53,2.87,25.76,5.21-9.26,10.42-18.53,15.64-27.79,8.45-15.01,16.95-30.11,27.81-43.48,3.86-4.75,8.25-9.92,8.03-16.03-.48-13.28-23.58-23.97-33.49-29.23-3.49-1.85-6.74-2.74-9.68-2.74h0Z"/><path class="cls-3" d="M351.36,909.82c5.85-5.56,10.33-12.43,16.22-17.94s13.99-9.67,21.86-7.92c4.38.97,8.17,3.66,11.61,6.55,7.16,6.01,13.34,13.18,18.25,21.14,2.38,3.87,4.48,8.82,2.24,12.77-1.14,2-3.18,3.29-5.11,4.56-15.13,9.93-27.91,23.42-37.01,39.07-2.41,4.14-5.66,9.06-10.43,8.66-2-.17-3.77-1.31-5.45-2.41-7.94-5.23-15.88-10.45-23.81-15.68-4.16-2.74-8.57-5.78-10.28-10.45-2.12-5.77.55-12.16,3.79-17.39,3.6-5.82,7.97-11.15,12.96-15.83,8.39-7.86,18.99-14.5,22.76-25.36"/><path d="M454.13,1018.74c-2.93,0-5.92-1.75-8.49-3.39-2.61-1.66-5.95-3.47-9.49-5.38-11.58-6.26-25.98-14.05-29.14-24.23-3.09-9.95,8.31-21.06,17.48-29.98,2.8-2.73,5.45-5.3,7.26-7.48,4.68-5.3,9.81-10.51,16.35-10.78.18,0,.37-.01.55-.01,7.45,0,13.34,6.46,18.53,12.17l.42.46c6.51,7.14,13.76,13.65,21.56,19.34l.24.17c2.05,1.5,4.17,3.04,5.29,5.24,2.39,4.7-.69,10.16-2.12,12.29-3.29,4.88-7.92,8.69-12.39,12.38l-19.48,16.05c-1.37,1.13-2.93,2.41-4.72,2.91-.59.16-1.21.25-1.84.25Z"/><path d="M448.64,936.98v1c7.23,0,13.04,6.38,18.16,12l.42.46c6.53,7.16,13.81,13.69,21.64,19.41l.24.17c2.01,1.46,4.08,2.98,5.14,5.07,1.57,3.1.79,7.5-2.09,11.78-3.25,4.82-7.85,8.61-12.3,12.27l-10.08,8.3-9.41,7.75c-1.33,1.1-2.85,2.35-4.54,2.81-.55.15-1.12.23-1.71.23-2.79,0-5.71-1.71-8.22-3.31-2.63-1.67-5.97-3.49-9.52-5.4-11.49-6.22-25.8-13.95-28.9-23.93-3-9.66,8.28-20.65,17.35-29.48,2.81-2.74,5.47-5.32,7.28-7.5,4.62-5.23,9.66-10.36,16-10.62.18,0,.35-.01.53-.01v-1M448.64,936.98c-.19,0-.38,0-.57.01-6.85.29-12.17,5.82-16.71,10.96-7.56,9.07-29.02,24.48-24.84,37.93,4.22,13.56,27.82,22.85,38.84,29.88,2.67,1.7,5.7,3.47,8.76,3.47.66,0,1.32-.08,1.97-.26,1.86-.51,3.42-1.78,4.91-3,6.49-5.35,12.99-10.7,19.48-16.05,4.56-3.76,9.19-7.59,12.49-12.48,2.54-3.76,4.21-8.75,2.15-12.79-1.22-2.39-3.51-4.01-5.68-5.59-7.78-5.68-14.99-12.15-21.49-19.28-5.37-5.89-11.44-12.79-19.32-12.79h0Z"/><path d="M403.49,1081.77c-3.12,0-6.28-.05-9.4-.16-1.31-.04-2.67-.08-4.06-.11-9.01-.2-19.23-.43-26.71-4.88-15.22-9.06-5.14-34.32.89-49.41.9-2.25,1.75-4.38,2.41-6.19,2.21-6.05,5.26-12.51,11.07-14.61,1.38-.5,2.88-.74,4.59-.74,2.41,0,4.86.5,6.72.94,16.27,3.8,31.02,12.17,45.28,20.27,2.78,1.58,5.65,3.2,7.78,5.61,4.7,5.29,5.36,14.2,1.76,23.85-1.03,2.77-2.31,5.53-3.54,8.19-2.28,4.93-4.63,10.02-5.58,15.46-10.31,1.19-20.81,1.8-31.21,1.8Z"/><path d="M382.29,1006.16h0c2.35,0,4.77.49,6.61.92,16.19,3.79,30.91,12.14,45.15,20.21,2.74,1.55,5.57,3.16,7.65,5.5,4.57,5.15,5.19,13.87,1.67,23.34-1.03,2.75-2.3,5.5-3.52,8.15-2.24,4.85-4.55,9.85-5.55,15.22-10.17,1.16-20.52,1.75-30.79,1.75-3.11,0-6.27-.05-9.38-.16-1.31-.05-2.67-.08-4.07-.11-8.95-.2-19.1-.42-26.46-4.81-6.48-3.86-8.9-10.93-7.38-21.61,1.32-9.27,5.28-19.2,8.47-27.18.9-2.25,1.75-4.38,2.42-6.21,2.18-5.94,5.16-12.29,10.77-14.32,1.32-.48,2.77-.71,4.42-.71M382.29,1005.16c-1.62,0-3.23.22-4.76.77-6.08,2.2-9.15,8.84-11.37,14.91-5.2,14.21-20.95,45.58-3.08,56.21,8.77,5.22,21.23,4.72,31.01,5.06,3.14.11,6.28.16,9.42.16,10.57,0,21.15-.61,31.65-1.85,1.37-8.45,6.17-15.9,9.16-23.93,2.99-8.02,3.83-17.95-1.85-24.36-2.17-2.44-5.06-4.1-7.91-5.71-14.48-8.21-29.2-16.53-45.41-20.32-2.23-.52-4.55-.95-6.84-.95h0Z"/><path d="M313.89,1073.43c-4.67,0-9.47-.32-14.11-.63-3.64-.24-7.08-.47-10.46-.56-12.58-.32-27.07-1.17-40.13-7.12,3.36-13.12,8.78-25.76,14.02-38,4.25-9.92,8.64-20.17,15.23-28.94,3.98-5.29,9.07-10.45,15.99-16.24,4.75-3.97,9.95-7.65,15.82-7.77h.29c4.27,0,8.41,1.91,12.07,3.59l15.64,7.2c6.35,2.93,13.3,6.59,15.25,13.09,1.68,5.58-.78,11.39-3.15,17l-.29.69c-5.96,14.14-8.87,28.32-10.93,40.33-1.58,9.17-4.32,14.8-13.67,16.46-3.36.6-7.13.88-11.55.88Z"/><path d="M310.54,974.68c4.16,0,8.25,1.88,11.86,3.55l7.82,3.6,7.82,3.6c6.25,2.88,13.09,6.48,14.98,12.78,1.62,5.41-.79,11.13-3.13,16.66l-.29.69c-5.98,14.19-8.9,28.4-10.97,40.44-1.58,9.16-4.16,14.44-13.27,16.05-3.33.59-7.08.88-11.47.88-4.65,0-9.44-.32-14.07-.63-3.65-.24-7.09-.47-10.48-.56-12.4-.32-26.67-1.15-39.55-6.91,3.36-12.93,8.71-25.42,13.89-37.52,4.24-9.89,8.61-20.12,15.17-28.83,3.96-5.26,9.01-10.39,15.91-16.15,4.68-3.91,9.8-7.54,15.51-7.65.09,0,.18,0,.28,0M310.54,973.68c-.1,0-.2,0-.3,0-6.1.12-11.44,3.97-16.13,7.89-5.87,4.9-11.47,10.21-16.07,16.32-6.6,8.76-10.98,18.96-15.29,29.04-5.38,12.57-10.79,25.21-14.14,38.47,12.73,5.91,26.86,6.99,40.7,7.34,7.8.2,16.34,1.19,24.58,1.19,3.99,0,7.91-.23,11.64-.89,9.77-1.73,12.51-7.73,14.08-16.87,2.38-13.86,5.42-27.2,10.9-40.22,2.43-5.76,5.26-12.04,3.46-18.03-2.03-6.76-9.11-10.45-15.52-13.4-5.21-2.4-10.42-4.8-15.64-7.2-3.91-1.8-7.98-3.64-12.27-3.64h0Z"/><path d="M551.68,1083.9c-2.66-.47-5.92-.53-8.98-.53h-3.61c-1.29.01-2.76,0-3.86-.1-7.84-.7-14.25-1.23-20.17-1.65-8.58-.61-17.29-.84-25.71-1.07-5.5-.15-11.19-.3-16.78-.55-8.25-.38-17.78-1.95-18.26-10.86-.31-5.7,2.07-11.8,6.37-16.33,3.84-4.05,8.62-6.28,13.45-6.28h.26c7.95.14,15.43,3.88,22.04,7.18,20,10,38.08,19.24,55.25,30.19Z"/><path d="M474.13,1047.03h.25c7.83.13,15.27,3.85,21.82,7.13,19.24,9.62,36.7,18.54,53.29,28.95-2.17-.21-4.55-.24-6.8-.24-.64,0-1.28,0-1.9,0-.58,0-1.15,0-1.7,0-1.28,0-2.74-.01-3.82-.11-7.89-.71-14.3-1.23-20.18-1.65-8.58-.61-17.29-.84-25.72-1.07-5.5-.15-11.19-.3-16.78-.55-8.54-.39-17.33-1.93-17.79-10.38-.3-5.56,2.03-11.53,6.23-15.96,3.74-3.95,8.39-6.13,13.09-6.13M474.13,1046.03c-11.26,0-20.93,11.81-20.32,23.14.52,9.62,11,10.98,18.74,11.33,14.17.65,28.31.6,42.48,1.62,6.73.48,13.45,1.05,20.17,1.65,1.05.09,2.4.11,3.91.11,1.13,0,2.35-.01,3.6-.01,4.83,0,10.16.17,12.63,1.79-18.7-12.25-38.68-22.4-58.68-32.4-7.04-3.52-14.39-7.1-22.25-7.23-.09,0-.18,0-.27,0h0Z"/><path d="M519.9,1043.23c-1.25,0-2.49-.59-3.59-1.1-1.64-.77-3.27-1.56-4.9-2.34-3.58-1.72-7.29-3.5-11-5.12-1.05-.46-2.19-.87-3.29-1.27-2.35-.86-4.77-1.74-6.71-3.14-1.98-1.43-3.09-3.38-3.28-5.77-.36-4.47,2.51-9.51,5.51-12.51,4.89-6.27,9.8-11.99,16.59-13.58,1.24-.29,2.53-.44,3.84-.44,6.82,0,13.66,4,18.86,7.49,3.48,2.34,7.09,4.91,9.48,8.45,2.04,3.02,3.52,7.7,1.57,11.8-1.66,3.48-5.09,5.34-8.73,7.3-2.51,1.35-5.1,2.75-7.12,4.75-.54.53-1.06,1.12-1.57,1.69-1.7,1.92-3.31,3.72-5.57,3.79h-.11Z"/><path d="M513.08,998.46c6.68,0,13.44,3.96,18.59,7.41,3.44,2.31,7,4.85,9.34,8.32,1.96,2.9,3.4,7.4,1.54,11.3-1.59,3.33-4.96,5.15-8.52,7.08-2.54,1.37-5.16,2.79-7.23,4.83-.55.54-1.08,1.14-1.59,1.72-1.63,1.83-3.17,3.56-5.21,3.62h-.1c-1.14,0-2.32-.56-3.37-1.05-1.63-.77-3.25-1.55-4.88-2.33-3.6-1.73-7.32-3.52-11.04-5.13-1.07-.46-2.21-.88-3.32-1.28-2.31-.84-4.71-1.72-6.59-3.08-1.86-1.34-2.89-3.16-3.07-5.41-.34-4.31,2.45-9.19,5.37-12.11l.04-.04.04-.05c4.79-6.15,9.64-11.8,16.27-13.36,1.2-.28,2.46-.42,3.73-.42M513.08,997.46c-1.32,0-2.64.14-3.96.45-7.19,1.69-12.29,7.89-16.83,13.72-4.84,4.84-8.83,14.22-2.18,19.04,2.92,2.11,6.82,3.05,10.09,4.47,5.36,2.33,10.6,4.96,15.89,7.45,1.21.57,2.47,1.15,3.8,1.15.04,0,.09,0,.13,0,3.21-.09,5.19-3.37,7.47-5.62,4.83-4.77,13.03-6.06,15.95-12.19,1.86-3.91.81-8.71-1.61-12.29-2.42-3.58-6.02-6.18-9.62-8.59-5.77-3.87-12.4-7.57-19.14-7.57h0Z"/><path class="cls-3" d="M581.24,1046.32c-4.23-3.73-8.61-7.54-13.94-9.39s-11.9-1.27-15.71,2.89c-2.32,2.54-3.33,6.1-3.28,9.54.02,1.74.31,3.52,1.16,5.04,1.04,1.85,2.82,3.16,4.54,4.4,10.59,7.64,21.17,15.27,31.76,22.91,1.17.84,2.37,1.7,3.77,2.03,2.75.64,5.55-.92,7.67-2.79,4.51-3.98,7.53-10.34,5.69-16.07-1.7-5.27-6.83-8.5-11.5-11.47-5.52-3.5-10.9-7.23-16.11-11.17"/><path class="cls-3" d="M270.13,804.7c5.66-6.94,11.88-15.34,9.5-23.97-2.16-7.86-10.48-12.06-17.95-15.32-6.72-2.94-14.69-5.83-21.04-2.17-2.69,1.55-4.65,4.09-6.53,6.56-3.75,4.92-7.5,9.84-11.25,14.77-2.85,3.74-5.77,7.62-6.96,12.17-.9,3.41-.77,7-.63,10.52.37,9.62-4.56,55.1,15.04,50.4,6.88-1.65,14.58-19.41,18.57-25.02,6.78-9.54,13.87-18.86,21.27-27.93Z"/><path d="M508.18,963.77c-.81,0-1.68-.13-2.58-.38-3.84-1.07-7.01-3.76-9.92-6.42-.24-.22-.59-.52-1.01-.89-2.28-1.97-8.32-7.22-7.49-9.42.29-.77,1.58-1.18,3.73-1.18,5.22.01,13.13,6.56,17.86,10.47.79.65,1.5,1.24,2.12,1.74.72.57,1.34,1.1,1.64,1.78.63,1.41-.41,3.08-1.79,3.76-.73.36-1.59.54-2.55.54h0Z"/><path d="M490.9,944.98l.04,1c5,.01,12.82,6.49,17.5,10.36.79.65,1.5,1.24,2.12,1.74.67.53,1.24,1.02,1.49,1.59.51,1.13-.41,2.55-1.55,3.11-.66.33-1.45.49-2.33.49-.76,0-1.59-.12-2.45-.36-3.74-1.04-6.85-3.69-9.71-6.31-.24-.22-.59-.53-1.02-.89-5.35-4.64-7.82-7.62-7.36-8.87.15-.41,1.09-.86,3.26-.86v-1M490.9,944.98c-10.88,0,2.04,10.16,4.44,12.36,2.96,2.71,6.15,5.43,10.12,6.53.88.24,1.8.4,2.72.4.97,0,1.92-.17,2.77-.59,1.66-.82,2.75-2.8,2.02-4.42-.36-.8-1.08-1.4-1.78-1.96-4.49-3.58-14.04-12.3-20.24-12.32h-.05Z"/><path class="cls-3" d="M217.98,762.11c.06,1.48.79,3.5,2.23,3.14.59-.15.98-.68,1.31-1.19,1.85-2.79,3.45-5.74,4.77-8.82,1.68-3.92,2.63-9.16-.65-11.9-2.11-1.76-6.92-4.08-7.89-1.51-1.8,4.74.23,20.28.23,20.28Z"/><path class="cls-3" d="M448.01,921.41c.7.53,1.43,1.05,2.29,1.32,1.86.57,3.97-.23,5.33-1.52.24-.23.47-.48.68-.73.95-1.16-.19.95.41-.4.76-1.71,1.48-3.78.29-5.27-.72-.89-2-1.17-3.11-1.65-3.46-1.5-11.18-6.83-13.85-3.08-2.95,4.15,4.64,8.84,7.96,11.34Z"/><path class="cls-3" d="M393.25,868.9c-1.03.54-2.08,1.3-2.37,2.43,2.14.46,3.99,1.77,6.01,2.63,3.95,1.66,8.39,1.52,12.67,1.36,5.43-.21,8.27-6.5,1.96-7.92-5.76-1.3-12.96-1.28-18.28,1.51Z"/><path class="cls-3" d="M308.09,768.49c-1.08,1.84-2.22,3.68-2.87,5.71-1.26,3.96-.42,8.53,2.16,11.78s6.85,5.1,10.99,4.76c.96-.08,1.94-.28,2.75-.79,1.28-.8,2-2.26,2.49-3.69,1.34-3.85,1.57-8,1.5-12.07-.07-4.5-.49-8.99-.82-13.48s.2-9.53-.29-14.11c-.25-2.31-2.63-5.77-5.05-3.48-1.29,1.22-1.63,4.25-2.16,5.89-.66,2.03-1.38,4.03-2.17,6.01-1.84,4.64-4.04,9.15-6.55,13.46Z"/><path class="cls-3" d="M308.87,649.85c-2.74-1.1-5.49,1.4-7.39,3.65-5.06,6-10.12,12.01-14.51,18.52-7.78,11.55-13.29,24.45-18.74,37.26-3.85,9.04-7.75,18.27-8.65,28.05-.19,2.02-.23,4.12.53,6,.91,2.25,2.85,3.88,4.72,5.43,5.18,4.27,10.35,8.54,15.53,12.82,2.09,1.73,4.34,3.52,7.04,3.86.22-.53-.22.53,0,0,4.13-.49,8.3-4.99,10.6-8.45s3.6-7.47,5.03-11.37c3.99-10.86,12.5-22.31,13.53-33.95,1.02-11.52-3.6-24.55-5.08-35.96-1.12-8.59-1.99-17.21-2.61-25.85Z"/><path class="cls-3" d="M241.11,730.41c12.8-31.84,19.03-65.75,18.29-99.54-.06-2.8-.25-5.8-2.19-8-2.36-2.69-6.7-3.38-10.51-2.9-3.81.48-7.38,1.9-11.12,2.66-4,.82-8.15.88-12.23.61-.78-.05-1.67-.08-2.23.4-.38.33-.5.82-.6,1.28-3.52,15.67-3.54,31.78-3.54,47.76,0,13.7-.49,27.47,0,41.16.4,11.43,13.84,12.8,24.14,16.58Z"/><path d="M558.02,1005.14c-.92-.02-1.74-.64-2.63-1.39-1.85-1.55-3.73-3.22-5.54-4.84-4.19-3.72-8.52-7.57-13.17-10.6-2.14-1.39-3.29-3.16-3.32-5.12-.04-2.52,1.77-5.32,4.85-7.47,2.16-1.51,4.18-2.27,6.01-2.27.46,0,.91.05,1.34.15,1.98.45,3.56,1.85,5.27,3.5,3.54,3.41,7.03,6.96,10.39,10.55,2.54,2.72,4.95,5.42,6.44,8.62.27.58.52,1.24.33,1.79-.14.43-.54.77-1,1.15-2.11,1.69-4.29,3.32-6.48,4.86-.81.57-1.61,1.08-2.45,1.08h-.04Z"/><path d="M544.22,973.95h0c.42,0,.83.05,1.23.13,1.86.42,3.38,1.77,5.03,3.37,3.53,3.4,7.02,6.95,10.38,10.53,2.51,2.68,4.89,5.35,6.35,8.49.21.46.44,1.04.31,1.42-.1.3-.46.6-.84.91-2.09,1.67-4.26,3.3-6.45,4.84-.74.52-1.47.99-2.2.99h0c-.76-.02-1.5-.58-2.32-1.27-1.85-1.55-3.72-3.22-5.54-4.83-4.2-3.73-8.54-7.6-13.23-10.64-2.02-1.31-3.06-2.9-3.09-4.71-.04-2.36,1.69-4.99,4.64-7.05,2.07-1.45,4-2.18,5.72-2.18M544.22,972.95c-2.22,0-4.43,1.06-6.3,2.36-5.4,3.78-7.34,9.64-1.52,13.43,6.65,4.32,12.58,10.3,18.67,15.4.86.72,1.82,1.48,2.94,1.5.02,0,.04,0,.05,0,1.01,0,1.91-.59,2.74-1.17,2.22-1.55,4.39-3.18,6.5-4.88.48-.38.97-.8,1.17-1.38.24-.71-.04-1.48-.36-2.16-1.54-3.32-4.03-6.09-6.53-8.75-3.38-3.61-6.85-7.13-10.41-10.57-1.6-1.55-3.33-3.14-5.51-3.63-.48-.11-.97-.16-1.45-.16h0Z"/><path d="M594.36,990.99c-.73,0-1.46-.38-2.21-.79-6.86-3.82-13.36-8.38-19.31-13.55-.56-.49-1.2-1.01-1.88-1.56-4.58-3.74-10.84-8.86-6.53-14.34,1.29-1.63,3.42-2.65,5.56-2.65.52,0,1.04.06,1.54.18,2.34.56,4.26,2.28,6.11,3.95l.19.17c5.72,5.14,11.92,9.84,18.42,13.96,2.83,1.79,5.61,3.78,5.75,6.68.15,3.21-3.13,5.62-5.62,7.15-.65.4-1.24.74-1.85.79-.06,0-.12,0-.17,0Z"/><path d="M570,958.6h0c.48,0,.96.06,1.42.17,2.22.53,4.09,2.21,5.89,3.84l.19.17c5.74,5.16,11.96,9.88,18.49,14.01,2.72,1.72,5.39,3.63,5.52,6.28.14,2.94-3.01,5.23-5.39,6.7-.62.38-1.13.68-1.63.72-.04,0-.09,0-.13,0-.61,0-1.28-.34-1.97-.73-6.83-3.8-13.3-8.34-19.22-13.49-.57-.5-1.21-1.02-1.89-1.57-5.72-4.68-10.16-8.93-6.45-13.64,1.19-1.51,3.17-2.46,5.17-2.46M570,957.6c-2.27,0-4.55,1.05-5.96,2.84-5.28,6.71,4.03,12.73,8.47,16.59,5.97,5.19,12.48,9.76,19.39,13.6.77.43,1.59.86,2.45.86.07,0,.14,0,.21,0,.75-.06,1.43-.47,2.08-.86,2.86-1.77,6.02-4.24,5.86-7.6-.16-3.22-3.26-5.36-5.98-7.08-6.49-4.11-12.64-8.77-18.36-13.9-1.95-1.75-3.97-3.63-6.52-4.24-.54-.13-1.1-.19-1.65-.19h0Z"/><path d="M533.55,946.46c-2.11,0-4.25-1.91-6.24-3.98-2.11-2.19-3.55-3.96-4.68-5.74-.27-.43-1.89-4.08-2.39-5.5,4.31.45,15.24,4.97,17.19,9.7.62,1.49.28,2.85-1.02,4.16-.91.91-1.85,1.35-2.87,1.35Z"/><path d="M521.02,931.87c1.92.36,4.89,1.31,7.93,2.78,4.25,2.06,7.18,4.42,8.03,6.49.54,1.31.25,2.45-.91,3.61-.81.81-1.63,1.21-2.52,1.21-1.92,0-3.96-1.84-5.88-3.83-1.41-1.46-3.2-3.42-4.61-5.65-.23-.4-1.4-3-2.05-4.62M519.62,930.71c-.32,0,2.3,5.85,2.59,6.3,1.34,2.11,3.01,4.02,4.74,5.82,1.83,1.9,4.17,4.13,6.6,4.13,1.07,0,2.15-.43,3.22-1.5,6.82-6.83-12.18-14.73-17.15-14.75h0Z"/><path d="M583.11,928.77c-.6,0-1.21-.03-1.83-.07-6.74-.54-12.98-3.62-18.8-6.74-.52-.28-1.2-.58-1.99-.93-2.42-1.08-6.06-2.7-6.56-4.54-.58-2.16,2-3.89,3.44-4.51,4.72-2.01,10.4-2.97,15.89-3.9,2.69-.46,5.23-.88,7.67-1.43,1.44-.32,2.97-.64,4.42-.64,1.22,0,2.25.22,3.13.68,1.67.86,2.81,2.57,3.81,4.08,1.56,2.34,3.5,5.26,3.48,8.4-.02,3-1.96,6.05-4.95,7.77-2.12,1.22-4.72,1.84-7.73,1.84h0Z"/><path d="M585.36,906.51c1.14,0,2.09.2,2.9.62,1.56.8,2.66,2.45,3.63,3.91,1.52,2.29,3.42,5.14,3.4,8.12-.02,2.83-1.86,5.71-4.7,7.34-2.05,1.18-4.56,1.77-7.48,1.77-.58,0-1.18-.02-1.79-.07-6.64-.53-12.83-3.59-18.6-6.68-.53-.29-1.23-.59-2.03-.95-2.19-.97-5.85-2.6-6.28-4.22-.46-1.7,1.64-3.27,3.15-3.92,4.67-1.99,10.32-2.94,15.78-3.86,2.7-.46,5.25-.89,7.69-1.43,1.42-.32,2.92-.63,4.31-.63M585.36,905.51c-1.5,0-3.06.32-4.53.65-7.49,1.68-16.59,2.35-23.65,5.35-1.87.8-4.36,2.74-3.73,5.1.72,2.68,6.57,4.6,8.8,5.79,5.97,3.2,12.24,6.25,18.99,6.79.62.05,1.24.08,1.87.08,2.78,0,5.58-.53,7.98-1.91,2.94-1.69,5.18-4.81,5.2-8.2.02-3.18-1.81-6.03-3.57-8.68-1.09-1.64-2.25-3.34-4-4.24-1.05-.54-2.19-.73-3.36-.73h0Z"/><path d="M638.59,985.23c-.21,0-.42-.01-.63-.03-2.75-.28-4.96-2.37-7.16-4.66-1.85-1.93-3.69-3.86-5.53-5.79-3.57-3.74-7.26-7.61-10.93-11.38-.84-.86-1.98-1.79-3.18-2.76-3.17-2.58-6.77-5.5-6.77-8.58.19-1.9,2.12-3.21,4.19-4.32,2.68-1.45,5.81-2.92,8.71-2.92,1.26,0,2.37.27,3.38.83,1.5.83,2.65,2.3,3.67,3.6l19.94,25.51c1.68,2.16,3.38,5.15,1.88,7.19-.48.65-1.24,1.1-1.98,1.5-1.65.9-3.6,1.82-5.58,1.82Z"/><path d="M617.28,945.28h0c1.18,0,2.2.25,3.14.77,1.41.78,2.48,2.15,3.51,3.47l10.33,13.22,9.61,12.29c1.58,2.02,3.18,4.8,1.87,6.59-.42.57-1.1.97-1.82,1.36-1.59.87-3.47,1.76-5.34,1.76-.19,0-.39,0-.58-.03-2.58-.26-4.72-2.28-6.85-4.51-1.82-1.9-3.63-3.8-5.45-5.7-3.6-3.77-7.32-7.67-11.02-11.47-.86-.88-2.01-1.82-3.23-2.81-2.92-2.37-6.54-5.31-6.58-8.14.19-1.69,2-2.89,3.93-3.93,2.62-1.42,5.68-2.86,8.47-2.86M617.28,944.28c-3,0-6.19,1.5-8.95,2.98-2,1.08-4.24,2.5-4.45,4.76,0,4.57,7.1,8.62,10.1,11.7,5.53,5.68,10.97,11.44,16.46,17.17,2.1,2.19,4.46,4.51,7.47,4.81.23.02.45.03.68.03,2.04,0,4.01-.9,5.82-1.88.8-.44,1.6-.92,2.14-1.65,1.71-2.32-.11-5.52-1.89-7.79-6.65-8.5-13.29-17.01-19.94-25.51-1.1-1.41-2.25-2.86-3.82-3.73-1.15-.63-2.37-.9-3.63-.9h0Z"/><path d="M652.99,957.65c-.07,0-.15,0-.22-.03-.36-.08-.68-.39-1.02-.75-5.25-5.44-9.67-11.6-13.15-18.31-1.27-2.44-2.79-8.37-1.2-11,.52-.86,1.32-1.27,2.45-1.27.46,0,.97.07,1.53.21,4.07,1.02,7.49,7.38,9.99,12.03.59,1.1,1.15,2.15,1.65,2.98,1.28,2.15,2.46,4.27,2.76,6.6.3,2.38-.37,4.88-.96,7.09-.33,1.22-1.02,2.45-1.84,2.45h0Z"/><path d="M639.86,926.8c.42,0,.89.07,1.41.2,3.85.97,7.22,7.22,9.67,11.79.6,1.11,1.16,2.15,1.66,3,1.26,2.1,2.41,4.17,2.69,6.4.29,2.29-.34,4.63-.94,6.9-.31,1.16-.91,2.08-1.36,2.08-.03,0-.07,0-.11-.01-.25-.06-.55-.37-.78-.6-5.21-5.4-9.61-11.52-13.06-18.19-1.39-2.69-2.59-8.25-1.21-10.52.43-.7,1.07-1.03,2.03-1.03M639.86,925.8c-5.68,0-3.45,9.64-1.7,13.01,3.49,6.73,7.96,12.96,13.23,18.42.36.38.76.77,1.27.89.12.03.23.04.34.04,1.2,0,1.98-1.55,2.32-2.82.64-2.38,1.28-4.84.97-7.28-.31-2.45-1.56-4.67-2.82-6.79-2.57-4.3-6.65-13.91-11.95-15.24-.61-.15-1.16-.23-1.65-.23h0Z"/><path d="M671.24,931.62c-.17,0-.35-.03-.52-.09-.7-.23-1.2-.95-1.56-1.56-1.38-2.3-2.18-4.92-2.95-7.46l-4.31-14.2c-.31-1.03-.68-2.09-1.08-3.2-1.17-3.32-2.38-6.76-2.17-9.93.18-2.63,1.67-4.4,4.43-5.24.56-.17,1.11-.26,1.63-.26,2.26,0,4.09,1.63,5.77,5.13,2.33,4.87,4.85,10.69,5.88,16.89.75,4.52.98,11.19-2.15,17.33-.61,1.19-1.75,2.59-2.97,2.59h0Z"/><path d="M664.72,890.18c2.05,0,3.74,1.54,5.32,4.84,2.32,4.84,4.82,10.62,5.84,16.75.74,4.44.97,11-2.11,17.02-.59,1.15-1.6,2.31-2.52,2.31-.12,0-.24-.02-.36-.06-.54-.18-.98-.81-1.29-1.34-1.35-2.24-2.13-4.84-2.9-7.35l-2.15-7.1-2.15-7.1c-.32-1.04-.69-2.1-1.09-3.22-1.15-3.28-2.35-6.66-2.14-9.73.16-2.44,1.5-4.01,4.08-4.8.52-.16,1.01-.24,1.48-.24M664.72,889.18c-.55,0-1.14.09-1.77.28-2.83.87-4.58,2.72-4.78,5.69-.29,4.36,2.03,9.22,3.27,13.31,1.44,4.73,2.87,9.46,4.31,14.2.79,2.6,1.59,5.24,3,7.57.45.75,1.01,1.5,1.83,1.77.23.08.45.11.67.11,1.43,0,2.71-1.47,3.41-2.86,2.74-5.37,3.19-11.69,2.2-17.64-.99-5.95-3.32-11.58-5.92-17.02-1.36-2.85-3.25-5.41-6.22-5.41h0Z"/><path d="M615.81,909.72c-2.75,0-5-2.64-5.58-5.18-.7-3.08.22-6.34,1.03-9.21.4-1.44.79-3.13,1.19-4.92,1.69-7.49,4.01-17.75,10.91-20.47.8-.31,1.54-.47,2.21-.47,1.13,0,2.06.44,2.85,1.34,3.37,3.88,2.74,14.56,2.21,18.35-1.11,7.98-5.29,15.14-11.17,19.14-.85.58-1.88,1.19-3.01,1.37-.21.03-.42.05-.63.05h0Z"/><path d="M625.57,869.97c.98,0,1.78.38,2.47,1.17,2.89,3.32,2.81,12.77,2.09,17.96-1.09,7.85-5.19,14.87-10.96,18.8-.8.55-1.77,1.13-2.8,1.29-.18.03-.37.04-.55.04-2.47,0-4.57-2.49-5.1-4.8-.68-2.95.23-6.15,1.02-8.96.41-1.45.79-3.15,1.2-4.94,1.76-7.79,3.95-17.49,10.6-20.11.74-.29,1.42-.44,2.03-.44M625.57,868.97c-.71,0-1.51.16-2.39.51-8.79,3.47-10.25,18.12-12.4,25.72-.87,3.09-1.75,6.33-1.03,9.46.66,2.89,3.19,5.57,6.07,5.57.23,0,.47-.02.71-.05,1.17-.18,2.23-.78,3.21-1.45,6.4-4.36,10.32-11.81,11.39-19.49.7-5.05,1.4-20.27-5.55-20.27h0Z"/><path d="M570.16,884.95c-4.27,0-7.17-9.91-8.1-15.85,1.27,1.28,3.32,2.49,5.44,3.74,3.44,2.03,7.35,4.33,7.63,6.91.13,1.19-.5,2.4-1.9,3.7-1.07.99-2.1,1.5-3.07,1.5Z"/><path d="M562.79,870.41c1.22.95,2.79,1.88,4.46,2.86,3.34,1.97,7.13,4.2,7.38,6.54.11,1.02-.46,2.09-1.75,3.28-.98.9-1.89,1.36-2.73,1.36-3.54,0-6.26-8.1-7.37-14.04M561.28,866.69c.31,4.56,3.27,18.76,8.89,18.76,1.04,0,2.18-.49,3.41-1.63,8.54-7.9-11.94-11.96-12.29-17.13h0Z"/><path d="M540.57,894.87c-5.74,0-12.73-2.2-15.26-4.81-2.06-2.13-1.99-5.62-1.76-8.72l1.5-20.1c.04-.53.08-1.14.35-1.58.32-.55,1.02-.88,1.83-.88.2,0,.39.02.58.06,1,.22,1.87.88,2.68,1.53,6.37,5.16,19.63,18.64,19.95,27.34.07,1.88-.46,3.42-1.57,4.58-2.06,2.14-5.65,2.59-8.3,2.59h0Z"/><path d="M527.23,859.28c.16,0,.32.02.48.05.89.19,1.71.81,2.47,1.43,3,2.43,8,7.12,12.24,12.35,4.79,5.91,7.39,10.96,7.53,14.62.07,1.74-.42,3.16-1.43,4.21-1.94,2.01-5.39,2.44-7.94,2.44-6.21,0-12.72-2.41-14.9-4.65-1.92-1.98-1.85-5.2-1.62-8.34l.75-10.04.75-10.07c.04-.5.08-1.02.28-1.36.28-.47.9-.64,1.39-.64M527.23,858.28c-.9,0-1.81.37-2.26,1.13-.32.54-.37,1.18-.42,1.8-.5,6.7-1,13.4-1.5,20.1-.24,3.19-.33,6.81,1.9,9.11,2.56,2.64,9.54,4.96,15.62,4.96,5.68,0,10.59-2.02,10.37-7.69-.34-8.9-13.63-22.43-20.14-27.71-.87-.7-1.8-1.39-2.89-1.63-.22-.05-.46-.07-.69-.07h0Z"/><path d="M603.5,863.15c.41-7.97-3.39-16.12-9.79-20.89-.53-.4-1.12-.82-1.74-1.27-4.71-3.42-11.82-8.58-12.17-14.06-.15-2.29.91-4.52,3.15-6.63,2.36-2.23,5.6-3.4,9.38-3.4,6.58,0,13.78,3.6,17.12,8.55,3.14,4.66,3.78,11.41,1.81,19.02-.8,3.07-1.92,6.12-3,9.07-1.15,3.13-2.34,6.36-3.16,9.66l-1.61-.04Z"/><path d="M592.34,817.4c6.42,0,13.45,3.5,16.7,8.33,4.13,6.12,2.86,14.29,1.74,18.61-.79,3.05-1.91,6.08-2.99,9.02-1.11,3.02-2.26,6.13-3.08,9.32h-.49s-.21-.02-.21-.02c.24-7.96-3.62-16.03-10.01-20.8-.53-.4-1.12-.82-1.74-1.27-4.63-3.36-11.63-8.44-11.96-13.69-.14-2.17.84-4.21,3-6.24,2.27-2.14,5.39-3.27,9.04-3.27M592.34,816.4c-3.63,0-7.09,1.06-9.72,3.54-9.72,9.16,4.33,17.9,10.8,22.73,6.42,4.79,10.15,12.98,9.55,20.97.84.02,1.69.04,2.53.06,1.56-6.52,4.57-12.62,6.25-19.11,1.68-6.49,1.87-13.86-1.88-19.42-3.41-5.06-10.75-8.77-17.53-8.77h0Z"/><path d="M588.51,875.96c-2.08,0-3.98-1.49-5.74-3.01-1.37-1.18-2.78-2.4-4.13-3.65-1.28-1.18-4.67-4.33-4.4-6.68.08-.76.55-1.38,1.44-1.89.66-.38,1.43-.58,2.29-.58,2.88,0,6.23,2.1,8.21,3.91,3.29,2.98,4.73,7.45,3.6,11.13-.07.23-.16.46-.29.58-.12.1-.31.16-.61.18-.12.01-.24.02-.37.02Z"/><path d="M577.96,860.66c2.57,0,5.8,1.9,7.88,3.78,3.15,2.85,4.54,7.12,3.46,10.61-.08.26-.13.33-.14.34,0,0-.08.05-.33.07-.11,0-.22.01-.32.01-1.91,0-3.72-1.43-5.41-2.89-1.36-1.18-2.77-2.39-4.12-3.64-1.11-1.03-4.48-4.16-4.25-6.26.07-.59.46-1.09,1.19-1.51.58-.34,1.26-.51,2.04-.51M577.96,859.66c-.9,0-1.76.19-2.54.64-4.31,2.5.68,7.33,2.88,9.37,1.35,1.25,2.75,2.46,4.14,3.66,1.76,1.52,3.78,3.13,6.07,3.13.14,0,.27,0,.41-.02.32-.03.65-.09.89-.3.23-.2.35-.51.44-.81,1.27-4.11-.56-8.75-3.74-11.64-1.96-1.78-5.47-4.03-8.55-4.03h0Z"/><path d="M632.39,1058.68c-.65,0-1.3-.04-1.94-.11-6.02-.71-10.94-4.67-16.3-9.39l-17.51-15.41c-4.57-4.03-10.46-10.08-8.76-16.11,1.6-5.7,9.55-8.2,14.81-9.86l.42-.13c6.33-2,12.94-3.01,19.64-3.01,8.7,0,17.37,1.78,25.05,5.13,11.3,4.94,20.86,13.03,30.11,20.86,1.73,1.46,3.3,3.08,3.11,4.95-.21,1.98-2.31,3.25-4.35,4.24l-29.06,14.09c-4.36,2.11-9.79,4.75-15.22,4.75h0Z"/><path d="M622.74,1005.16c8.64,0,17.23,1.76,24.85,5.09,11.23,4.91,20.77,12.98,29.99,20.78,1.62,1.38,3.1,2.87,2.93,4.52-.18,1.74-2.16,2.92-4.07,3.84l-29.06,14.09c-4.31,2.09-9.68,4.69-15,4.69-.63,0-1.27-.04-1.88-.11-5.87-.69-10.73-4.61-16.03-9.27l-8.75-7.7-8.75-7.7c-4.47-3.94-10.23-9.84-8.61-15.6,1.53-5.44,9.32-7.9,14.48-9.52l.41-.13c6.29-1.98,12.84-2.99,19.49-2.99M622.74,1004.16c-6.7,0-13.41,1.02-19.79,3.04-5.28,1.67-13.83,4.21-15.55,10.33-1.83,6.5,4.57,12.79,8.91,16.62,5.84,5.14,11.67,10.27,17.51,15.41,4.86,4.28,10.14,8.75,16.57,9.51.67.08,1.33.12,2,.12,5.36,0,10.55-2.42,15.43-4.79,9.69-4.7,19.37-9.39,29.06-14.09,2.06-1,4.39-2.36,4.62-4.64.23-2.18-1.6-3.97-3.28-5.39-9.39-7.95-18.96-16.01-30.24-20.94-7.94-3.47-16.59-5.18-25.25-5.18h0Z"/><path d="M668.54,1085.7c-3.08,0-5.9-.03-8.63-.09-7.28-.17-15.96-1.8-18.48-5.89-.65-1.05-.81-2.06-.5-3.08,1.05-3.4,7.28-6.16,10.99-7.81.8-.36,1.52-.67,2.09-.95,9.73-4.75,20.07-7.9,30.72-9.37,1.45-.2,3.15-.4,4.86-.4,1.53,0,2.87.16,4.11.5,4.34,1.17,7.87,4.69,10.7,7.52,6.51,6.5,13.07,13.08,19.5,19.56-5.47-.32-11.44-.47-18.19-.47-6.21,0-12.5.13-18.59.25-6.08.12-12.38.25-18.57.25Z"/><path d="M689.59,1058.6h0c1.48,0,2.78.16,3.97.48,4.21,1.14,7.54,4.46,10.48,7.39,6.18,6.17,12.42,12.43,18.58,18.63-5.14-.27-10.59-.4-16.92-.4s-12.51.13-18.6.25c-6.08.12-12.37.25-18.56.25-3.08,0-5.9-.03-8.61-.09-7.15-.16-15.65-1.74-18.07-5.66-.57-.92-.71-1.79-.44-2.67.99-3.19,7.08-5.89,10.72-7.5.82-.36,1.52-.68,2.1-.96,9.68-4.73,19.97-7.87,30.57-9.33,1.43-.2,3.11-.4,4.79-.4M689.59,1057.6c-1.64,0-3.3.18-4.93.41-10.7,1.48-21.16,4.68-30.87,9.42-4.21,2.06-16.62,6.34-12.79,12.55,3.07,4.97,13.83,6.01,18.9,6.13,2.88.07,5.76.09,8.64.09,12.4,0,24.77-.5,37.17-.5,6.48,0,12.96.14,19.47.55-6.79-6.85-13.6-13.68-20.42-20.49-3.18-3.18-6.58-6.48-10.93-7.65-1.38-.37-2.8-.51-4.24-.51h0Z"/><path d="M793.13,1087.55c-3.96,0-6.78-.5-8.63-1.52-1.72-.95-2.59-1.96-2.57-3,.04-2.75,5.91-5.76,9.42-7.55,1.05-.54,1.95-1,2.57-1.38l57.74-35.26c4.95-3.03,10.08-6.15,15.69-7.91,2.91-.92,5.79-1.38,8.56-1.38,3.08,0,5.91.58,8.42,1.73,6.8,3.11,10.67,10.08,12.71,15.38,1.32,3.43,2.29,7.05,3.23,10.55.83,3.1,1.69,6.31,2.8,9.4l.26.71c.88,2.42,1.79,4.92,1.29,7.34-.92,4.43-5.97,6.59-10.04,7.63-8.66,2.2-17.61,2.45-26.27,2.68h0c-11.5,0-23.22.35-34.55.69-7.41.22-15.06.45-22.59.58-1.92.03-4.42.29-7.07.56-3.47.35-7.41.75-10.95.75Z"/><path d="M875.9,1030.04h0c3.01,0,5.77.57,8.21,1.68,6.65,3.04,10.44,9.9,12.45,15.11,1.31,3.4,2.28,7.01,3.21,10.5.83,3.11,1.7,6.33,2.81,9.44l.26.71c.86,2.35,1.74,4.79,1.27,7.07-.87,4.18-5.74,6.24-9.67,7.24-8.61,2.19-17.53,2.43-26.13,2.67-11.53,0-23.25.35-34.59.69-7.4.22-15.06.45-22.58.58-1.94.03-4.45.29-7.11.56-3.46.35-7.38.75-10.9.75-3.87,0-6.62-.48-8.39-1.45-1.06-.59-2.33-1.51-2.31-2.56.04-2.45,5.96-5.49,9.15-7.12,1.05-.54,1.96-1.01,2.6-1.39l57.74-35.26c4.93-3.01,10.02-6.12,15.58-7.86,2.87-.9,5.7-1.35,8.41-1.35M875.9,1029.04c-2.94,0-5.91.52-8.71,1.4-5.64,1.77-10.75,4.88-15.8,7.96l-57.74,35.26c-3.68,2.25-18.3,7.88-9.39,12.8,2.16,1.19,5.35,1.58,8.87,1.58,6.29,0,13.64-1.24,18.03-1.31,19.04-.33,38.12-1.28,57.15-1.28,8.85-.24,17.79-.52,26.38-2.7,4.48-1.14,9.46-3.48,10.4-8.01.58-2.8-.6-5.63-1.56-8.32-2.34-6.54-3.53-13.47-6.03-19.96-2.5-6.49-6.65-12.77-12.97-15.66-2.71-1.24-5.65-1.77-8.63-1.77h0Z"/><path d="M483.35,904.91c-4.39,0-8.71-3.43-11.57-6.02-2.18-1.96-9.27-8.96-9.16-16.6.05-3.29,1.49-6.16,4.29-8.55,1.54-1.32,3.19-2.53,4.79-3.7,1.98-1.46,4.04-2.96,5.93-4.7,2.02-1.85,5.95-4.96,9.54-4.96,1.69,0,3.14.72,4.3,2.13,1.25,1.52,1.51,3.62,1.68,5.81.52,6.58.7,13.27.52,19.86-.09,3.26-.28,6.71-1.48,9.8-1.31,3.35-3.76,5.83-6.58,6.62-.73.21-1.49.31-2.25.31Z"/><path d="M487.17,860.88h0c1.56,0,2.84.64,3.91,1.95,1.16,1.41,1.4,3.42,1.57,5.53.52,6.56.7,13.23.52,19.81-.09,3.22-.27,6.61-1.45,9.63-1.25,3.21-3.58,5.57-6.25,6.32-.69.19-1.4.29-2.12.29-4.22,0-8.43-3.36-11.23-5.89-4.4-3.97-9.08-10.32-9-16.22.04-3.14,1.43-5.89,4.11-8.17,1.53-1.3,3.17-2.51,4.76-3.68,2-1.47,4.06-2.98,5.97-4.74,1.97-1.8,5.78-4.83,9.2-4.83M487.16,859.88c-3.57,0-7.46,2.88-9.88,5.09-3.4,3.12-7.24,5.43-10.7,8.39-9.29,7.92-2.29,19.44,4.86,25.9,3.38,3.05,7.56,6.14,11.9,6.14.79,0,1.59-.1,2.39-.33,3.25-.92,5.68-3.77,6.91-6.92,1.23-3.15,1.42-6.59,1.52-9.97.18-6.64,0-13.29-.52-19.91-.17-2.14-.43-4.42-1.79-6.08-1.36-1.67-2.99-2.31-4.68-2.31h0Z"/><path d="M443.69,871.57c-1.33,0-2.72-.04-4.27-.11-.44-.02-.9-.06-1.13-.3-.21-.21-.27-.62-.18-1.23.86-6.29,8.6-15.62,14.33-18.84,1.31-.74,2.6-1.11,3.82-1.11,1.56,0,3.04.61,4.42,1.82,2.55,2.25,2.48,5.07,2.41,8.35-.01.59-.03,1.19-.02,1.79,0,1.1,0,2.24-.33,3.28-.73,2.2-2.94,3.83-6.58,4.86-3.58,1.01-7.66,1.5-12.45,1.5h0Z"/><path d="M456.25,850.48c1.43,0,2.81.57,4.09,1.7,2.38,2.09,2.31,4.81,2.24,7.96-.01.59-.03,1.2-.02,1.8,0,1.06,0,2.16-.31,3.12-.67,2.03-2.77,3.56-6.25,4.53-3.54,1-7.57,1.48-12.32,1.48-1.32,0-2.71-.04-4.24-.11-.17,0-.68-.03-.79-.15-.01-.01-.14-.16-.05-.81.71-5.14,7.34-14.68,14.08-18.48,1.24-.7,2.44-1.05,3.57-1.05M456.25,849.48c-1.33,0-2.69.41-4.06,1.18-5.69,3.2-13.68,12.62-14.58,19.21-.08.58-.08,1.23.32,1.65.37.37.94.43,1.46.45,1.43.07,2.86.11,4.29.11,4.26,0,8.51-.37,12.59-1.52,2.89-.82,5.98-2.33,6.92-5.18.36-1.1.36-2.28.36-3.43-.02-3.93.66-7.68-2.56-10.51-1.5-1.32-3.1-1.95-4.75-1.95h0Z"/><path d="M534.29,824.71c-4.32,0-8.55-2.96-10.3-7.2-1.46-3.55-1.6-10.56,1.53-13.49,1.24-1.16,3.32-1.75,6.17-1.75,2.65,0,5.46.51,6.98.79,2.69.49,4.71,1.21,6.36,2.26,2.02,1.29,3.44,3.16,3.91,5.13.53,2.21-.06,4.75-1.62,6.95-1.25,1.77-3.07,3.32-5.71,4.88-1.56.92-3.93,2.16-6.49,2.39-.28.02-.55.04-.83.04h0Z"/><path d="M531.68,802.77c2.6,0,5.39.51,6.89.78,2.62.48,4.59,1.17,6.19,2.19,1.91,1.22,3.25,2.98,3.7,4.82.49,2.05-.09,4.49-1.54,6.55-1.21,1.71-2.98,3.22-5.56,4.74-2.41,1.42-4.41,2.16-6.29,2.33-.26.02-.52.03-.78.03-4.12,0-8.17-2.83-9.84-6.89-1.38-3.33-1.52-10.19,1.41-12.93,1.14-1.07,3.11-1.62,5.83-1.62M531.68,801.77c-2.53,0-4.98.45-6.51,1.89-3.28,3.08-3.2,10.29-1.65,14.04,1.77,4.29,6.16,7.51,10.76,7.51.29,0,.58-.01.87-.04,2.39-.21,4.63-1.24,6.7-2.46,2.24-1.32,4.37-2.9,5.87-5.02,1.5-2.12,2.3-4.83,1.69-7.36-.54-2.27-2.17-4.18-4.13-5.43-1.96-1.26-4.25-1.92-6.55-2.34-1.88-.34-4.52-.79-7.07-.79h0Z"/><path d="M652.09,856.69c-1.79-.09-3.12-1.87-3.97-5.3-.64-2.58-1.42-5.18-2.24-7.94-1.64-5.47-3.33-11.12-3.78-16.44-.17-2.02.75-5.39,2.39-7.17.74-.8,1.55-1.21,2.41-1.21.49,0,1.01.13,1.54.4,4.28,2.13,5.71,14.29,6.04,17.97.21,2.35-.2,17.42-2.16,19.56-.05.05-.14.15-.22.15h0Z"/><path d="M646.9,819.12c.41,0,.85.12,1.31.34,3.22,1.6,5.09,10.12,5.77,17.56.25,2.69-.36,17.54-2,19.15-1.83-.21-2.85-2.77-3.37-4.91-.64-2.59-1.46-5.32-2.25-7.97-1.63-5.44-3.31-11.07-3.76-16.34-.16-1.88.73-5.13,2.26-6.79.64-.7,1.33-1.05,2.04-1.05M646.9,818.12c-3.61,0-5.54,6.04-5.3,8.93.68,8,4.11,16.65,6.03,24.46.62,2.51,1.85,5.55,4.43,5.68.01,0,.02,0,.03,0,2.74,0,3.06-18.31,2.88-20.25-.39-4.29-1.87-16.16-6.32-18.37-.62-.31-1.21-.45-1.76-.45h0Z"/><path d="M680.22,838.05c-.9,0-1.78-.11-2.63-.32-.89-8.23-3.78-16.06-6.57-23.62-2.68-7.27-5.46-14.8-6.4-22.58-.67-5.54,1.42-8.9,4.75-12.25,1.08-1.08,2.23-2.13,3.34-3.14,1.57-1.43,3.19-2.9,4.66-4.51.83-.91,1.6-1.94,2.34-2.95,1.41-1.89,2.86-3.85,4.76-5.06,1.56-1,3.53-1.48,6.03-1.48.7,0,1.43.04,2.24.11,1.37.13,2.78.36,3.83,1.16,1.29.98,1.85,2.68,2.4,4.32l.22.66c1.71,4.99,4.74,9.41,7.67,13.69.96,1.41,1.96,2.86,2.89,4.31,4.78,7.45,6.62,13.53,5.78,19.14-.94,6.31-5.44,11.61-9.25,15.53-4.05,4.17-8.48,8.03-13.15,11.49-3.19,2.36-8,5.5-12.91,5.5h0Z"/><path d="M690.5,762.64c.68,0,1.4.04,2.2.11,1.3.12,2.63.33,3.58,1.06,1.17.89,1.68,2.44,2.23,4.08.07.22.15.45.22.67,1.74,5.05,4.78,9.51,7.73,13.81.96,1.4,1.95,2.85,2.88,4.29,4.71,7.34,6.53,13.32,5.71,18.8-.92,6.17-5.35,11.39-9.11,15.25-4.04,4.15-8.44,7.99-13.09,11.43-3.13,2.32-7.85,5.4-12.62,5.4-.74,0-1.47-.08-2.17-.23-.94-8.16-3.79-15.9-6.56-23.39-2.67-7.25-5.44-14.74-6.37-22.47-.57-4.69.68-7.9,4.61-11.84,1.07-1.07,2.22-2.12,3.33-3.12,1.58-1.43,3.21-2.92,4.69-4.55.84-.93,1.62-1.97,2.37-2.98,1.38-1.85,2.8-3.77,4.63-4.94,1.48-.94,3.36-1.4,5.76-1.4M690.5,761.64c-2.23,0-4.44.37-6.3,1.56-3.01,1.92-4.84,5.49-7.2,8.09-2.49,2.74-5.38,5.03-7.98,7.64-3.76,3.77-5.55,7.27-4.89,12.66,1.94,16.03,11.36,30.3,13,46.54,1.03.29,2.06.42,3.09.42,4.68,0,9.32-2.71,13.21-5.59,4.71-3.48,9.13-7.35,13.22-11.54,4.35-4.46,8.46-9.64,9.38-15.8,1.02-6.86-2.11-13.65-5.86-19.49-3.75-5.84-8.25-11.33-10.5-17.89-.65-1.9-1.2-4-2.79-5.22-1.15-.88-2.65-1.13-4.09-1.26-.75-.07-1.52-.12-2.29-.12h0Z"/><path class="cls-3" d="M224.86,601.6c.27-5.6.54-11.2.8-16.8.15-3.14.3-6.28.18-9.42-.29-7.68-2.16-15.19-4.03-22.65-.2-.82-.45-1.69-1.11-2.21-.63-.5-1.51-.56-2.31-.45-.23.03-.47.08-.62.25-.16.17-.19.43-.2.66-.89,10.98-1.4,21.99-1.54,33.01-.07,5.51-.04,11.02.08,16.53.08,3.57-.69,9.86,3.47,11.73,4.99,2.24,5.13-7.83,5.27-10.65Z"/><path class="cls-3" d="M294.68,580.85c-.54,1.43-1.08,3.32.12,4.26.37.29.84.41,1.3.49,3.92.71,7.88-.79,11.5-2.45,5.55-2.54,10.89-5.52,15.97-8.91,1.9-1.27,3.99-3.08,3.66-5.35-.34-2.35-3.02-3.47-5.31-4.1-4.4-1.21-8.86-2.23-13.35-3.05-2.94-.54-6.27-1.17-8.95.59-2.25,1.47-3.06,4.03-3.28,6.59-.35,4.16-.16,7.92-1.66,11.93Z"/><path class="cls-3" d="M274.91,623.8c1.77,5.66,3.64,11.28,5.61,16.87.14.41.29.83.57,1.15.79.93,2.24.81,3.43.53,6.36-1.5,12-5.41,16.22-10.4,4.22-4.99,7.09-11.01,9.02-17.25,1.26-4.07,2.14-8.26,2.62-12.5-1.15-2.6-4.09-3.78-6.92-3.55s-5.42,1.61-7.92,2.96c-5.4,2.91-10.8,5.83-16.2,8.74-1.45.78-2.95,1.61-3.9,2.94-.6.84-.95,1.84-1.29,2.82-.75,2.16-.48,5.52-1.23,7.67Z"/><path class="cls-3" d="M241.3,591.7c-.45,3.3-.93,7.21,1.55,9.44,2.46,2.21,6.31,1.33,9.42.22,3.61-1.29,7.17-2.73,10.66-4.32,4.3-1.95,8.67-4.26,11.39-8.12,2.12-3.01,3.03-6.68,3.73-10.3,1.71-8.83,2.39-18.08-.06-26.73-.68-2.39-1.62-4.77-3.24-6.66-1.86-2.17-4.46-3.55-7.06-4.75-8.38-3.85-17.4-6.32-26.58-7.27-13.97-1.45-14.19,10.11-7.81,18.6,8.24,10.96,9.78,26.61,7.99,39.9Z"/><path class="cls-3" d="M273.59,528.01c8.35,3.56,18.85,5.43,25.87-.33,3.52-2.88,5.53-7.29,6.33-11.76,2.44-13.53-5.11-26.65-12.36-38.34-1.42-2.28-2.87-4.61-4.96-6.3s-4.97-2.65-7.51-1.79c2.84,5.31,1.76,12.03-1.23,17.27s-7.62,9.29-12.17,13.24c-3.65,3.17-19.09,12.73-16.19,18.22,1.51,2.85,7.62,3.38,10.35,4.47,3.99,1.59,8.02,3.41,11.86,5.33Z"/><path class="cls-3" d="M323.57,632.03c-1.24,4.49-1.41,9.22-1.25,13.88.4,11.77,2.85,23.47,7.21,34.42.9,2.25,1.94,4.56,3.83,6.08,4.19,3.38,10.91,1.22,14.12-3.11s3.8-10.01,4.08-15.39c.47-8.97.39-17.96-.13-26.92-.44-7.54.22-18.28-3.12-25.2-7.69-15.96-22.48,8.05-24.74,16.24Z"/><path class="cls-3" d="M387.82,611.85c1.27,3.63.9,7.6.42,11.41-.95,7.54-2.3,15.04-4.03,22.44-.56,2.39-1.92,5.35-4.36,5.1-4.38-9.49-5.73-19.92-7.83-30.06-1.64-7.96-4.6-15.68-5.58-23.76-.72-5.98-1.62-9.45,3.56-5.58,5.41,4.05,15.54,13.94,17.82,20.46Z"/><path class="cls-3" d="M396.47,602.15c2.31,3.67,4.89,7.41,8.73,9.43,2.25,1.18,4.79,1.69,7.31,2.07,4.79.71,9.64,1.01,14.48.87,1.16-3.26,2.24-7.15.21-9.95-.73-1.01-1.79-1.73-2.81-2.44-5.32-3.66-10.49-7.53-15.49-11.61-3.95-3.21-10.13-11.47-14.91-12.83-15.19-4.31-.05,20.44,2.49,24.46Z"/><path class="cls-3" d="M474.47,586.43c2.83.02,6.41-.59,7.08-3.34.51-2.09-1.11-4.06-2.66-5.55-13.13-12.7-29.59-21.3-45.8-29.71-6.96-3.61-20.3,2.4-24.45,8.94-5.33,8.39,1.4,13.59,8.48,17.3,17.52,9.18,37.77,12.26,57.36,12.36Z"/><path class="cls-3" d="M311.19,538.83c-.75.82-1.54,1.84-1.28,2.92.25,1.02,1.32,1.59,2.28,2.02,6.65,2.97,13.4,5.75,20.21,8.33,4.01,1.52,9,2.81,12.21-.04,2.69-2.4,2.66-6.78,1-9.98s-4.55-5.53-7.24-7.94c-3.45-3.09-8.79-12-14.23-9.68-2.72,1.16-4.24,4.78-6.06,6.95-2.17,2.59-4.61,4.94-6.9,7.43Z"/><path class="cls-3" d="M246.24,419.99c-5.91,11.63-13.61,22.36-22.73,31.69-1.34,1.37-2.75,2.77-3.46,4.54-.55,1.36-.65,2.85-.73,4.32-.87,15.58-.13,31.25,2.2,46.68.34,2.24.92,4.78,2.9,5.88,2.01,1.11,4.52.2,6.51-.95,3.12-1.81,5.91-4.19,8.18-6.99,7.55-9.32,18.11-17.68,22.96-28.66s6.56-23.37,4.49-35.19c-.36-2.04-1.17-4.43-3.19-4.89-6.91-1.57-11.41-12.24-17.13-16.43Z"/><path class="cls-3" d="M230.17,391.69c.6-2.87,1.12-5.85.46-8.7-1.16-5.03-5.63-8.49-9.81-11.52-.31-.22-.65-.46-1.03-.43-.8.05-1.05,1.1-1.08,1.91-.39,11.32-.6,22.65-.63,33.97,0,2.45-1.61,13,1.83,13.79,2.68.62,4.91-9.43,5.63-11.66,1.85-5.7,3.39-11.5,4.61-17.37Z"/><path class="cls-3" d="M262.44,327.46c-4.98,2.62-9.95,5.25-14.93,7.87-3.99,2.1-8.15,4.36-10.63,8.13-3.97,6.03-2.51,14.03-.34,20.91,2.61,8.25,6.06,16.28,10.8,23.52,10.63,4.44,22.52,7.01,33.66,4.08,8.36-2.2,15.53-7.44,22.48-12.57,1.2-.88,2.42-1.79,3.26-3.02.58-.84.96-1.81,1.28-2.78,2-6.02,1.9-12.51,1.79-18.85-.02-1.38-.18-3-1.37-3.71-8.91-5.26-10.71-17.79-12.53-27.97-.44-2.44-.71-4.94-1.64-7.23-.93-2.3-2.67-4.42-5.05-5.1-3.58-1.03-7.15,1.41-10.08,3.71-4.93,3.86-11.15,10.1-16.69,13.02Z"/><path class="cls-3" d="M345.4,519.84c4.44-21.16-2.07-42.91-8.51-63.55-5.89-18.88-11.79-37.76-17.68-56.64-.71-2.29-1.71-4.88-3.98-5.65-1.64-.56-3.43.05-5.05.64-10.1,3.72-31.29,7.06-36.8,17.52-5.84,11.1,9.38,24.74,15.35,32.89,9.33,12.74,18.77,25.41,28.31,37.99,4.86,6.42,9.76,12.81,14.67,19.19,1.88,2.44,14.23,15,13.69,17.6Z"/><path class="cls-3" d="M796.19,971.57c-23.17,15.36-46,31.22-68.48,47.57-6.75,4.91-14.04,10.78-15.1,19.07-.95,7.43,3.49,14.41,8.15,20.27,7.46,9.36,16.04,17.83,25.5,25.16,7.35-5.64,14.69-11.27,22.04-16.91,25.63-19.66,52.33-39.84,83.82-47.03,6.53-1.49,14.82-4.14,15.1-10.83.1-2.34-.94-4.57-1.99-6.67-6.19-12.36-13.67-24.08-22.26-34.91-3.44-4.34-7.5-8.8-12.94-9.84-5.51-1.05-10.97,1.68-15.89,4.38-18.8,10.36-37.07,21.68-54.7,33.92"/><path class="cls-3" d="M343.32,727.44c.21,10.24.42,20.47.63,30.71.08,4.06.16,8.13-.4,12.15-.41,2.89-1.15,5.75-1.13,8.66.02,2.87.76,5.68,1.53,8.44,1,3.6,2.05,7.18,3.15,10.75.2.67.45,1.38,1.03,1.77.69.46,1.62.28,2.42.05,4.44-1.25,8.69-3.51,11.74-6.98,3.05-3.47,4.78-8.22,4.04-12.78-.58-3.58-2.57-6.74-3.94-10.09-3.78-9.26-2.79-19.65-2.91-29.65-.09-7.34-.7-18-6.08-23.7-7.5-7.95-10.19,5.37-10.09,10.67Z"/><path class="cls-3" d="M378.05,723.45c1.49,7.29,2.98,14.57,4.73,21.79,2.25,9.27,5.06,18.7,10.8,26.01,1.57,2,3.94,3.97,6.21,3.03,1.71-.71,2.54-2.82,2.77-4.77,1.05-8.75-5.91-15.98-8.77-24.24-1.79-5.18-1.96-10.82-2.34-16.33-.49-7.09-1.38-14.15-2.66-21.13-.75-4.1-.72-10.94-5.67-11.38-12.08-1.07-6.36,20.73-5.08,27.01Z"/><path class="cls-3" d="M376.64,828.9c2.63,2.27,5.92,3.62,9.2,4.78,10.54,3.74,21.61,5.96,32.78,6.57,2.54.14,5.2.17,7.48-.97,2.27-1.14,3.98-3.82,3.18-6.23-.78-2.35-3.55-3.5-6.03-3.42s-4.83,1.04-7.26,1.56c-6.55,1.41-13.47-.56-19.24-3.98-5.76-3.42-11.39-11.69-18.19-12.86-8.94-1.53-6.18,10.89-1.93,14.55Z"/><path class="cls-3" d="M425.89,806.88c4.56.83,9.16,1.56,13.79,1.68,1.36.03,2.75,0,4.02-.47s2.41-1.5,2.68-2.83c.52-2.54-2.08-4.53-4.35-5.77-5.77-3.16-17.9-12.05-24.94-8.61-3.26,1.59-7.14,7.05-4.96,10.37,2.53,3.87,9.66,4.89,13.76,5.64Z"/><path class="cls-3" d="M420,764.23c2.5,2.39,5.83,4.58,9.19,3.77,1.76-.43,3.21-1.62,4.6-2.77,8.06-6.72,16.12-13.45,24.19-20.17,1.88-1.57,3.89-3.36,4.21-5.79.41-3.09-2.27-5.9-5.26-6.76s-6.19-.25-9.24.36c-6.34,1.29-12.66,2.62-18.98,4-4.77,1.05-10.23,1.75-14.23,4.82-8.55,6.57-.17,17.09,5.52,22.53Z"/><path class="cls-3" d="M414.08,650c-1.81,2.42-3.57,5.12-3.65,8.14-.09,3.24,1.8,6.25,4.22,8.41s5.36,3.61,8.14,5.26c12.59,7.45,22.57,19.23,27.84,32.88,1.54,3.99,2.9,8.41,6.39,10.87.98.69,2.13,1.2,3.32,1.18,3.72-.05,5.49-4.86,4.8-8.51-1.25-6.63-6.79-11.44-11.12-16.62-7.97-9.53-12.32-21.33-17.43-32.5-2.33-5.08-4.8-12.03-8.79-16.06-5.39-5.45-10.7,2.9-13.73,6.95Z"/><path class="cls-3" d="M489.34,702.73c-2.87,5.5-5.69,11.28-5.85,17.48,5.14,1.33,10.57-.99,14.83-4.16,4.26-3.17,7.84-7.21,12.27-10.14,2.89-1.91,6.12-3.33,8.74-5.61s4.58-5.76,3.79-9.13c-1.38-5.88-12.44-15.89-18.79-12.68-3.8,1.92-5.76,7.31-7.72,10.81-2.49,4.44-4.92,8.92-7.27,13.44Z"/><path class="cls-3" d="M481.04,760.3c1.31,6.11,4.76,11.6,6.03,17.71.36,1.72.58,3.58,1.74,4.9,1.34,1.53,3.63,1.91,5.61,1.45s3.71-1.62,5.37-2.79c2.71-1.91,5.36-3.92,7.95-6.01,4.63-3.75,9.39-8.5,9.47-14.46.02-1.25-.2-2.55-.88-3.6-.78-1.2-2.08-1.96-3.32-2.67-4.41-2.52-8.82-5.03-13.23-7.55-3.39-1.94-8.18-6.07-12.13-6.51-8.83-.97-7.68,14.46-6.59,19.51Z"/><path class="cls-3" d="M278.04,290.86c9.41-20.93,7.21-47.46-5.48-66.22-1.49-2.2-3.34-4.45-5.82-4.88-3.38-.58-6.3,2.37-8.81,4.91-7.43,7.49-16.35,13.22-25.97,16.66-1.77.63-3.69,1.29-4.79,2.93-.8,1.19-1.02,2.7-1.21,4.16-2.76,20.83-6.82,47.65-2.54,68.46,3.81,18.52,27.71,4.19,36.23-2.51,7.74-6.09,14.2-14.15,18.4-23.51Z"/><path class="cls-3" d="M248.18,212.81c6.07-7.05,9.09-16.65,8.14-25.91-.56-5.44-2.4-10.66-4.24-15.81-3.38-9.52-6.77-19.05-10.15-28.57-3.82-10.75-7.69-21.61-13.87-31.21-1.07,25.71-2.14,51.43-3.2,77.14-.26,6.31-.52,12.62-.79,18.93-.14,3.41-2.13,12.21.44,15.14,5.49,6.28,19.95-5.41,23.66-9.72Z"/><path class="cls-3" d="M266.41,144.37c1.28,3.86,2.64,7.87,5.5,10.76,4.76,4.82,12.4,5.31,19.1,4.25,5.01-3.33,7.28-10.25,5.24-15.9-2.72-7.5-14.05-22.69-22.85-23.61-14.19-1.48-9.46,17.05-6.98,24.5Z"/><path class="cls-3" d="M250.22,106.46c3.46,1.45,7.28,1.77,11.02,2.07.77.06,1.59.12,2.29-.23.94-.47,1.39-1.54,1.66-2.55,2.21-8.2-2.85-16.5-8.21-23.09-5.55-6.82-11.7-13.16-18.36-18.91-1.83-1.58-3.66-2.85-6.09-2.35-3.81,15.75.67,37.95,17.69,45.07Z"/><path class="cls-3" d="M290.93,101.37c3.33,5.8,7.97,12.81,14.59,11.87,2.53-.36,4.71-1.9,6.76-3.42,15.99-11.84,30.7-25.4,43.81-40.36,5.79-6.6,11.4-13.74,13.74-22.21-20.41-.52-40.83-.82-61.26-.89-4.11-.01-8.3,0-12.21,1.26-3.72,1.2-6.98,3.47-10.18,5.7-8.01,5.59-22.33,11.34-14.52,22.31,6.24,8.77,14.34,15.9,19.26,25.74Z"/><path class="cls-3" d="M308.3,131.06c-.5,6.9,2.77,13.47,6.1,19.53,4.03,7.34,8.69,14.96,16.21,18.65,7.05,3.46,15.63,2.78,22.83-.35s13.22-8.49,18.56-14.24c9.55-10.28,17.38-22.15,23.09-34.97,2.46-5.53,4.73-11.51,9.45-15.3,5.48-4.39,9.27-11.02,9.36-18.04.09-7.02-2.72-13.86-6.85-19.54-2.04-2.81-4.64-5.52-8.03-6.27-5.59-1.23-10.69,3.15-14.8,7.13-22.63,21.94-49.83,45.72-75.92,63.4Z"/><path class="cls-3" d="M280.94,214.34c1.01,3.36,2.18,6.75,4.33,9.52,2.8,3.61,6.98,5.84,11.08,7.86,12.39,6.11,26.37,11.43,39.76,8.04,3.53-.89,7.06-2.51,9.19-5.46,4.51-6.27.77-15.03-3.68-21.33-9.42-13.33-22.22-25.2-25.9-41.1-.23-.99-.46-2.06-1.2-2.75-.84-.78-2.08-.86-3.23-.89-7.96-.2-30.84-2.3-35.58,5.8-2.56,4.38-.09,13.9.53,18.57.99,7.36,2.56,14.65,4.7,21.76Z"/><path class="cls-3" d="M399.14,143.67c-9.72,10-20.49,18.99-32.07,26.76-5.65,3.79-11.68,7.49-15.28,13.27-6.36,10.22-3.15,23.67,2.14,34.49,7.27,14.85,18.52,28.25,33.45,35.36,8.98-2.02,16.77-8.36,23.21-14.94,22.19-22.7,37.49-52.05,43.4-83.24,3.64-19.22-7.35-39.67-24.33-49.38-9.53,12.37-19.64,26.48-30.52,37.68Z"/><path class="cls-3" d="M415.41,250.5c-4.86,7-14.26,11.42-15.32,19.88-.64,5.14,2.73,9.83,5.92,13.91,3.69,4.72,7.39,9.45,11.08,14.17,2.21,2.82,4.65,5.81,8.1,6.76,4.9,1.36,9.82-1.84,13.75-5.08,8.54-7.03,16.25-15.07,22.93-23.89,1.58-2.09,3.13-4.27,3.86-6.79,2.29-7.88-3.87-15.39-8.59-22.1-3.78-5.37-6.86-11.22-9.15-17.36-1.09-2.92-3.44-6.63-6.31-5.4-.95.41-1.59,1.3-2.19,2.14,0,0-19.26,16.81-24.09,23.76Z"/><path class="cls-3" d="M309.06,254.95c-3.07-1.89-7.32.56-8.63,3.91s-.56,7.13.2,10.65c2.94,13.57,5.88,27.15,8.82,40.72.66,3.05,1.33,6.12,2.64,8.95,4.82,10.34,17,14.97,28.29,16.57,15.98,2.25,32.52.35,47.57-5.46,5.06-1.95,10.22-3.87,14.07-7.68,2.36-2.33,4.45-5.25,4.58-8.56.08-2.06-.6-4.07-1.38-5.99-3.75-9.23-9.74-17.35-15.79-25.26-8.81-11.52-17.88-22.83-27.21-33.93-17.18,4.09-38.15,15.36-53.17,6.08Z"/><path class="cls-3" d="M470.7,627.4c.28.86.99,1.51,1.71,2.05,3.49,2.63,7.88,3.69,11.87,5.48,15.55,6.97,24.39,24.81,40.33,30.84,3.31,1.25,7.71,1.64,9.78-1.23.86-1.2,1.11-2.73,1.12-4.21,0-6.34-4.03-11.96-8.5-16.47-8.05-8.12-18.11-14.19-28.98-17.67-2.94-.94-30.14-7.29-27.33,1.22Z"/><path class="cls-3" d="M527.09,616.36c-.1,2.69,2.44,4.65,4.79,5.96,5.01,2.78,10.43,4.86,15.12,8.16s8.7,8.21,9.07,13.93c.03.46.05.97.36,1.32.33.38.88.44,1.39.48,8.12.53,17.48-2.45,20.53-10,3.08-7.62-1.89-16.58-8.97-20.76-7.13-4.21-16.41-5.71-24.41-4.13-4.36.86-17.6-2.2-17.88,5.04Z"/><path class="cls-3" d="M574.4,660.35c2.72,5.02,7.3,8.87,9.86,13.98,1.14,2.28,1.89,4.82,3.55,6.75s4.71,3.06,6.79,1.59c.59-.42,1.04-1,1.45-1.6,3.61-5.31,3.97-12.66.9-18.29-2.5-4.59-8.2-12.16-13.71-13.26-6.85-1.37-12.28,4.49-8.84,10.83Z"/><path class="cls-3" d="M541.11,680.85c0,2.26.03,4.61,1.07,6.62,1.08,2.08,3.1,3.49,5.09,4.73,1.87,1.16,4.05,2.28,6.16,1.67,2.59-.74,3.79-3.68,4.42-6.3.89-3.68,1.35-7.6.19-11.2-1.36-4.23-5.59-8.11-10.17-7.07-5.63,1.29-6.76,6.64-6.76,11.55Z"/><path class="cls-3" d="M546.71,713.54c.63,2.49.79,5.11.45,7.66-.1.8-.26,1.62-.05,2.41s.88,1.51,1.69,1.47c.75-.04,1.29-.7,1.74-1.29,3.01-4.01,10.65-11,6.06-16.19-5.12-5.79-11.52-.52-9.88,5.95Z"/><path class="cls-3" d="M577.99,719.68c-2.64,2.49-5.1,5.18-7.35,8.02-1.24,1.57-2.45,3.23-2.98,5.16s-.24,4.2,1.19,5.6c1.24,1.22,3.15,1.59,4.86,1.25s3.24-1.28,4.58-2.39c3.95-3.26,6.49-8.13,7.11-13.2.78-6.37-1.95-9.62-7.41-4.45Z"/><path class="cls-3" d="M369.13,348.24c-11.84,2.2-24.17,1.72-35.81-1.37-2.04-.54-4.7-.94-5.81.85-.38.61-.47,1.35-.54,2.07-1.02,10.46-.06,21.11,2.83,31.22.99,3.45,2.22,6.9,4.34,9.8,2.38,3.26,5.74,5.64,9.03,7.97,4.18,2.95,8.39,5.92,13.06,7.99s9.9,3.2,14.93,2.29c6.52-1.17,13.68.61,19.49-2.56,8.06-4.41,11.45-14.11,13.48-23.07,2.71-11.99,4.21-24.26,4.47-36.55.03-1.43.03-2.93-.63-4.2-.86-1.66-2.64-2.6-4.31-3.43-3.05,1.04-6.26,1.86-9.31,2.9-2.88.98-5.77,1.97-8.75,2.56-1.65.32-3.31.52-4.98.72-3.15.38-8.36,2.23-11.48,2.81Z"/><path class="cls-3" d="M420.54,368c-2.68,5.78-4.57,12.52-2.23,18.45,1.02,2.57,2.77,4.79,4.63,6.84,9.7,10.65,23.29,17.68,37.59,19.44,2.25.28,4.7.38,6.57-.9,2.13-1.45,2.86-4.35,2.43-6.89s-1.8-4.8-3.17-6.98c-7.25-11.55-15.11-22.71-23.55-33.42-2.4-3.05-8.42-13.59-12.8-12.62s-7.76,12.38-9.48,16.08Z"/><path d="M626.67,803.71c-.13,0-.3-.06-.47-.11l-23.76-7.96c-2.32-.78-4.5-1.63-5.57-3.44-1.55-2.63,0-6.17,2.41-8.07,2.03-1.6,4.56-2.49,7-3.34,1.49-.52,3.03-1.06,4.46-1.76,2.52-1.23,4.38-2.83,6.56-5.02,2.08-2.08,6.16-5.58,10.03-5.58,2.63,0,4.69,1.69,6.12,5.03,2.32,5.42,1.51,11.22.43,15.13-1.4,5.04-3.93,9.73-6.38,14.26-.22.4-.48.81-.79.84h-.05Z"/><path d="M627.33,768.93c2.45,0,4.3,1.55,5.66,4.73,2.26,5.29,1.47,10.97.41,14.8-1.38,4.98-3.9,9.65-6.33,14.16-.26.47-.38.57-.39.59-.06,0-.22-.06-.31-.09l-9.92-3.32-13.84-4.64c-2.23-.75-4.31-1.56-5.3-3.23-1.4-2.36.1-5.69,2.29-7.42,1.97-1.55,4.34-2.38,6.85-3.26,1.5-.53,3.06-1.07,4.51-1.78,2.58-1.26,4.48-2.89,6.7-5.11,3.45-3.45,6.98-5.43,9.67-5.43M627.33,767.93c-3.48,0-7.35,2.7-10.38,5.72-2,1.99-3.86,3.66-6.43,4.92-3.77,1.84-8.2,2.52-11.55,5.16-2.59,2.05-4.21,5.87-2.53,8.71,1.2,2.02,3.61,2.92,5.84,3.66,7.92,2.65,15.84,5.3,23.76,7.96.2.07.42.14.63.14.03,0,.07,0,.1,0,.56-.06.91-.61,1.17-1.1,2.5-4.63,5.01-9.3,6.42-14.37,1.4-5.07,1.61-10.63-.45-15.46-1.66-3.87-4.01-5.34-6.58-5.34h0Z"/><path d="M659.69,761.8c-3.1-5.26-3.72-12.24-1.85-20.76.72-3.26,1.54-5.62,2.65-7.64,3.06-5.55,9.5-9.33,16.03-9.42h.1c6.14,0,9.21,7.19,10.25,10.29,1.25,3.72,1.01,7.51-.64,10.4-1.37,2.4-3.67,4.16-6.11,5.89-3.96,2.82-8.07,5.55-12.19,8.11-2.55,1.58-5.29,3.13-8.15,3.13,0,0-.07,0-.1,0Z"/><path d="M676.63,724.48c5.82,0,8.78,6.96,9.78,9.95,1.2,3.58.98,7.23-.6,9.99-1.32,2.32-3.58,4.03-5.96,5.73-3.95,2.82-8.05,5.54-12.17,8.09-2.44,1.51-5.03,2.99-7.7,3.05-2.91-5.12-3.46-11.9-1.64-20.15.71-3.22,1.51-5.53,2.6-7.51,2.97-5.4,9.24-9.07,15.6-9.16h.1M676.63,723.48s-.07,0-.11,0c-6.64.09-13.24,3.83-16.46,9.67-1.33,2.41-2.11,5.09-2.7,7.78-1.58,7.16-1.77,15.1,2.05,21.36.13,0,.26,0,.39,0,3.02,0,5.83-1.6,8.41-3.21,4.16-2.58,8.23-5.29,12.22-8.13,2.38-1.7,4.8-3.51,6.25-6.05,1.85-3.23,1.86-7.28.68-10.81-1.64-4.9-5.06-10.63-10.73-10.63h0Z"/><path d="M587.95,752.61c-.4,0-.8-.03-1.18-.08-.81-.11-1.4-.33-1.78-.69-1.28-1.18-.38-3.5.06-4.44,3.99-8.5,12.16-14.21,19.37-19.26,6.93-4.85,15.55-10.89,19.63-19.71,1.1-2.39,1.86-4.95,2.58-7.42.57-1.94,1.16-3.95,1.92-5.85,1.78-4.48,5.71-9.95,9.75-11.72,1.44-.63,3.14-.95,5.05-.95,3.79,0,8.3,1.31,11.78,3.42,5.24,3.18,9.09,8.67,10.29,14.68.53,2.68.58,5.49.57,8.15,0,3.18-.12,6.25-1.48,8.85-1.85,3.52-5.67,5.51-8.79,6.84-5.72,2.45-11.93,4.02-17.92,5.53-8.14,2.06-16.57,4.19-23.91,8.55-2.03,1.21-3.97,2.59-5.86,3.92-.78.55-1.56,1.11-2.35,1.65-3,2.07-6.14,4-9.34,5.74-2.65,1.45-5.5,2.78-8.38,2.78Z"/><path d="M643.35,683c4.42,0,8.85,1.73,11.52,3.35,5.12,3.11,8.88,8.47,10.06,14.35.53,2.63.57,5.42.56,8.05,0,3.12-.12,6.12-1.43,8.61-1.78,3.38-5.5,5.31-8.54,6.61-5.69,2.43-11.87,3.99-17.85,5.51-8.18,2.07-16.64,4.2-24.04,8.61-2.04,1.21-4,2.6-5.89,3.94-.78.55-1.56,1.11-2.35,1.65-2.99,2.06-6.12,3.98-9.3,5.72-2.59,1.41-5.37,2.72-8.14,2.72-.38,0-.75-.02-1.11-.07-.71-.09-1.2-.28-1.51-.56-1.06-.98-.14-3.2.17-3.86,3.94-8.37,12.05-14.05,19.2-19.06,6.98-4.89,15.67-10.97,19.8-19.91,1.12-2.43,1.88-5,2.61-7.49.57-1.93,1.16-3.92,1.9-5.8,1.75-4.39,5.57-9.73,9.48-11.45,1.38-.6,3.01-.91,4.85-.91M643.35,682c-1.86,0-3.66.3-5.25.99-4.41,1.93-8.33,7.76-10.01,11.99-1.72,4.33-2.53,9.01-4.49,13.24-3.9,8.44-11.85,14.18-19.47,19.51-7.62,5.33-15.58,11.04-19.53,19.46-.76,1.62-1.26,3.8.06,5.02.55.51,1.31.72,2.06.82.42.06.83.08,1.25.08,3.01,0,5.94-1.38,8.62-2.84,3.23-1.76,6.36-3.69,9.39-5.77,2.72-1.87,5.35-3.87,8.18-5.55,12.66-7.53,28.23-8.26,41.77-14.05,3.59-1.53,7.22-3.61,9.04-7.07,1.44-2.74,1.54-5.98,1.54-9.08,0-2.76-.04-5.54-.58-8.24-1.23-6.17-5.14-11.75-10.52-15.01-3.2-1.94-7.79-3.5-12.04-3.5h0Z"/><path d="M628.66,672.27c-1.01,0-2.06-.1-3.22-.3-2.89-.51-5.34-1.48-7.29-2.89-4.79-3.45-7.27-10.35-6.31-17.58.45-3.41,2.11-7.3,5.41-7.99.4-.08.79-.12,1.17-.12,2.64,0,4.67,2.01,6.63,3.96.92.91,1.88,1.86,2.88,2.57,1.28.91,2.74,1.46,4.15,1.99,1.48.56,2.87,1.08,4.06,1.99,2.82,2.15,4.05,5.67,3.29,9.42-.84,4.18-3.94,7.63-7.7,8.6-.94.24-1.97.36-3.06.36Z"/><path d="M618.41,643.88c2.43,0,4.3,1.85,6.28,3.81.94.93,1.91,1.89,2.94,2.63,1.33.95,2.82,1.51,4.26,2.05,1.44.54,2.81,1.06,3.93,1.92,2.7,2.06,3.83,5.31,3.1,8.92-.81,3.99-3.75,7.29-7.33,8.21-.9.23-1.89.35-2.94.35-.98,0-2.01-.1-3.14-.3-2.81-.49-5.19-1.44-7.09-2.8-4.65-3.35-7.05-10.06-6.11-17.11.43-3.24,1.97-6.93,5.02-7.57.36-.08.72-.11,1.07-.11M618.41,642.88c-.41,0-.83.04-1.27.14-3.56.75-5.33,4.81-5.81,8.42-.88,6.66,1.07,14.12,6.52,18.05,2.2,1.58,4.83,2.5,7.5,2.97,1.09.19,2.2.31,3.31.31s2.14-.11,3.19-.38c7.92-2.03,11.57-13.58,4.59-18.9-2.43-1.85-5.71-2.2-8.22-3.99-3.09-2.2-5.66-6.62-9.8-6.62h0Z"/><path class="cls-3" d="M686.19,1013.44c4.6,6.94,14.95,9.44,22.54,6,4.84-2.2,8.25-6.6,11.68-10.66,10.8-12.75,23.86-23.58,38.38-31.85,17.17-9.78,33.59-20.74,50.27-31.34,2.84-1.8,5.87-3.84,6.96-7.02,1.75-5.06-2.11-10.17-5.55-14.27-7.82-9.35-14.77-19.43-20.73-30.07-1.33-2.38-2.72-4.9-5.06-6.31-3.22-1.94-2.32-2.86-5.89-1.7-19.72,6.41-38.75,15.43-55.13,28.15s-30.06,29.25-37.84,48.47c-1.56,3.84-2.9,7.82-5.24,11.24-1.82,2.66-5.34,4.77-5.38,7.99-.1,8.31,6.4,24.46,10.99,31.39Z"/><path class="cls-3" d="M766.66,866.04c-7.45-12.15-15.33-24.04-23.62-35.63-3.06-4.27-6.94-8.93-12.2-9.01-2.79-.04-5.41,1.26-7.79,2.71-11.14,6.76-19.62,17.05-27.87,27.14-3.58,4.39-7.27,8.98-8.54,14.5-.81,3.53-.57,7.21-.13,10.8,1.33,10.92,4.44,21.63,9.18,31.56.67,1.39,1.82,3.01,3.33,2.69.79-.17,1.36-.83,1.87-1.45,9.38-11.25,21.85-19.39,35.1-25.4,6.64-3.01,13.51-5.5,20.46-7.68,2.98-.94,8.04-1.34,10.56-3.14,3.12-2.23,1.45-4.17-.35-7.1Z"/><path class="cls-3" d="M370.77,426.25c-6.25-.7-12.51-1.4-18.76-2.09-.85-.09-1.75-.18-2.52.2-.71.35-1.18,1.05-1.56,1.75-3.41,6.29-1.74,13.99-.17,20.97,2.44,10.87,4.41,21.84,5.92,32.88,1.37,10.07,4.3,19.84,7.97,29.32,1.41,3.65,4.03,7.92,7.9,7.41,2.47-.32,4.21-2.56,5.38-4.76,3.85-7.25,4.51-15.71,5.26-23.89,1.66-18.19,4.09-36.32,7.3-54.3.52-2.93,1.06-5.84,1.41-8.8-2.28-.98-4.9-.54-7.28.11s-8.38,1.48-10.84,1.21Z"/><path class="cls-3" d="M770.41,796.81c-6.96,1.83-14.88,4.46-17.5,11.16-2.21,5.65.33,12.01,3.48,17.19,10.46,17.18,27.71,29.38,38.31,46.48,1.29,2.08,4.67,2.26,6.31.45s1.78-4.51,1.55-6.94c-.46-4.96-2.07-9.72-3.41-14.51-3.05-10.89-4.8-22.14-5.2-33.44-.27-7.87-.07-16.37-4.59-22.82-.74-1.05-1.62-2.05-2.77-2.65-.91-.47-1.94-.67-2.96-.79-4.86-.55-8.48,4.62-13.22,5.86Z"/><path class="cls-3" d="M411.87,526.46c-2.51,1.83-5.05,4.53-4.51,7.58.4,2.25,2.49,3.93,4.73,4.39s4.57-.13,6.67-1.04c1.18-.52,2.34-1.14,3.62-1.35,1.74-.28,3.51.25,5.16.89,5.55,2.15,10.9,5.64,16.85,5.45.8-.03,1.65-.14,2.28-.64.59-.48.89-1.22,1.14-1.94,1.29-3.64,2.16-7.5,1.85-11.34-1.75-21.45-27.85-9.27-37.78-2Z"/><path class="cls-3" d="M447.74,495.04c-2.59,3.54-3.87,8.35-2.14,12.37,2.15,5.01,7.97,7.17,13.24,8.55,17.4,4.58,35.7,6.43,53.47,3.6,2.09-.33,4.25-.76,5.94-2.03s2.76-3.61,1.92-5.55c-.53-1.23-1.7-2.06-2.8-2.82-12.85-8.85-25.44-18.45-38.73-26.61-5.46-3.35-9.43-3.44-14.94-.07-5.52,3.38-12.08,7.27-15.96,12.57Z"/><path class="cls-3" d="M491.33,457.55c-2.09,3.8-2.23,8.35-2.07,12.68.06,1.68.16,3.38.59,5.01.8,3.07,2.73,5.75,5.07,7.89,4.3,3.94,9.88,6.13,15.32,8.23,4.15,1.6,8.31,3.21,12.5,4.7,3.72,1.32,7.96,2.52,11.47.72.56-3.02-.6-6.14-2.32-8.68s-3.99-4.67-6.01-6.98c-5.78-6.61-23.92-42.95-34.55-23.58Z"/><path class="cls-3" d="M395.33,486.1c-.48,3.85-.16,7.81-1.1,11.58-1.54,6.16-6.29,11.17-7.69,17.36-.6,2.65-.35,5.87,1.86,7.44.9.64,2.02.92,3.12.97,3.84.2,7.34-2.05,10.52-4.21,9.4-6.37,24.29-15.69,26.12-28.13,1.71-11.67-10.21-13.65-18.47-15.14s-13.31,1.66-14.37,10.12Z"/><path class="cls-3" d="M904.9,1030.83c.84,7.59,4.84,14.41,8.75,20.97.28.46.74,1,1.24.81.26-.1.41-.37.54-.62,3.62-7.14,3.85-15.46,3.86-23.47,0-3.78,1.5-24.11-6.86-19.37-6.16,3.49-8.21,15.47-7.52,21.68Z"/><path class="cls-3" d="M846.42,943.74c9.68,16.28,19.36,32.57,29.04,48.85,2.7,4.55,6.18,9.61,11.45,10.05,3.3.28,6.41-1.39,9.3-3.01,5.15-2.88,10.29-5.77,15.44-8.65,1.66-.93,3.35-1.88,4.59-3.32,1.72-1.99,2.37-4.68,2.77-7.28.78-5.13.76-10.33.74-15.52-.05-14.8-.09-29.59-.14-44.39,0-2.06.35-4.13-.05-6.15-2.39,1.19-4.54,2.82-6.86,4.16-11.19,6.43-25,5.44-37.58,8.34-10.51,2.42-20.86,9.5-28.69,16.92Z"/><path class="cls-3" d="M833.07,846.98c-2.79,4.49-6.8,8.21-11.49,10.66-1.64.86-3.42,1.6-4.65,3-2.04,2.32-2,5.75-1.79,8.83.69,9.9,2.09,19.74,4.19,29.44.72,3.31,1.53,6.65,3.1,9.65,3.85,7.39,12.46,12.01,20.75,11.13,4.27-.45,8.27-2.2,12.3-3.69,9.97-3.7,20.48-5.97,31.09-6.71,10.98-.76,22.18.09,32.85-2.62,3.58-9.42,4.85-19.67,1.21-29.07-2.06-5.31-5.56-9.92-9.02-14.44-3.65-4.78-7.31-9.56-10.96-14.34-1.55-2.03-3.19-4.13-5.5-5.21-1.92-.89-4.09-.99-6.2-1.06-19.18-.69-37.84-2.11-55.88,4.43Z"/><path class="cls-3" d="M416.48,401.15c1.24,5.78-.25,11.8-2.39,17.31s-4.95,10.78-6.49,16.48c-1.04,3.86-1.49,7.86-1.93,11.84-.41,3.7-.82,7.4-1.23,11.11-.34,3.11,2.97,5.42,5.37,7.43,6.34,5.33,14.12,9.07,22.34,10.11s16.87-.73,23.71-5.41c2.9-1.99,5.45-4.45,7.92-6.96,5.92-6.01,11.53-12.33,16.78-18.93,2.72-3.41,1.41-9.35-1.56-12.55-3.26-3.51-8.47-4.13-13.14-5.2-17.04-3.9-30.76-16.03-45.35-25.68-1.04-.68-2.22-1.39-3.44-1.14s-1.59.86-.6,1.6Z"/><path class="cls-3" d="M607.15,604.36c-4.43-7.27-8.87-14.53-13.3-21.8-4.11-6.73-8.21-13.46-12.72-19.93-3.83-5.5-7.94-10.8-12.32-15.88-3.37-3.92-7-7.77-11.56-10.21-5.17-2.76-11.14-3.48-16.96-4.13-6.36-.71-12.73-1.4-19.1-2.05-11.9-1.22-23.93-1.26-35.85-.28-3.89.32-7.86.79-11.36,2.51s-6.51,4.91-7.01,8.78c-.46,3.61,1.27,7.13,3.29,10.16,2.43,3.64,5.34,6.94,8.23,10.23,5.62,6.37,11.4,12.87,18.87,16.91,9.76,5.27,21.46,5.83,31.44,10.66,3.9,1.89,8.42,2.1,12.5,3.59,19.89,7.28,39.77,14.56,59.66,21.84,2.07.76,4.54,1.48,6.36.22,1.31-.91,1.85-2.64,1.74-4.23s-1.07-5.01-1.91-6.37Z"/><path class="cls-3" d="M839.58,751.43c-10.17,2.18-19.42,7.75-26.99,14.88-2.01,1.89-3.94,3.94-5.16,6.41-1.14,2.31-1.61,4.89-1.85,7.45-.67,7.26.43,14.54,1.53,21.75.92,6.02,1.84,12.04,2.76,18.06.48,3.16,1.01,6.44,2.85,9.05,3.36,4.76,10.16,5.84,15.83,4.5s10.67-4.58,15.98-6.98c8.68-3.92,18.35-5.62,27.84-4.9,5.27.4,10.68-.2,15.79-1.56,1.23-.33,2.48-.73,3.41-1.6,1.07-1,1.54-2.47,1.83-3.91,1.55-7.71-1.09-15.59-3.99-22.9-2.07-5.2-4.29-10.33-6.66-15.39-2.16-4.61-4.5-9.24-8.03-12.9-5.41-5.61-13.04-8.41-20.47-10.77-5.35-1.7-9.2-2.37-14.68-1.2Z"/><path class="cls-3" d="M455.72,195.06c-.8,1.35-1,2.97-1.02,4.54-.16,12.05,9.04,22.18,11.57,33.96.93,4.32,1.1,9.17,4.11,12.41,2.22,2.38,5.81,3.38,8.94,2.49s5.65-3.64,6.27-6.83c.65-3.34-.64-6.7-1.62-9.96-2.22-7.39-2.89-15.15-4.48-22.7-1.26-5.96-3.37-15.63-8.91-19.23-4.48-2.91-12.4,1.15-14.86,5.32Z"/><path class="cls-3" d="M607.49,311.05c1.15,1.26,2.76,2,4.35,2.62,5.02,1.96,10.36,3.08,15.75,3.33.3.01.63.02.89-.14.39-.25.47-.78.51-1.24.71-7.73,1.56-20.46-8.67-22.1-8.57-1.38-20.33,9.34-12.83,17.54Z"/><path class="cls-3" d="M642.75,364.27c1.5,2.97,4.6,4.74,7.6,6.18,3.47,1.67,7.03,3.13,10.59,4.59,2.62,1.08,5.24,2.15,7.86,3.23,1.45.6,2.94,1.2,4.51,1.27s3.26-.52,4.1-1.85c.62-.98.69-2.19.7-3.35.04-9.18-2.96-31.64-14.94-32.6-11-.89-26.53,10.47-20.43,22.53Z"/><path class="cls-3" d="M577.56,253.18c1.08,2.3,2.94,4.69,5.49,4.69,3.14,0-1.17-12.9-3.23-14.07-6.93-3.93-3.69,6.33-2.25,9.38Z"/><path class="cls-3" d="M558.12,256.74c2.61,2.7,5.71,4.93,9.11,6.54,1.09-4.64-3.32-15.12-8.43-16.48-6.76-1.8-3.12,7.41-.68,9.94Z"/><path class="cls-3" d="M537.04,291.4c-.54,2.63-1,5.41-.14,7.94,1.03,3.01,3.79,5.16,6.78,6.23,2.99,1.07,6.22,1.23,9.39,1.37,6.68.3,13.35.61,20.03.91.86.04,1.82.04,2.45-.55.89-.84.56-2.3.16-3.46-2.41-7.08-4.83-14.16-7.24-21.23-.27-.78-.56-1.6-1.19-2.14-.49-.41-1.13-.6-1.75-.76-5.35-1.37-11.62-1.66-15.11-5.94-4.11-5.03-5.62-9.01-8.5-.44-1.99,5.91-3.62,11.95-4.88,18.06Z"/><path class="cls-3" d="M603.77,254.02c1.84,8.08,9.74,14.35,18.03,14.31.7,0,1.46-.07,2-.53.47-.4.66-1.03.82-1.62,1.55-5.56,2.41-11.32,2.56-17.09.11-4.17-.19-8.49-2.13-12.18-1.75-3.32-4.68-5.84-7.53-8.28-2.63-2.24-5.3-4.51-8.44-5.95-4.72-2.17-24.31-3.01-18.94,7.61,2.02,3.99,8.52,4.03,11,8.45s1.5,10.36,2.62,15.29Z"/><path class="cls-3" d="M674.71,267.6c-1.99,2.36-2.74,5.53-3.03,8.6-.05.58-.09,1.18.04,1.75.39,1.72,2.26,2.77,4.02,2.83,1.9.07,3.75-.76,5.23-1.96,1.48-1.2,2.62-2.75,3.68-4.34,1.88-2.82,7.53-10.37,2.21-12.57-3.47-1.43-10.02,3.15-12.15,5.68Z"/><path class="cls-3" d="M654.03,227.05c.67,6.68,1.79,13.31,3.34,19.84.43,1.8,1.29,3.95,3.13,4.11,1.21.1,2.26-.76,3.16-1.57,6.28-5.62,12.44-11.37,18.48-17.25,1.04-1.01,2.1-2.06,2.75-3.36,1.72-3.42.22-7.56-1.68-10.89-3.6-6.3-11.16-13.77-19.25-11.74-8.89,2.22-10.7,13.3-9.94,20.86Z"/><path class="cls-3" d="M725.12,220.82c.4.06.84.09,1.18-.12.29-.18.46-.51.6-.82,4.2-9.33-3.13-22.17-12.97-24.29-3.21-.69-8.7,0-10.54,3.2-2.35,4.06,3.71,8.64,6.13,11.3,4.22,4.62,9.09,9.77,15.6,10.73Z"/><path class="cls-3" d="M481.51,160.2c-1.22-1.08-2.6-2.23-4.23-2.2-2.81.05-4.27,3.45-4.31,6.26-.05,3.15.8,6.32,2.43,9.02,1.39,2.3,3.3,4.24,5.17,6.16,7.24,7.43,14.56,15.63,16.51,25.82.47,2.44.88,5.34,3.09,6.46,1.8.9,4.09.08,5.46-1.4s2.01-3.47,2.58-5.41c1.54-5.32,2.7-11.1.86-16.32-.8-2.28-2.14-4.34-3.56-6.3-3.28-4.55-7.19-9.7-11.78-13.01-1.59-1.15-3.48-1.64-5.08-2.77-2.55-1.81-4.81-4.22-7.14-6.3Z"/><path class="cls-3" d="M498.87,157.84c.78,2.53,2.52,4.64,4.22,6.66,5.69,6.79,11.73,13.81,19.91,17.22,3.1,1.29,6.54,2.02,9.84,1.4s6.43-2.78,7.6-5.93c.26-.71.43-1.47.32-2.22-.25-1.69-1.78-2.83-3.16-3.84-4.25-3.1-8.19-6.61-11.77-10.47-4.77-5.15-9.68-10.82-16.9-12.45-5.7-1.29-11.91,3.61-10.07,9.63Z"/><path class="cls-3" d="M536.8,141.89c-1.92,2.57-.46,6.23,1.21,8.97,3.79,6.2,8.65,11.91,14.87,15.67,6.22,3.76,13.94,5.4,20.93,3.39,3.34-.96,6.77-3.2,7.29-6.63.56-3.7-2.42-6.9-5.25-9.35-6.04-5.22-12.71-10.04-20.35-12.59-4.59-1.53-15.24-4.13-18.71.54Z"/><path class="cls-3" d="M572.6,133.71c-.42.44-.84.93-.97,1.52-.27,1.22.7,2.33,1.61,3.19,10.29,9.61,23.35,16.21,37.19,18.77,5.49,1.02,11.57,1.3,16.23-1.77,1.89-1.24,3.5-3.13,3.78-5.37.34-2.72-1.29-5.28-3.12-7.32-3.05-3.41-6.79-6.07-10.32-8.95s-6.18-7.04-9.97-9.19c-7.94-4.53-13.82-1.78-21.49,1.64-4.52,2.01-9.43,3.87-12.95,7.49Z"/><path class="cls-3" d="M477.62,84.41c-6.71,1.67-13.66,2.91-19.77,5.97-2.33,1.17-4.68,2.8-5.29,5.19-.43,1.7.11,3.48.73,5.13,8.46,22.38,35.12,37.53,60.5,34.38,18.2-2.25,33.96-12.5,48.43-22.97,1.57-1.13,3.17-2.32,4.13-3.93,1.76-2.96.94-6.71-.75-9.71-2.02-3.6-5.15-6.55-8.28-9.38-6.93-6.27-14.14-12.28-21.61-17.99-9.02-6.9-15.98-8.78-24.2-1.22s-22.41,11.68-33.88,14.54Z"/><path class="cls-3" d="M566.23,81.05c5.78,4.62,11.97,9.17,19.45,11.2,7.47,2.02,16.56.92,21.56-4.35,4.41-4.66,4.67-11.57,2.21-17.23-2.46-5.66-7.22-10.3-12.19-14.51-3.92-3.32-8.16-6.53-13.24-8.28-5.33-1.83-11.2-1.93-16.93-2-6.52-.08-36.85-3.61-30.53,8.15,2.66,4.95,10.01,9.99,14.33,13.92s9.82,10.68,15.35,13.1Z"/><path class="cls-3" d="M424.26,66.55c6.43,7.16,14.56,14.98,24.08,13.57,2.96-.44,5.7-1.76,8.39-3.07,11.89-5.78,23.78-11.57,35.67-17.35,4.36-2.12,9.46-5.58,8.66-10.36-.86-5.17-7.6-6.47-12.84-6.56-18.97-.33-38.15-1.53-57.11-1.02-17.07.46-17.07,13.49-6.85,24.79Z"/><path class="cls-3" d="M646.89,163.47c-.86.23-1.64.7-2.36,1.23-2.38,1.76-4.25,4.75-3.44,7.6.81,2.84,3.84,4.36,6.6,5.39,4.52,1.7,9.19,3.03,13.92,3.97,2.56.51,5.18.91,7.78.7.83-.07,1.76-.26,2.19-.97.21-.34.27-.76.27-1.17,0-1.57-.78-3.03-1.67-4.32-2.65-3.85-6.51-6.98-10.87-8.68-1.62-.64-3.28-1.06-4.87-1.81-2.34-1.12-4.86-2.67-7.57-1.93Z"/><path class="cls-3" d="M611.81,182.38c-1.18-.13-2.54-.2-3.37.65-.77.8-.72,2.1-.32,3.13.77,1.95,2.58,3.35,4.55,4.06s4.11.81,6.2.79c1.03-.01,2.29-.22,2.62-1.19.18-.53,0-1.11-.27-1.6-.58-1.1-1.52-1.97-2.48-2.76-2.49-2.03-3.74-2.72-6.94-3.08Z"/><path class="cls-3" d="M577.59,192.44c-1.71-1.03-3.54-1.88-5.48-2.35-4.27-1.02-8.74-.12-12.98,1.01-4.38,1.17-8.7,2.59-13.01,4-1.59.52-3.21,1.06-4.6,1.99-2.92,1.97-4.48,6.07-2.93,9.23.48.98,1.2,1.81,1.97,2.58,2.8,2.78,6.32,4.83,10.12,5.88,5.17,1.43,10.66,1.03,15.95.14s10.5-2.25,15.84-2.71c1.95-.17,3.95-.22,5.75-.97s3.4-2.4,3.41-4.35c0-1.2-.58-2.33-1.23-3.34-2.9-4.49-8.29-8.37-12.82-11.12Z"/><path class="cls-3" d="M514.41,223.09c-7.03,13.82-4.78,31.39,4.11,44.09.91,1.3,1.94,2.61,3.38,3.29s3.38.55,4.36-.71c.45-.58.64-1.31.82-2.01.93-3.59,1.86-7.18,2.79-10.78,1.91-7.41,3.83-14.92,3.93-22.57.08-5.91-.85-15.72-5.76-19.88-5.21-4.41-11.62,4.62-13.64,8.58Z"/><path class="cls-3" d="M485,276.13c-.53,3.23.27,6.52,1.15,9.67,2.83,10.09,6.67,19.9,11.45,29.23.67,1.31,1.42,2.67,2.68,3.42.58.35,1.26.54,1.94.56,2.87.08,4.99-2.98,5.07-5.84s-1.27-5.55-2.43-8.17c-3.42-7.75-5.4-16.05-7.54-24.25-.83-3.16-1.91-9.76-5.42-11.14-3.71-1.46-6.41,3.59-6.89,6.53Z"/><path class="cls-3" d="M741.11,233.94c-2.39-1.13-5.27-.28-7.56,1.06-1.71,1.01-3.3,2.31-4.29,4.04s-1.32,3.9-.53,5.72c.76,1.74,2.42,2.96,4.22,3.58s3.72.73,5.61.79c1.66.05,3.33.07,4.99.09,1.24.02,2.58,0,3.59-.72,1.37-.98,1.64-2.89,1.66-4.58.1-5.7-2.65-7.58-7.71-9.97Z"/><path class="cls-3" d="M723.46,283.78c-1.07.71-2.22,2.06-1.45,3.08,6.68,1.23,13.36,2.45,20.03,3.68,5.56,1.02,11.19,2.06,16.35,4.37,4.3,1.93,8.22,4.72,11.44,8.17,2.45,2.63,4.94,5.87,8.52,6.12,4.76.34,8.07-4.91,8.6-9.65,1.46-12.96-9.12-23.25-21.4-22.85-15.33.5-28.35-2.07-42.1,7.08Z"/><path class="cls-3" d="M729.7,327.01c2.29,1.7,4.13,3.96,6.4,5.7s5.25,2.95,7.97,2.07c8.25-2.64,3.56-12.72-.87-16.3-4.88-3.94-10.39-6.49-16.75-6.64-6.97-.16-11.98-.67-14.99,5.1-2.68,5.15,14.22,7.07,18.24,10.06Z"/><path class="cls-3" d="M438.38,315.11c-2.54,5.06-2.34,11.13-.68,16.54,1.66,5.41,4.65,10.29,7.61,15.11,5.13,8.34,10.25,16.68,15.38,25.02,3.16,5.14,7.41,10.91,13.44,10.79,4.58-.09,8.34-3.74,10.68-7.68,11.17-18.79,1.17-45.38-6.51-63.72-3.14-7.5-7.9-13.68-16.84-12.06-8.07,1.46-19.36,8.58-23.07,15.99Z"/><path class="cls-3" d="M490.14,413.48c1.68,2.96,3.71,6.09,6.95,7.13,2.72.87,5.79.01,8.03-1.74s3.77-4.3,4.83-6.94c3.95-9.78,1.81-31.68-12.61-31.21-17.5.57-12.59,23.29-7.21,32.77Z"/><path class="cls-3" d="M520.13,421.87c-2.33,2.56-4.69,5.22-5.89,8.45s-1.01,7.18,1.38,9.69c3.2,3.37,6.46,3.95,9.5.43,7.63-8.85,29.49-41.18,31.04-50.81,1.04-6.47-3.29-5.01-7.37-1.23-5.89,5.47-23.25,27.55-28.66,33.47Z"/><path class="cls-3" d="M690.22,105.55c.59-5.3-3.77-9.92-8.43-12.51-10.34-5.76-23.17-5.64-33.48-11.45-3.78-2.13-7.26-5.07-11.52-5.92-8.33-1.66-15.95,5.27-20.24,12.6-1.64,2.8-3.05,5.78-3.67,8.97-2.31,11.91,6.71,22.93,16.04,30.68,6.22,5.16,12.88,9.79,19.88,13.83,2.98,1.72,6.21,3.37,9.64,3.18,4.76-.27,8.53-3.97,11.67-7.55,7.43-8.48,18.79-20.01,20.11-31.82Z"/><path class="cls-3" d="M678.57,149.1c-2.56,7.51,2.94,15.29,8.8,20.64,8.84,8.07,19.33,14.32,30.64,18.24,4.04,1.4,8.58,2.49,12.5.76,2.01-.89,3.64-2.44,5.2-3.99,13.09-13.01,24.19-28.02,32.78-44.35.82-1.57,1.65-3.29,1.34-5.03-.38-2.19-2.39-3.66-4.24-4.89-13.35-8.92-37.24-26.21-54.3-17.55-6.26,3.18-9.53,10.37-13.53,15.75-5.27,7.1-16.31,11.95-19.2,20.42Z"/><path class="cls-3" d="M651.8,67.2c15.59,9.12,32.08,18.5,50.14,18.83,2.35.04,4.78-.09,6.88-1.13,2-.99,3.52-2.7,4.96-4.4,6.95-8.21,13.17-17.05,18.55-26.37.64-1.1,1.28-2.41.79-3.59-.4-.96-1.43-1.48-2.4-1.85-4.08-1.54-8.52-1.74-12.87-1.91-22.25-.84-44.52-1.06-66.78-.67-3.81.07-26.3-2.08-26.06,4.55.15,4.21,22.9,14.26,26.8,16.54Z"/><path class="cls-3" d="M728.59,76.62c-1.25,3-2.28,6.53-.75,9.4.94,1.76,2.67,2.92,4.33,4.02,13.19,8.68,26.58,17.45,41.57,22.41,3.26,1.08,6.84,1.96,10.06.78,2.21-.82,3.96-2.51,5.62-4.19,16.08-16.23,30.11-34.49,41.66-54.21-1.08,1.94-28.13-1.68-31.58-1.89-11.03-.66-22.06-1.32-33.08-1.98-8.41-.5-15.8-3.29-22.3,2.58-6.78,6.12-12.03,14.73-15.52,23.08Z"/><path class="cls-3" d="M828.88,87.37c-6.91,10.07-13.83,20.14-20.74,30.21,13.6,13.62,32.1,20.94,50.04,27.89,12.88-12.16,25.76-24.31,38.64-36.47,6.1-5.76,12.36-11.73,15.74-19.41s3.18-17.57-2.74-23.52c-4.43-4.45-11.01-5.84-17.21-6.87-7.85-1.3-15.75-2.33-23.67-3.11-5.31-.52-16.12-3.39-21.04-.59-4.12,2.35-5.49,9.62-7.5,13.53-3.31,6.42-7.43,12.4-11.52,18.34Z"/><path class="cls-3" d="M879.04,149.18c-2.15,1.58-4.49,3.49-4.69,6.15-.18,2.34,1.39,4.42,2.92,6.21,1.94,2.26,3.96,4.44,6.05,6.56,1.81,1.82,3.7,3.62,5.99,4.77,2.16,1.09,4.57,1.56,6.89,2.25,7.62,2.26,14.29,6.87,20.82,11.41.22-10.88.43-21.75.65-32.63.16-8.11,3.81-24.85.54-32.11-4.16-9.25-12.37,5.16-16.41,9-7.07,6.73-14.91,12.61-22.76,18.4Z"/><path class="cls-3" d="M815.09,152.68c8.29,1.95,16.99,2.58,24.76,6.07,7.77,3.49,14.66,10.95,14,19.44-.29,3.69-1.95,7.12-3.62,10.43-9.45,18.72-20.07,36.85-31.78,54.25-2.8,4.16-5.93,8.5-10.59,10.35-8.6,3.41-17.72-2.99-24.76-8.98-10.55-8.98-21.09-17.95-31.64-26.93-1.15-.98-2.34-2-3.04-3.35-2.67-5.14,2.04-13.64-3.17-16.2,12.22-13.21,22.97-27.78,32-43.34,1.84-3.18,3.68-9.17,6.34-11.61,3.84-3.52,3.69-2.3,8.4.33,7.39,4.13,14.8,7.59,23.09,9.54Z"/><path class="cls-3" d="M828.31,274.42c-3.37-12.71,3.72-25.6,10.55-36.84,10.31-16.98,20.63-33.95,30.94-50.93.82-1.34,1.66-2.72,2.94-3.64,1.59-1.14,3.64-1.42,5.59-1.47,13.96-.38,26.25,8.56,37.32,17.08,1.32,1.01,2.68,2.08,3.44,3.56,1.02,1.98.8,4.35.57,6.57-2.26,21.91-2.26,44.06-.02,65.97.29,2.8.6,5.67-.16,8.38-.66,2.34-2.07,4.38-3.51,6.33-9.38,12.71-28.43,39.28-45.65,25.76-13.53-10.62-37.28-22.96-42.01-40.76Z"/><path class="cls-3" d="M910.76,314.23c-3.1,3.36-6.25,6.8-8.1,10.99-4.04,9.15-1.04,19.88,3.41,28.84,3.14,6.31,7.84,12.87,14.82,13.89,1.59-4.33,1.55-9.07,1.5-13.68-.13-10.9-.26-21.81-.39-32.71-.03-2.78,1.36-11.82-1.14-13.78-3.88-3.04-7.6,3.75-10.1,6.45Z"/><path class="cls-3" d="M899.63,390.18c-9.27,19.18-16.05,39.55-20.13,60.46-1.27,6.5-2.17,13.67,1.18,19.39,4.59,7.83,14.95,9.6,23.99,10.39,3.7.32,7.61.58,10.94-1.05,6.55-3.21,7.88-11.82,8.18-19.11.85-20.37.29-40.79-1.66-61.08-.49-5.07-.14-13.04-4.8-16.4-6.91-4.98-14.75,1.3-17.71,7.41Z"/><path class="cls-3" d="M902.83,778.88c-.52-7.78,1.73-15.47,4.37-22.8,3.69-10.26,8.48-20.58,16.86-27.56-1.98,1.65.62,20.39.68,23.57.14,8.38.19,16.77.13,25.15-.11,15.97,1.1,33.59-1.75,49.29-3.32-.65-8.66-17.53-10.88-21.8-4.24-8.16-8.78-16.48-9.41-25.85Z"/><path class="cls-3" d="M912.86,714.78c4.5-3.64,9.48-7.12,12.01-12.33,2.32-4.77,2.25-10.3,2.13-15.59-.06-2.71-.15-5.53-1.43-7.92-2.42-4.51-8.07-5.9-12.48-8.49-4.84-2.83-8.47-7.37-13.14-10.47-7.72-5.12-18.19-5.76-26.47-1.63-8.29,4.13-14.07,12.88-14.62,22.13-.46,7.62,2.39,15.07,6.04,21.78,8.03,14.79,17.42,27.91,24.25,43.3,3.78-2,6.49-11.95,9.38-15.96,4.03-5.59,9-10.5,14.36-14.82Z"/><path class="cls-3" d="M901.31,498.94c-1.95,1.97-3.78,4.12-4.89,6.65-1.09,2.5-1.43,5.27-1.49,8-.28,11.4,3.85,22.39,7.91,33.04.47,1.24.96,2.51,1.78,3.56,1.16,1.48,2.86,2.39,4.52,3.27,4.94,2.61,10,5.25,15.52,6.1-.51-.08-.17-48.76-.31-53.28-.14-4.48-.32-8.97-.52-13.45-.21-4.82.99-7.18-3.81-6.63-6.31.72-14.47,8.46-18.71,12.74Z"/><path class="cls-3" d="M859.08,552.99c-6.8-2.22-15.2-4.29-20.36.66,5.75,5.74,10.87,12.06,15.98,18.37,23.57,29.09,47.19,58.25,67.3,89.83,1.98-7.48,1.98-15.32,1.96-23.05-.05-19.07-.1-38.13-.14-57.2-.02-8.24.67-12.32-8.01-14.19-8.94-1.93-17.91-3.59-26.79-5.81-10.08-2.52-20.07-5.39-29.95-8.62Z"/><path class="cls-3" d="M526.35,332.85c-4.24,2.47-6.34,7.44-7.47,12.22-.96,4.07-1.41,8.46.1,12.37s5.47,7.1,9.62,6.57c3.33-.43,5.92-2.98,8.49-5.14,5.16-4.34,11.34-7.69,15.28-13.16,4.04-5.61,7.09-15.81-2.36-15.81-6.3,0-18.34-.15-23.67,2.95Z"/><path class="cls-3" d="M579.76,404.27c.06,1.13.14,2.3.7,3.28s1.72,1.72,2.81,1.42c.65-.18,1.16-.68,1.62-1.18,3.91-4.27,13.16-22.64,5.25-26.67-9.93-5.07-10.6,18.51-10.38,23.15Z"/><path class="cls-3" d="M602.31,421.47c-.49,4.65-.91,9.47.57,13.9,1.48,4.43,5.4,8.4,10.08,8.42.98,0,2-.18,2.79-.75,1.47-1.07,1.75-3.11,1.9-4.92.86-10.15,1.66-20.36.71-30.5-.4-4.25-4.26-29.8-10.81-22.77-2.81,3.02-2.41,13.33-2.95,17.36-.85,6.41-1.61,12.83-2.29,19.26Z"/><path class="cls-3" d="M643.03,420.56c-1.09.88-2.19,1.78-2.92,2.97-1.45,2.39-1.02,5.59.47,7.95s3.89,4.02,6.37,5.3c2.04,1.05,4.31,1.91,6.58,1.62,1.85-.24,3.52-1.22,5.05-2.28,5.34-3.7,9.72-8.74,12.77-14.47,2.05-3.84,6.99-14.06,4.42-18.36-5.85-9.78-28.3,13.67-32.75,17.27Z"/><path class="cls-3" d="M826.33,308.98c-2.29,7.55.31,15.61,2.48,23.2,3,10.5,5.19,21.23,6.54,32.06.3,2.38,1.55,5.55,3.9,5.02.92-.21,1.59-.98,2.18-1.72,5.22-6.54,9.65-13.72,13.14-21.33,1.99-4.34,3.7-8.88,4.09-13.64.76-9.14-4.43-19.76-11.67-25.46-6.32-4.97-17.67-7.99-20.67,1.87Z"/><path class="cls-3" d="M861.46,375.84c-7.31,8.09-17.81,15.46-17.85,26.36-.01,4.55,1.92,8.85,3.56,13.1,3.82,9.87,6.23,20.29,7.14,30.83,2.35,1.16,4.63-1.66,5.72-4.04,11.31-24.48,20.29-50.03,26.76-76.21,1.59-6.41-1.75-20.04-10.86-13.89-3.52,2.37-4.25,7.57-5.98,11.16-2.21,4.6-5.08,8.9-8.51,12.69Z"/><path class="cls-3" d="M855.32,479.46c-.43,5.69-1.82,11.3-4.1,16.53,6.24,2.25,13.71.63,18.46-4,1.99-1.93,3.55-4.46,3.71-7.23s-1.37-5.73-3.99-6.65c-1.49-.53-3.12-.36-4.7-.26-3.37.22-6.76.13-10.12-.26"/><path class="cls-3" d="M847.99,525.33c-.94.83-1.9,1.72-2.32,2.9-.88,2.46.93,5.11,3.09,6.57,3.08,2.09,6.89,2.76,10.6,3.13,3.67.37,7.37.48,11.06.34,3.75-.14,7.66-.6,10.81-2.64,5.94-3.85,7.32-12.37,4.99-19.06-1.06-3.05-2.92-6.03-5.86-7.36-10.7-4.85-25.33,9.93-32.36,16.12Z"/><path class="cls-3" d="M821.53,485.81c.24,2.34.36,4.75,1.26,6.92s2.8,4.12,5.15,4.32c3.52.29,6.09-3.21,7.53-6.43,4.87-10.91,5.4-23.35,3.57-35.15-1.82-11.8-5.87-23.13-9.9-34.37-.31-.88-1.02-1.95-1.89-1.63-.31.11-.52.39-.72.65-7.61,9.87-13.65,15.1-12.45,28.11,1.18,12.77,6.22,24.83,7.45,37.59Z"/><path class="cls-3" d="M845.41,641.14c.53,3.76,1,7.65,2.85,10.97s5.49,5.96,9.25,5.42c2.03-.29,3.84-1.46,5.37-2.83,7.93-7.06,9.41-18.7,10.37-29.28.61-6.73.72-14.68-4.63-18.81-2.71-2.09-6.25-2.66-9.44-3.86-7.12-2.69-12.53-8.53-17.28-14.48-2.73-3.42-9.04-12.67-14.04-11.09,2.08,10.4,7.81,20.85,10.71,31.22s5.29,21.69,6.84,32.74Z"/><path class="cls-3" d="M811.11,588.49c-7.42,44.35-7.37,89.57-7.29,134.54,0,4.03.02,8.12,1.07,12.02.77,2.85,2.33,5.79,5.09,6.85,1.11.43,2.32.5,3.51.56,11.9.56,23.88-.85,35.33-4.14,2.52-.73,5.13-1.61,6.97-3.47,4.43-4.48,2.5-11.94.28-17.84-7.45-19.8-14.89-39.6-22.34-59.4-3.46-9.19-3.9-19.84-5.61-29.51-1.38-7.76-2.07-15.69-1.89-23.57.04-1.67.11-3.36-.29-4.97-.33-1.3-.95-2.51-1.68-3.64-2.35-3.68-9.16-5.6-13.13-7.41Z"/><path class="cls-3" d="M782.48,597.52c-2.54,1.83-5.27,3.43-7.49,5.63-2.56,2.52-4.33,5.72-5.96,8.92-2.01,3.95-3.88,8.02-4.77,12.36-.17.84-.3,1.72-.08,2.55.62,2.34,3.53,3.1,5.94,3.33,4.04.37,8.1.41,12.15.11,4.06-.3,8.59-1.24,10.82-4.65.92-1.42,1.33-3.1,1.69-4.75,1.29-5.77,2.32-11.6,3.11-17.46.56-4.2,3.19-14.13-2.65-15.21-4.42-.82-9.63,6.93-12.75,9.18Z"/><path class="cls-3" d="M776.11,589.75c-1.59,2.28-3.37,4.71-6.02,5.55-2.27.72-4.73.12-7.03-.48-5.37-1.4-10.74-2.8-16.11-4.21-.3-1.56.66-3.13,1.95-4.06s2.85-1.36,4.37-1.82c7.14-2.19,13.89-5.61,19.87-10.08,3.21-2.4,9.9-8.05,11.35-1.23.98,4.61-5.95,12.86-8.37,16.33Z"/><path class="cls-3" d="M710.87,543.51c1.9,7.91,13.05,9.29,19.66,14.03,5.65,4.06,10.15,10.15,16.84,12.05,6.98,1.98,14.35-1.2,20.53-5,2.98-1.83,5.98-3.96,7.5-7.11,2.22-4.6.71-10.16-1.77-14.62-4.92-8.87-13.24-15.38-22.04-20.42-5.94-3.4-12.3-6.29-19.08-7.24s-16.22-1.69-19.56,4.28c-2.95,5.26-3.48,18.17-2.07,24.04Z"/><path class="cls-3" d="M726.95,776.11c.68,3.71.86,7.69,2.95,10.84,2.48,3.73,7.23,5.44,11.71,5.41s8.81-1.52,13.04-3c8.38-2.92,16.77-5.85,25.15-8.77,2.27-.79,4.6-1.62,6.46-3.15,3.39-2.8,4.59-7.42,5.33-11.75,1.95-11.41,2.05-23.13.29-34.56-1.22-7.9-4.01-16.57-11.15-20.17-4.76-2.4-10.4-1.97-15.71-1.48-13.9,1.29-27.82,2.96-41.74,3.86-7.7.5-15.07-.76-20.56,5.75-12.05,14.3,24.22,40,24.22,57.02Z"/><path class="cls-3" d="M754.91,697.47c8.54,1.16,16.44,6.23,25.05,5.84,1.51-.07,3.08-.34,4.28-1.26,1.22-.94,1.9-2.42,2.37-3.88,1.11-3.43,1.38-7.07,1.64-10.66.9-12.38,1.81-24.76,2.71-37.14.11-1.45.2-2.99-.46-4.29-1.03-2.06-3.51-2.84-5.74-3.42-12.28-3.19-26.27-5.96-36.89.98-3.83,2.5-6.82,6.07-9.68,9.64-6.24,7.81-12.07,15.93-17.73,24.16-2.96,4.31-14.94,17.12-12.99,22.53,3.59,10,39.15-3.63,47.44-2.51Z"/><path class="cls-3" d="M534.92,476.36c-.24,1.62-.45,3.4.41,4.8.7,1.14,1.97,1.77,3.03,2.58,1.27.97,2.27,2.23,3.4,3.36s2.47,2.15,4.03,2.44,3.4-.35,4.06-1.8c.24-.53.31-1.11.36-1.69.53-6.13-1.28-15.22-6.69-19.01-7.27-5.08-7.88,4.37-8.61,9.32Z"/><path class="cls-3" d="M560.27,439.86c-.89,2.38-.84,5-.61,7.53.67,7.27,2.7,14.42,5.96,20.96,1.92,3.85,4.42,7.63,8.19,9.7,3.77,2.06,9.07,1.84,11.79-1.48,1-1.22,1.58-2.75,1.87-4.3,1.37-7.27-3.25-14.3-8.4-19.62-3.46-3.57-7.3-6.83-10.35-10.78-.97-1.25-2.43-5.13-3.78-5.76-2.14-1-3.99,1.95-4.67,3.76Z"/><path class="cls-3" d="M596.87,490.02c-1.32,1.5-2.7,3.1-3.06,5.07-.81,4.36,3.51,7.84,7.43,9.93,22.44,11.94,48.59,14.53,72.45,23.28,3.82,1.4,7.68,2.98,11.75,3.16s8.5-1.36,10.55-4.88c3.12-5.36-.87-12.52-6.4-15.32s-12.03-2.63-18.21-3.12c-14.69-1.17-28.8-6.47-41.25-14.22-6.12-3.81-11.39-9.69-17.66-13.06-7.11-3.81-11.39,4.39-15.58,9.14Z"/><path class="cls-3" d="M638.49,460.59c-1.82,1.29-2.34,3.87-1.79,6.03s1.97,3.98,3.42,5.67c16.73,19.43,42.75,29.37,68.38,30.19,3.87.12,7.92.02,11.36-1.77s6.05-5.73,5.1-9.49c-1.27-5.02-7.4-6.69-12.48-7.66-13.47-2.56-26.71-6.34-39.51-11.26-6.4-2.46-12.69-5.21-18.84-8.23-4.21-2.07-10.8-6.92-15.64-3.48Z"/><path class="cls-3" d="M758.71,490.97c-4.01,1.91-7.66,6.1-6.52,10.39.63,2.37,2.56,4.13,4.39,5.75,4.96,4.38,9.91,8.75,14.87,13.13,3.39,2.99,6.84,6.03,10.94,7.95,2.25,1.05,4.67,1.75,7.13,2.06,1.26.16,2.79.08,3.43-1,.68-1.14-.09-2.58-.86-3.66-2.3-3.23-4.85-6.34-6.45-9.96-1.96-4.42-2.41-9.35-3.74-13.99-3.29-11.47-12.28-15.86-23.19-10.66Z"/><path class="cls-3" d="M783.49,484.68c.94,3.57,3.71,6.33,5.54,9.53,1.49,2.61,2.37,5.53,3.84,8.14,2.74,4.87,7.35,8.37,11.83,11.72,1.86,1.39,3.75,2.8,5.92,3.61.79-5.74-.64-11.53-2.06-17.15-1.61-6.38-3.22-12.76-4.83-19.14-1.12-4.42-1.51-12.35-5.43-15.34-8.1-6.19-16.93,12.31-14.82,18.63Z"/><path class="cls-3" d="M802.1,309.43c-4.58-.85-8.67,3.05-10.99,7.09-3.05,5.3-4.58,11.94-2.19,17.57,1.21,2.86,3.32,5.23,4.94,7.88,2.24,3.69,3.51,7.87,4.65,12.03,4.27,15.49,7.25,31.32,8.92,47.3.11,1.07.28,2.25,1.12,2.92.71.56,1.69.58,2.6.58,3.01-.02,6.03-.04,9.04-.05,2.18-19.35-.49-39.2-7.4-57.41-1.08-2.84-.91-6.12-1.25-9.14-.21-1.86-.29-3.73-.58-5.57-.44-2.74-1.34-5.39-2.24-8.02-1.74-5.07-4.87-10.11-6.61-15.18Z"/><path class="cls-3" d="M766,351.44c-1.28,7.93,3.3,15.46,5.77,23.11,1.13,3.5,1.83,7.12,2.53,10.73,2.63,13.58,5.25,27.16,7.88,40.74,1.41,7.28,6.23,13.63,6.81,21.03-.05-4.77,2.87-9.3,4.45-13.8,2.65-7.53,1.65-15.79.62-23.71-.68-5.18-1.35-10.36-2.03-15.54-1.16-8.87-2.94-17.59-5.73-26.09-1.39-4.23-2.81-8.52-5.25-12.24-2.14-3.27-5.12-6.08-8.76-7.5-2.18-.85-4.47,1.78-6.28,3.28Z"/><path d="M680.74,694.97c-4.82,0-8.52-4.82-11.21-9.02-2-3.14-4.21-6.26-6.54-9.57-5.96-8.45-12.12-17.19-15.03-26.42-1.15-3.63-1.02-6.44.38-8.35,1.6-2.18,4.88-3.29,9.76-3.29,2.8,0,6.08.37,9.73,1.09l42.4,8.42c1.4.28,2.63.58,3.41,1.42,1.27,1.37,1.05,3.67-.67,6.83-6.4,11.78-14.11,22.88-22.92,33-2.52,2.9-5.33,5.61-8.77,5.87-.19.01-.37.02-.56.02h0Z"/><path d="M658.11,638.82c2.77,0,6.01.36,9.64,1.08l21.62,4.29,20.78,4.12c1.32.26,2.46.54,3.14,1.27,1.38,1.49.36,4.22-.74,6.25-6.39,11.75-14.08,22.82-22.86,32.91-2.28,2.62-5.01,5.44-8.43,5.7-.17.01-.35.02-.52.02-4.58,0-8.17-4.7-10.79-8.79-2.01-3.15-4.22-6.27-6.55-9.59-5.94-8.42-12.07-17.13-14.96-26.29-1.1-3.47-.99-6.13.31-7.9,1.5-2.05,4.65-3.08,9.35-3.08M658.11,637.82c-7.36,0-13.7,2.52-10.62,12.28,4.07,12.88,14.42,24.85,21.62,36.11,2.79,4.36,6.57,9.25,11.63,9.25.2,0,.39,0,.59-.02,3.73-.28,6.65-3.22,9.11-6.04,8.84-10.15,16.56-21.26,22.98-33.09,1.27-2.33,2.41-5.46.6-7.41-.92-1-2.35-1.31-3.68-1.57-14.14-2.81-28.27-5.61-42.4-8.42-2.97-.59-6.51-1.1-9.83-1.1h0Z"/><path d="M732.77,640.61c-.27,0-.58-.08-.91-.17-3.52-1.01-7.16-1.86-10.68-2.68-3.74-.88-7.61-1.78-11.34-2.87-10.41-3.05-21.18-6.2-32.27-6.64-1.09-.04-2.24-.06-3.63-.06-1.07,0-2.15.01-3.22.02-1.07.01-2.14.02-3.21.02-2.78,0-6.06-.07-9.31-.61-5.03-.83-9.83-2.77-13.46-4.37-4.03-1.78-8.02-3.79-11.87-5.97-1.96-1.12-3.98-2.36-5.15-4.21-1.05-1.66-1.28-4.19.08-5.67.71-.04,1.69-.24,2.72-.45,1.2-.25,2.44-.5,3.26-.5.12,0,.24,0,.34.02,3.22.43,6.59.65,10.02.65,8.89,0,18.54-1.43,29.52-4.37,1.48-.4,2.96-.81,4.45-1.23,4.31-1.21,8.77-2.46,13.24-3.2,3.8-.62,7.88-.92,12.48-.92s9.27.3,14.78.74c6.81.55,13.43,1.22,19.54,3.39,4.61,1.64,7.43,3.96,8.39,6.9.87,2.65.13,5.59-.79,8.37-2.72,8.21-6.68,15.92-11.77,22.92-.27.37-.54.72-.88.84-.1.03-.21.05-.33.05Z"/><path d="M703.83,597.89c4.63,0,9.24.3,14.74.74,6.78.55,13.36,1.21,19.41,3.36,4.45,1.58,7.17,3.8,8.09,6.58.82,2.51.1,5.36-.79,8.06-2.7,8.16-6.64,15.83-11.7,22.78-.17.23-.43.58-.64.66-.04.02-.1.02-.17.02-.23,0-.54-.09-.77-.15-3.54-1.01-7.18-1.86-10.7-2.69-3.73-.87-7.6-1.78-11.31-2.87-10.44-3.06-21.24-6.22-32.39-6.65-1.09-.04-2.25-.06-3.64-.06-1.08,0-2.15.01-3.23.02-1.07.01-2.14.02-3.21.02-2.76,0-6.01-.07-9.23-.6-4.98-.82-9.74-2.75-13.33-4.34-4.02-1.78-8-3.78-11.82-5.94-1.99-1.13-3.87-2.29-4.98-4.05-.91-1.44-1.16-3.6-.1-4.92.72-.06,1.63-.25,2.58-.44,1.12-.23,2.39-.49,3.16-.49.1,0,.19,0,.27.01,3.24.43,6.63.65,10.09.65,8.93,0,18.63-1.43,29.65-4.38,1.48-.4,2.97-.81,4.45-1.23,4.3-1.21,8.74-2.46,13.19-3.19,3.77-.62,7.83-.92,12.4-.92M703.83,596.89c-4.21,0-8.41.25-12.57.93-6.02.99-11.84,2.86-17.73,4.44-9.59,2.57-19.5,4.35-29.39,4.35-3.33,0-6.65-.2-9.95-.64-.12-.02-.26-.02-.4-.02-1.66,0-4.81.95-6.2.95-1.67,1.61-1.53,4.47-.29,6.43s3.31,3.23,5.33,4.38c3.87,2.19,7.84,4.19,11.91,5.99,4.36,1.93,8.87,3.63,13.58,4.41,3.1.51,6.24.62,9.39.62,2.14,0,4.29-.05,6.44-.05,1.2,0,2.4.02,3.6.06,10.96.43,21.62,3.53,32.15,6.62,7.25,2.12,14.76,3.48,22.02,5.55.34.1.7.19,1.04.19.17,0,.33-.02.49-.08.48-.17.82-.6,1.12-1.01,5.1-7.01,9.12-14.82,11.84-23.06.93-2.81,1.71-5.87.79-8.69-1.21-3.71-5.02-5.91-8.7-7.22-6.29-2.23-13.01-2.88-19.66-3.42-4.92-.4-9.88-.74-14.82-.74h0Z"/><path class="cls-3" d="M569.68,517.24c-1.38,7.72,2.9,15.35,8.04,21.28s11.35,11.07,15.15,17.94c3.21,5.8,4.48,12.48,7.44,18.42,5.02,10.08,15.05,17.5,26.15,19.36,10.5,1.76,21.13-1.21,31.6-3.15,12.77-2.37,25.81-3.24,38.78-2.59,5.39.27,10.85.27,16.09-.98,4.01-.96,8.38-3.03,9.43-7.02.99-3.73-1.39-7.5-3.97-10.37-2.76-3.07-5.9-5.78-9.03-8.48-4.51-3.9-9.01-7.79-13.52-11.69-3.96-3.42-7.94-6.86-12.43-9.57-10.24-6.18-22.38-8.14-34.13-10.36-12.58-2.37-25.09-5.15-37.48-8.35-13.32,1.07-28.76-4.6-42.12-4.45Z"/><path class="cls-3" d="M534.35,476.51c.38,2.49,1.67,4.74,3.05,6.85,1.15,1.75,2.4,3.48,4.07,4.74s3.83,2.02,5.88,1.61c3.89-.78,5.89-5.29,5.9-9.26.01-5.93-3.74-13.31-9.44-15.74-6.75-2.88-10.36,5.99-9.46,11.8Z"/><path class="cls-3" d="M558.66,450.43c2.23,8.09,5.69,15.85,10.23,22.91,2.76,4.29,6.8,8.76,11.89,8.36,4.11-.32,7.41-4.03,8.19-8.07s-.52-8.25-2.59-11.81c-4.58-7.88-12.24-15.1-18.31-21.89-9.05-10.12-11.78,1.86-9.41,10.49Z"/><path class="cls-3" d="M711.47,424.69c8.85,12.05,13.46,26.69,21.44,39.34,1.88,2.98,4.16,6.02,7.49,7.17,5.57,1.94,11.45-2.15,15.14-6.75,2.07-2.58,3.9-5.56,4.08-8.86.23-4.31-2.41-8.31-5.67-11.15s-7.16-4.82-10.63-7.39c-10.8-8-16.28-21.12-26.75-29.33-3.64-2.86-9.84-4.33-12.44,1.04s4.45,11.99,7.34,15.92Z"/><path class="cls-3" d="M719.56,359.23c-3.85,4.33-7.7,8.66-11.55,12.99-2.45,2.76-5.05,5.91-4.9,9.6,3.4.71,6.81-.81,10.03-2.11,6.7-2.71,13.73-4.62,20.88-5.67,2.62-.39,5.36-.7,7.56-2.16,2.68-1.79,4.09-5.05,4.4-8.27s-.34-6.43-.99-9.59c-.23-1.11-.51-2.31-1.39-3.01-.69-.55-1.61-.69-2.49-.76-3.84-.29-7.75.42-11.24,2.04-3.02,1.41-8.1,4.46-10.31,6.95Z"/><g class="cls-2"><path class="cls-1" d="M428.12,770.38c-1.73,1.38-3.56,2.89-4.18,5.02-.84,2.87.77,5.85,2.55,8.26,8.67,11.72,23.06,18.98,37.63,18.99,1.3,0,2.65-.06,3.82-.63,2.65-1.28,3.51-4.58,3.98-7.49,1.42-8.85,1.92-17.86,1.51-26.81-.26-5.59.26-21.87-4.36-25.75-5.56-4.67-35.11,23.76-40.95,28.41Z"/><path class="cls-1" d="M493.79,786.59c-1.3.79-2.65,1.62-3.48,2.9-.95,1.45-1.1,3.27-1.17,5-.44,11.01,1.33,22.1,5.17,32.43,1.81,4.87,4.21,9.74,8.26,13.01,3.18,2.57,7.14,3.95,11.01,5.28,5.75,1.98,11.5,3.96,17.25,5.93,3.9,1.34,7.93,2.7,12.04,2.42,8.74-.59,15.5-8.66,17.51-17.19s.34-17.44-1.34-26.04c-1.26-6.47-2.63-13.19-6.59-18.45-3-3.98-7.26-6.82-11.54-9.36-6.52-3.87-15.82-10.7-23.83-9.13s-16.42,9.04-23.28,13.2Z"/><path class="cls-1" d="M540.76,862.82c-2.43.86-5.07,2.58-5.1,5.16-.02,1.49.86,2.82,1.73,4.03,2.98,4.15,6.25,8.2,10.44,11.13s9.45,4.63,14.47,3.67c-.01-.85-.02-1.7-.03-2.55-4.86-1.89-8.75-6.14-10.19-11.15-2.03-7.06-2.51-13.37-11.32-10.28Z"/><path class="cls-1" d="M589.54,870.53c.6.65,1.28,1.35,2.16,1.44,2.98.3-1.46-17.01-2.16-18.37-1.58-3.08-7.85-12.54-12.34-11.24-3.28.94-8.83,2.81-7.99,5.91,2.17,7.95,18.92,20.71,20.34,22.26Z"/><path class="cls-1" d="M636.01,847.83c4.06,24.96,6.5,50.18,7.31,75.45-8.62-14.22-18.53-29.82-23.74-45.7-2.13-6.51-.33-9.91,3.12-15.45,2.06-3.31,3.84-7.04,6.17-10.16.28-.38,6.62-7.32,7.14-4.14Z"/><path class="cls-1" d="M548.54,936.79c9.11,8.31,18.88,15.9,29.18,22.69,4.93,3.25,10.08,6.35,15.81,7.75-4.91-13.3-16.49-22.83-27.68-31.53-6.28-4.88-15.85-13.26-24.3-13.47-11.63-.29,4.05,11.88,7,14.56Z"/><path class="cls-1" d="M410.58,620.34c-.24-1.15-.85-2.59-2.01-2.48-.47.05-.86.36-1.23.66-2.82,2.31-9.51,5.57-7.59,9.89,1.49,3.34,8.3,5.17,11.31,6.64,1.88-4.46.43-10.15-.49-14.71Z"/><path class="cls-1" d="M414.64,591.75c4.67,3.5,9.82,6.82,15.62,7.44,5.61.6,11.13-1.39,16.42-3.34,2.55-.94,5.62-2.68,5.27-5.38-.14-1.07-.83-1.98-1.57-2.75-3.48-3.66-8.41-5.54-13.26-6.96-11.07-3.24-22.71-4.71-33.32-9.24-4.17-1.78-9.39-5.03-14.06-4.15,1.71,4.59,7.72,9.33,11.27,12.76,4.29,4.15,8.85,8.04,13.62,11.62Z"/><path class="cls-1" d="M350.7,624.83c-.18,8.4,1.56,17.34,7.35,23.42.79.83,1.78,1.65,2.93,1.56,2.01-.15,2.7-2.71,2.87-4.71.28-3.29.56-6.59.84-9.88.25-2.97.5-5.97.12-8.93-.35-2.7-1.22-5.29-2.13-7.85-1.11-3.12-4.62-18.13-9.1-14.56-3.4,2.71-2.78,16.79-2.87,20.95Z"/><path class="cls-1" d="M386.02,672.16c-1.89,13.96-2.61,28.08-2.15,42.17.16,4.98.9,10.73,5.12,13.38,2.08,1.31,4.64,1.57,7.09,1.75,13.7.99,27.51.44,41.09-1.65,3.28-.5,6.63-1.13,9.47-2.84,2.84-1.71,5.11-4.75,5.01-8.06-.09-3.03-2.06-5.64-3.95-8.01-11.23-14.07-22.97-27.74-35.19-40.95-3.75-4.05-11.39-15.88-17.57-15.16-7.48.87-8.19,13.91-8.94,19.39Z"/><path class="cls-1" d="M434.04,639.83c11.18,23.65,22.46,47.47,38.11,68.44,9.69-12.93,19.47-26.01,25.85-40.85,2.03-4.72,3.71-10.09,1.92-14.9-1.55-4.17-5.37-7.01-9.08-9.46-9.14-6.03-18.85-11.2-28.96-15.4-11.22-4.67-37.76-8.81-27.84,12.18Z"/><path class="cls-1" d="M514,631.67c25.05,14.21,38.13,44.1,38.94,72.89.08,2.78.16,5.84,2.01,7.91,2.93,3.29,8.76,1.95,11.5-1.5s3.24-8.11,3.64-12.5c1.09-12.05,2.07-24.76-3.06-35.71-3.24-6.91-8.66-12.53-14.24-17.73-5.63-5.25-11.54-10.23-17.95-14.5-11.78-7.85-25.26-13.3-35.73-22.82-2.26-2.06-4.43-4.33-7.22-5.58-8.87-3.95-33.51,4.21-17.84,13.8,12.07,7.39,27.51,8.68,39.97,15.74Z"/><path class="cls-1" d="M483.07,725.64c-1.18.94-2.49,2.24-2.1,3.69.19.73.79,1.28,1.37,1.76,5.53,4.62,12.24,7.55,18.46,11.2,4.39,2.58,8.56,5.53,12.45,8.81,1.75,1.48,3.62,3.1,5.9,3.25,2.24.15,4.37-1.23,5.71-3.04s2.02-4,2.66-6.16c3.1-10.49,5.62-21.18,6.77-32.05.49-4.62.29-10.19-3.62-12.7-3.83-2.46-8.87-.45-12.87,1.71-12.44,6.72-23.68,14.76-34.72,23.52Z"/><path class="cls-1" d="M518.55,671.21c-1.56.89-2.76,2.38-3.31,4.09-.23.71-.34,1.49-.11,2.2s.88,1.32,1.62,1.33c.53,0,1.02-.29,1.47-.57.92-.57,1.85-1.14,2.77-1.72,1.38-.85,5.38-3.17,4.33-5.29s-5.45-.81-6.78-.04Z"/><path class="cls-1" d="M399.1,761.84c.76.91,1.55,1.85,2.62,2.36,1.4.67,3.1.49,4.5-.18s2.53-1.8,3.52-3c1.52-1.86,2.75-3.97,3.61-6.22.26-.67.48-1.38.4-2.09-.14-1.18-1.13-2.13-2.24-2.54s-2.34-.38-3.53-.29c-3.35.26-8.85.65-11.4,3.2-2.88,2.88.54,6.39,2.51,8.76Z"/><path class="cls-1" d="M354.43,711.75c-.84-9.54.1-19.23,2.74-28.44.78-2.71,1.98-5.68,4.59-6.75,2.76-1.12,6.05.53,7.7,3.01s2.04,5.58,2.25,8.56c1.11,15.47-1.21,31.2,1.72,46.43,1.22,6.35,2,12.72,4.41,18.72,3.83,9.51,8.43,18.7,13.76,27.45,7.18,11.8,16.53,23.41,29.7,27.57,6.33,2,13.08,2.11,19.72,2.01,1.3,4.31-2.98,8.17-6.94,10.31-8.45,4.58-18.51,7.39-27.69,4.54-4.48-1.39-8.47-4.04-12.05-7.07-15-12.71-23.01-31.61-30.51-49.78-7.11-17.23-7.76-38.01-9.4-56.58Z"/><path class="cls-1" d="M325.95,761.21c.08-8.89,1.4-17.71,2.71-26.5,1.88-12.58,3.75-25.17,5.63-37.75.11-.74.35-1.63,1.08-1.81.95-.22,1.56.97,1.79,1.92,5.83,23.82,7.19,48.47,7.91,72.9.21,7.09-.22,16-9.8,15.98-9.22-.02-9.39-17.38-9.32-24.72Z"/><path class="cls-1" d="M346.05,805.01c8.39-.48,14.51,7.28,21.09,12.51,6.04,4.79,13.32,7.74,20.64,10.18,6.07,2.03,12.4,3.85,17.38,7.86s8.28,10.94,5.97,16.91c-.38.98-.91,1.92-1.71,2.61-1.45,1.25-3.49,1.45-5.39,1.6-13.44,1.04-27.79,1.89-39.52-4.74-8.45-4.77-14.47-12.88-19.5-21.18-3.28-5.42-7.33-11.49-9.28-17.54-1.5-4.65-2.32-3.46,1-5.93,1.87-1.39,6.99-2.13,9.31-2.27Z"/><path class="cls-1" d="M580.36,609.25c1.8.04,3.19,1.53,4.36,2.9,7.21,8.47,14.61,17.29,17.71,27.98,1.15,3.97,1.66,8.09,2.18,12.19.8,6.41,1.6,12.83,2.4,19.24.56,4.46,1.1,9.06-.13,13.38s-4.74,8.32-9.21,8.69c-1.35.11-2.83-.16-3.78-1.13-.6-.61-.93-1.43-1.22-2.24-1.73-4.94-2.28-10.2-2.93-15.39-1.71-13.67-4.14-27.3-7.49-40.66-.98-3.9-11.45-25.19-1.89-24.96Z"/><path class="cls-1" d="M560.64,609.87c-.75,1.07-1.59,2.16-2.8,2.65-1.85.74-3.91-.15-5.7-1.03-14.09-6.91-28.17-13.82-42.26-20.74-4.05-1.99-8.14-4-11.71-6.77-5.27-4.09-9.22-9.74-11.75-15.91.63,1.55,9.69,3.63,11.46,4.3,4.11,1.55,8.23,3.09,12.34,4.64,7.93,2.99,15.86,5.99,23.78,9s15.84,6.03,23.76,9.06c2.6.99,7.66,1.78,8.16,5.06.41,2.65-3.87,7.71-5.29,9.73Z"/><path class="cls-1" d="M421.22,895.27c-.59,2.03,1.52,3.74,3.35,4.8,1.82,1.05,3.64,2.11,5.47,3.16,1.61.93,3.47,1.89,5.23,1.3,1.12-.37,1.94-1.31,2.71-2.2,6.25-7.29,12.5-14.58,18.75-21.87,7.82-9.12,15.75-18.42,20.56-29.43-2.46-.98-5.12.67-7.24,2.26-9.47,7.1-18.66,14.58-27.53,22.42-3.71,3.28-7.35,6.62-11.18,9.76-2.9,2.38-9.06,6.2-10.12,9.8Z"/><path class="cls-1" d="M507.32,862.98c1.83,3.43,2.39,7.36,3.07,11.19,1.47,8.32,3.63,16.53,6.43,24.5.18.5.33,1.14-.04,1.52-.21.21-.53.27-.83.32-6.04.98-12.08,1.95-18.12,2.93-.7.11-1.47.21-2.07-.16-.61-.38-.86-1.13-1.06-1.83-1.73-6-3.22-12.07-4.47-18.19-.97-4.77-3.01-10.82-2.01-15.71,1.43-6.99,15.51-11.27,19.09-4.57Z"/><path class="cls-1" d="M449.74,907.76c-.89.92-1.82,1.93-2,3.21-.3,2.13,1.57,3.87,3.27,5.14,23.19,17.32,50.86,27.32,75.5,42.45,1.56.96,3.24,1.97,5.06,1.89-3.44-6.32-9.02-11.12-14.48-15.76-10.93-9.3-21.87-18.62-33.27-27.34-5.74-4.4-11.59-8.65-17.59-12.66-1.79-1.2-6.35-5.31-8.51-5.02s-6.51,6.58-7.98,8.11Z"/><path class="cls-1" d="M436.37,853.08c.29.58.62,1.17,1.15,1.57.83.63,1.98.63,3,.43,1.92-.39,3.66-1.39,5.36-2.37,3.98-2.31,7.96-4.62,11.93-6.93,4.25-2.47,8.52-4.95,12.34-8.03,4.01-3.23,7.67-7.49,8.21-12.61.54-5.12-3.33-10.87-8.48-10.65-1.68.07-3.28.74-4.81,1.43-9.16,4.13-17.74,9.54-25.42,16.02-2.7,2.27-6.09,4.59-6.56,8.33-.5,4.04,1.5,9.32,3.27,12.82Z"/><path class="cls-1" d="M631,775.39c-.73-4.72,2.97-9.64,8.18-10.88,1.89-.45,4.24-.32,5.37,1.1.49.62.67,1.38.84,2.12,3.83,17.1,7.65,34.2,11.48,51.31,3.61,16.15,7.31,32.28,10.79,48.45.24,1.1.15,2.65-1.11,2.84-1.14.17-1.86-1.04-2.2-2.03-8.18-23.95-16.36-47.9-24.54-71.85-2.33-6.82-7.72-14-8.8-21.06Z"/><path class="cls-1" d="M580.36,803.29c-.71,1.72-1.21,3.58-.99,5.42.41,3.5,3.25,6.17,5.98,8.4,8.61,7.03,18.04,13.06,28.04,17.91.94.46,1.91.91,2.95.96,3.02.16,5.1-2.9,6.44-5.61.74-1.5,1.46-3.07,1.49-4.74.04-2.16-1.08-4.16-2.22-6.01-3.75-6.08-8.1-11.9-13.73-16.29-7.67-5.99-22.97-12.23-27.97-.05Z"/><path class="cls-1" d="M580.37,721.48c-4.01,3.8-6.83,8.65-9.81,13.31-4.88,7.63-10.31,14.9-16.25,21.73-2.91,3.36-6.07,6.85-6.9,11.22-.25,1.31-.24,2.76.5,3.87.56.84,1.46,1.38,2.34,1.86,3.04,1.65,6.76,2.95,9.89,1.46,1.2-.57,2.18-1.5,3.12-2.43,8.13-8.01,15.08-17.15,21.17-26.79,3.16-5,6.1-10.15,8.88-15.38,1.9-3.57,6.47-9.39,2.35-12.94-4.6-3.96-11.82.81-15.29,4.1Z"/><path class="cls-1" d="M607.53,743.58c-7.13,6.23-13.59,13.24-19.21,20.86-1.86,2.52-3.67,5.22-4.14,8.31,2.9-.27,5.64-1.39,8.31-2.53,11.08-4.68,21.99-9.75,32.71-15.21,3.52-1.79,7.1-3.68,9.75-6.6,4.88-5.37,7.53-17.09-2.55-16.8-9.54.28-17.92,5.89-24.88,11.96Z"/></g><g class="cls-2"><path class="cls-1" d="M710.38,343.47c1.65-1.48,3.38-3.1,3.88-5.25.67-2.91-1.11-5.8-3.03-8.09-9.34-11.19-24.13-17.6-38.68-16.76-1.3.07-2.64.22-3.77.85-2.57,1.44-3.24,4.78-3.53,7.71-.9,8.92-.87,17.94.06,26.86.58,5.56,1.02,21.85,5.86,25.45,5.82,4.34,33.66-25.77,39.22-30.76Z"/><path class="cls-1" d="M643.87,331.13c1.25-.87,2.55-1.77,3.31-3.1.86-1.5.91-3.33.87-5.06-.21-11.02-2.62-21.99-7.06-32.07-2.1-4.76-4.78-9.48-9-12.5-3.33-2.38-7.36-3.52-11.3-4.63-5.86-1.64-11.71-3.28-17.57-4.91-3.97-1.11-8.07-2.23-12.17-1.71-8.69,1.1-14.96,9.55-16.47,18.18-1.51,8.63.69,17.43,2.86,25.91,1.64,6.38,3.4,13.01,7.66,18.04,3.23,3.8,7.64,6.38,12.07,8.67,6.74,3.49,16.42,9.76,24.33,7.72,7.89-2.04,15.86-9.98,22.47-14.54Z"/><path class="cls-1" d="M592.53,257.78c2.38-1,4.91-2.87,4.79-5.45-.07-1.49-1.03-2.77-1.97-3.92-3.22-3.97-6.72-7.82-11.07-10.5s-9.71-4.07-14.66-2.81c.06.85.12,1.7.18,2.55,4.97,1.6,9.09,5.62,10.82,10.54,2.44,6.93,3.29,13.2,11.9,9.6Z"/><path class="cls-1" d="M543.37,252.94c-.63-.62-1.35-1.27-2.24-1.31-3-.13,2.45,16.9,3.23,18.22,1.76,2.99,8.57,12.05,12.98,10.5,3.21-1.13,8.66-3.32,7.63-6.37-2.63-7.81-20.1-19.57-21.6-21.03Z"/><path class="cls-1" d="M493.97,274.94c-5.51-24.68-9.43-49.71-11.71-74.89,9.44,13.69,20.24,28.68,26.37,44.23,2.51,6.37.91,9.88-2.21,15.6-1.86,3.43-3.42,7.25-5.57,10.5-.26.39-6.18,7.69-6.88,4.56Z"/><path class="cls-1" d="M580.42,184.4c-9.58-7.76-19.78-14.77-30.45-20.94-5.11-2.95-10.43-5.75-16.23-6.81,5.68,12.99,17.8,21.82,29.48,29.86,6.55,4.51,16.6,12.31,25.04,12.02,11.63-.39-4.74-11.62-7.84-14.13Z"/><path class="cls-1" d="M750.04,486.8c.3,1.13,1,2.54,2.16,2.36.47-.07.84-.41,1.19-.73,2.68-2.47,9.17-6.12,6.99-10.31-1.69-3.25-8.58-4.67-11.68-5.97-1.62,4.56.17,10.16,1.35,14.65Z"/><path class="cls-1" d="M726.64,511.57c-5.19-2.68-10.81-5.09-16.64-4.74-5.63.34-10.75,3.22-15.64,6.03-2.36,1.35-5.1,3.58-4.3,6.18.32,1.03,1.15,1.81,2.01,2.45,4.04,3.03,9.21,4.06,14.23,4.66,11.46,1.36,23.17.87,34.39,3.57,4.4,1.06,10.09,3.4,14.55,1.76-2.45-4.24-9.17-7.92-13.23-10.71-4.92-3.38-10.06-6.45-15.37-9.19Z"/><path class="cls-1" d="M802.21,473.02c-.31-8.39-2.57-17.22-8.71-22.95-.84-.78-1.88-1.54-3.01-1.39-1.99.26-2.54,2.86-2.59,4.87-.09,3.31-.17,6.61-.26,9.92-.08,2.98-.15,5.99.4,8.92.51,2.67,1.53,5.21,2.59,7.72,1.29,3.05,5.67,17.83,9.94,14,3.23-2.9,1.8-16.92,1.64-21.09Z"/><path class="cls-1" d="M764.05,434.49c-.83-14.07-2.85-28.06-6.01-41.79-1.12-4.85-2.95-10.35-7.6-12.14-2.3-.88-4.85-.65-7.3-.35-13.64,1.66-27.08,4.87-40,9.53-3.12,1.13-6.29,2.38-8.75,4.61-2.46,2.23-4.1,5.64-3.37,8.88.67,2.96,3.1,5.14,5.42,7.1,13.73,11.65,27.88,22.8,42.42,33.41,4.45,3.25,14.23,13.39,20.16,11.49,7.17-2.3,5.36-15.23,5.04-20.75Z"/><path class="cls-1" d="M721.52,471.81c-12.54-22.95-25.2-46.08-42.05-66.09-8.91,13.47-17.91,27.1-23.41,42.29-1.75,4.83-3.11,10.29-1.05,14.99,1.79,4.07,5.77,6.69,9.62,8.92,9.48,5.49,19.48,10.07,29.81,13.68,11.47,4,38.21,6.59,27.08-13.79Z"/><path class="cls-1" d="M632.76,486.96c-25.84-12.72-40.64-41.79-43.14-70.49-.24-2.77-.5-5.82-2.47-7.78-3.12-3.11-8.86-1.43-11.39,2.17s-2.76,8.29-2.9,12.69c-.38,12.09-.62,24.84,5.15,35.47,3.63,6.71,9.38,12,15.25,16.87,5.93,4.91,12.12,9.54,18.77,13.42,12.22,7.15,25.99,11.8,37.01,20.69,2.38,1.92,4.68,4.07,7.54,5.14,9.08,3.42,33.2-6.16,17-14.82-12.48-6.67-27.97-7.05-40.82-13.37Z"/><path class="cls-1" d="M658.14,391.35c1.12-1,2.36-2.38,1.88-3.81-.24-.72-.86-1.23-1.47-1.68-5.79-4.29-12.66-6.82-19.09-10.1-4.53-2.31-8.87-5.02-12.94-8.07-1.83-1.37-3.79-2.88-6.08-2.9-2.25-.02-4.29,1.49-5.52,3.37s-1.78,4.11-2.3,6.3c-2.48,10.65-4.37,21.47-4.88,32.39-.22,4.64.31,10.19,4.36,12.46,3.97,2.23,8.88-.07,12.75-2.46,12.03-7.44,22.77-16.12,33.28-25.51Z"/><path class="cls-1" d="M625.91,447.76c1.5-.98,2.62-2.54,3.06-4.28.19-.72.25-1.51-.02-2.21s-.95-1.27-1.7-1.23c-.53.03-1,.35-1.44.66-.89.63-1.78,1.25-2.66,1.88-1.33.93-5.19,3.48-4.01,5.54s5.49.49,6.77-.35Z"/><path class="cls-1" d="M739.85,350.3c-.81-.86-1.66-1.75-2.76-2.2-1.44-.59-3.13-.31-4.48.45s-2.43,1.94-3.34,3.2c-1.41,1.95-2.51,4.13-3.24,6.42-.22.68-.4,1.4-.28,2.11.2,1.17,1.25,2.06,2.39,2.41s2.36.24,3.54.08c3.33-.45,8.8-1.17,11.19-3.87,2.71-3.05-.91-6.35-3.02-8.6Z"/><path class="cls-1" d="M787.37,397.69c1.4,9.47,1.03,19.21-1.07,28.55-.62,2.75-1.64,5.79-4.19,7-2.69,1.28-6.07-.17-7.86-2.56s-2.36-5.45-2.75-8.41c-2.01-15.38-.62-31.22-4.43-46.25-1.59-6.27-2.74-12.58-5.5-18.43-4.38-9.27-9.51-18.17-15.35-26.6-7.86-11.36-17.87-22.41-31.26-25.79-6.44-1.62-13.18-1.34-19.8-.85-1.55-4.22,2.5-8.33,6.33-10.7,8.17-5.07,18.05-8.46,27.38-6.16,4.55,1.12,8.69,3.54,12.44,6.35,15.72,11.81,24.83,30.2,33.37,47.91,8.1,16.79,9.98,37.49,12.69,55.93Z"/><path class="cls-1" d="M810.94,352.07c3.65,9.75,6.13,19.87,8.6,29.95,3.53,14.43,7.06,28.87,10.6,43.3.21.85.35,1.91-.25,2.36-.79.58-1.86-.5-2.48-1.45-15.45-23.96-27.06-50.42-37.99-76.87-3.17-7.68-6.51-17.58,2.44-20.98,8.62-3.28,16.06,15.64,19.08,23.69Z"/><path class="cls-1" d="M801.33,310.36c-6.84.99-12.43-8.25-18.2-14.35-5.3-5.6-11.49-8.86-17.66-11.52-5.12-2.2-10.45-4.13-14.82-8.81-4.37-4.69-7.58-13.04-6.11-20.48.24-1.22.61-2.4,1.21-3.28,1.1-1.6,2.76-1.95,4.31-2.22,10.95-1.92,22.66-3.66,32.76,3.92,7.28,5.45,12.79,15.13,17.52,25.08,3.08,6.49,6.84,13.75,8.87,21.1,1.56,5.64,2.15,4.14-.39,7.33-1.43,1.79-5.58,2.96-7.47,3.23Z"/><path class="cls-1" d="M584.86,519.17c-1.97.64-3.89-.07-5.55-.76-10.22-4.28-20.74-8.76-27.11-16.4-2.37-2.83-4.09-6.03-5.81-9.21-2.68-4.97-5.36-9.95-8.05-14.92-1.86-3.46-3.76-7.04-3.64-11.05s2.79-8.6,7.54-10.58c1.44-.6,3.11-.92,4.42-.48.83.28,1.42.83,1.95,1.39,3.27,3.41,5.35,7.53,7.53,11.56,5.72,10.6,12.2,20.9,19.61,30.63,2.16,2.84,19.54,16.44,9.1,19.81Z"/><path class="cls-1" d="M608.68,513.97c.68-1.11,1.46-2.25,2.64-2.81,1.8-.85,3.91-.08,5.75.69,14.47,6.08,28.93,12.15,43.4,18.23,4.16,1.75,8.36,3.52,12.08,6.07,5.5,3.78,9.77,9.19,12.66,15.19-.72-1.51-9.89-3.06-11.7-3.62-4.2-1.3-8.39-2.61-12.59-3.91-8.09-2.52-16.18-5.05-24.27-7.59s-16.17-5.09-24.25-7.65c-2.65-.84-7.75-1.33-8.45-4.58-.56-2.62,3.42-7.92,4.71-10.03Z"/><path class="cls-1" d="M709.96,218.39c.47-2.06-1.74-3.65-3.63-4.59-1.88-.95-3.76-1.89-5.64-2.84-1.66-.83-3.57-1.68-5.3-.99-1.1.44-1.86,1.42-2.58,2.36-5.81,7.64-11.63,15.29-17.44,22.93-7.27,9.56-14.65,19.31-18.8,30.58,2.51.83,5.07-.97,7.09-2.68,9.04-7.64,17.77-15.65,26.17-23.99,3.52-3.49,6.95-7.04,10.59-10.39,2.76-2.54,8.68-6.72,9.53-10.38Z"/><path class="cls-1" d="M625.9,255.66c-2.03-3.31-2.82-7.21-3.72-10.99-1.96-8.22-4.59-16.29-7.86-24.08-.21-.49-.4-1.11-.05-1.52.2-.23.51-.3.81-.37,5.97-1.33,11.94-2.65,17.91-3.98.69-.15,1.45-.3,2.08.04.63.34.92,1.08,1.16,1.76,2.08,5.89,3.92,11.86,5.52,17.89,1.25,4.7,3.64,10.62,2.93,15.57-1.02,7.06-14.82,12.16-18.79,5.68Z"/><path class="cls-1" d="M677.43,203.63c1.04-1.1,2.12-2.31,2.26-3.76.23-2.42-2.19-4.25-4.39-5.57-29.83-17.87-64.73-27.15-96.21-42.43-2-.97-4.14-1.99-6.39-1.76,4.67,6.89,11.9,11.9,18.96,16.74,14.14,9.71,28.3,19.42,42.97,28.45,7.39,4.55,14.91,8.92,22.6,13.01,2.3,1.22,8.21,5.53,10.86,5.05s7.62-7.9,9.34-9.73Z"/><path class="cls-1" d="M717.48,251.19c-.42-.57-.89-1.15-1.6-1.51-1.13-.58-2.64-.49-3.98-.2-2.51.54-4.73,1.69-6.91,2.83-5.1,2.66-10.19,5.31-15.29,7.97-5.44,2.84-10.91,5.69-15.76,9.12-5.08,3.6-9.64,8.2-10.05,13.45s5.03,10.79,11.79,10.17c2.21-.2,4.27-1,6.24-1.83,11.8-4.91,22.77-11.07,32.49-18.25,3.41-2.52,7.74-5.14,8.13-8.97.42-4.14-2.54-9.36-5.07-12.78Z"/><path class="cls-1" d="M507.55,350.34c1,4.67-2.4,9.8-7.53,11.34-1.86.56-4.21.56-5.43-.78-.53-.59-.75-1.34-.96-2.07-4.82-16.85-9.64-33.7-14.46-50.55-4.55-15.91-9.19-31.8-13.6-47.73-.3-1.09-.31-2.64.94-2.9,1.13-.23,1.92.93,2.31,1.89,9.57,23.43,19.14,46.86,28.71,70.29,2.73,6.68,8.52,13.53,10.02,20.5Z"/><path class="cls-1" d="M556.48,319.52c.6-1.76.99-3.64.67-5.47-.62-3.47-3.6-5.97-6.46-8.03-9.01-6.52-18.78-11.98-29.04-16.24-.96-.4-1.96-.79-3.01-.79-3.02.02-4.92,3.19-6.1,5.98-.65,1.54-1.28,3.15-1.21,4.82.09,2.16,1.32,4.09,2.57,5.87,4.09,5.85,8.78,11.4,14.66,15.46,8.01,5.53,23.65,10.86,27.93-1.59Z"/><path class="cls-1" d="M555.1,430.84c4.04-5.78,6.69-13,9.53-19.95,4.65-11.39,9.95-22.29,15.82-32.59,2.88-5.06,6.02-10.33,6.54-16.73.16-1.92.03-4.02-.87-5.59-.68-1.18-1.7-1.91-2.7-2.55-3.45-2.2-7.6-3.85-10.87-1.48-1.25.9-2.24,2.32-3.19,3.73-8.16,12.16-14.94,25.87-20.74,40.25-3.01,7.47-5.77,15.13-8.34,22.9-1.76,5.31-6.24,14.04-1.45,18.94,5.34,5.46,12.78-1.93,16.27-6.92Z"/><path class="cls-1" d="M536.52,389.61c6.34-8.46,11.79-17.67,16.23-27.41,1.46-3.22,2.85-6.64,2.71-10.24-3.04.87-5.74,2.68-8.37,4.48-10.88,7.47-21.49,15.35-31.83,23.62-3.39,2.72-6.83,5.56-9.06,9.39-4.11,7.04-4.52,20.87,6.19,18.57,10.14-2.17,17.95-10.16,24.13-18.42Z"/></g></svg>